<?xml version="1.0" encoding="UTF-8" standalone="no"?>
<!DOCTYPE svg PUBLIC "-//W3C//DTD SVG 1.1//EN" "http://www.w3.org/Graphics/SVG/1.1/DTD/svg11.dtd">
<!-- Generated by graphviz version 2.40.1 (20161225.0304)
 -->
<!-- Title: %0 Pages: 1 -->
<svg width="445pt" height="476pt" viewBox="0.00 0.00 445.26 476.00" xmlns="http://www.w3.org/2000/svg" xmlns:xlink="http://www.w3.org/1999/xlink">
<g id="graph0" class="graph" transform="scale(1 1) rotate(0) translate(4 472)">
<title>%0</title>
<polygon fill="#ffffff" stroke="transparent" points="-4,4 -4,-472 441.264,-472 441.264,4 -4,4"/>
<!-- apiVersion -->
<g id="node1" class="node">
<title>apiVersion</title>
<path fill="none" stroke="#000000" stroke-width="2" d="M75.8096,-36C75.8096,-36 12.0634,-36 12.0634,-36 6.0634,-36 .0634,-30 .0634,-24 .0634,-24 .0634,-12 .0634,-12 .0634,-6 6.0634,0 12.0634,0 12.0634,0 75.8096,0 75.8096,0 81.8096,0 87.8096,-6 87.8096,-12 87.8096,-12 87.8096,-24 87.8096,-24 87.8096,-30 81.8096,-36 75.8096,-36"/>
<text text-anchor="middle" x="43.9365" y="-15" font-family="Fira Mono" font-size="10.00" fill="#000000">apiVersion</text>
</g>
<!-- apiVersion__v1 -->
<g id="node2" class="node">
<title>apiVersion__v1</title>
<path fill="none" stroke="#000000" stroke-width="2" d="M176.4195,-36C176.4195,-36 146.4195,-36 146.4195,-36 140.4195,-36 134.4195,-30 134.4195,-24 134.4195,-24 134.4195,-12 134.4195,-12 134.4195,-6 140.4195,0 146.4195,0 146.4195,0 176.4195,0 176.4195,0 182.4195,0 188.4195,-6 188.4195,-12 188.4195,-12 188.4195,-24 188.4195,-24 188.4195,-30 182.4195,-36 176.4195,-36"/>
<text text-anchor="middle" x="161.4195" y="-15" font-family="Fira Mono" font-size="10.00" fill="#000000">v1</text>
</g>
<!-- apiVersion&#45;&gt;apiVersion__v1 -->
<g id="edge1" class="edge">
<title>apiVersion-&gt;apiVersion__v1</title>
<path fill="none" stroke="#000000" stroke-width="2" d="M88.0171,-18C103.5132,-18 120.4636,-18 134.1678,-18"/>
</g>
<!-- kind -->
<g id="node3" class="node">
<title>kind</title>
<path fill="none" stroke="#000000" stroke-width="2" d="M62.7159,-90C62.7159,-90 25.1571,-90 25.1571,-90 19.1571,-90 13.1571,-84 13.1571,-78 13.1571,-78 13.1571,-66 13.1571,-66 13.1571,-60 19.1571,-54 25.1571,-54 25.1571,-54 62.7159,-54 62.7159,-54 68.7159,-54 74.7159,-60 74.7159,-66 74.7159,-66 74.7159,-78 74.7159,-78 74.7159,-84 68.7159,-90 62.7159,-90"/>
<text text-anchor="middle" x="43.9365" y="-69" font-family="Fira Mono" font-size="10.00" fill="#000000">kind</text>
</g>
<!-- kind__Service -->
<g id="node4" class="node">
<title>kind__Service</title>
<path fill="none" stroke="#000000" stroke-width="2" d="M186.4035,-90C186.4035,-90 136.4355,-90 136.4355,-90 130.4355,-90 124.4355,-84 124.4355,-78 124.4355,-78 124.4355,-66 124.4355,-66 124.4355,-60 130.4355,-54 136.4355,-54 136.4355,-54 186.4035,-54 186.4035,-54 192.4035,-54 198.4035,-60 198.4035,-66 198.4035,-66 198.4035,-78 198.4035,-78 198.4035,-84 192.4035,-90 186.4035,-90"/>
<text text-anchor="middle" x="161.4195" y="-69" font-family="Fira Mono" font-size="10.00" fill="#000000">Service</text>
</g>
<!-- kind&#45;&gt;kind__Service -->
<g id="edge2" class="edge">
<title>kind-&gt;kind__Service</title>
<path fill="none" stroke="#000000" stroke-width="2" d="M74.8038,-72C89.8964,-72 108.1849,-72 124.0605,-72"/>
</g>
<!-- metadata -->
<g id="node5" class="node">
<title>metadata</title>
<path fill="none" stroke="#000000" stroke-width="2" d="M72.0296,-171C72.0296,-171 15.8434,-171 15.8434,-171 9.8434,-171 3.8434,-165 3.8434,-159 3.8434,-159 3.8434,-147 3.8434,-147 3.8434,-141 9.8434,-135 15.8434,-135 15.8434,-135 72.0296,-135 72.0296,-135 78.0296,-135 84.0296,-141 84.0296,-147 84.0296,-147 84.0296,-159 84.0296,-159 84.0296,-165 78.0296,-171 72.0296,-171"/>
<text text-anchor="middle" x="43.9365" y="-150" font-family="Fira Mono" font-size="10.00" fill="#000000">metadata</text>
</g>
<!-- metadata__name -->
<g id="node7" class="node">
<title>metadata__name</title>
<path fill="none" stroke="#000000" stroke-width="2" d="M182.0774,-198C182.0774,-198 140.7616,-198 140.7616,-198 134.7616,-198 128.7616,-192 128.7616,-186 128.7616,-186 128.7616,-174 128.7616,-174 128.7616,-168 134.7616,-162 140.7616,-162 140.7616,-162 182.0774,-162 182.0774,-162 188.0774,-162 194.0774,-168 194.0774,-174 194.0774,-174 194.0774,-186 194.0774,-186 194.0774,-192 188.0774,-198 182.0774,-198"/>
<text text-anchor="middle" x="161.4195" y="-177" font-family="Fira Mono" font-size="10.00" fill="#000000">name</text>
</g>
<!-- metadata&#45;&gt;metadata__name -->
<g id="edge3" class="edge">
<title>metadata-&gt;metadata__name</title>
<path fill="none" stroke="#000000" stroke-width="2" d="M84.0389,-162.2164C98.5299,-165.5467 114.7092,-169.265 128.5121,-172.4372"/>
</g>
<!-- metadata__labels -->
<g id="node9" class="node">
<title>metadata__labels</title>
<path fill="none" stroke="#000000" stroke-width="2" d="M183.2453,-144C183.2453,-144 139.5937,-144 139.5937,-144 133.5937,-144 127.5937,-138 127.5937,-132 127.5937,-132 127.5937,-120 127.5937,-120 127.5937,-114 133.5937,-108 139.5937,-108 139.5937,-108 183.2453,-108 183.2453,-108 189.2453,-108 195.2453,-114 195.2453,-120 195.2453,-120 195.2453,-132 195.2453,-132 195.2453,-138 189.2453,-144 183.2453,-144"/>
<text text-anchor="middle" x="161.4195" y="-123" font-family="Fira Mono" font-size="10.00" fill="#000000">labels</text>
</g>
<!-- metadata&#45;&gt;metadata__labels -->
<g id="edge4" class="edge">
<title>metadata-&gt;metadata__labels</title>
<path fill="none" stroke="#000000" stroke-width="2" d="M84.0389,-143.7836C98.264,-140.5144 114.116,-136.8713 127.7499,-133.738"/>
</g>
<!-- spec -->
<g id="node6" class="node">
<title>spec</title>
<path fill="none" stroke="#000000" stroke-width="2" d="M62.7039,-346C62.7039,-346 25.1691,-346 25.1691,-346 19.1691,-346 13.1691,-340 13.1691,-334 13.1691,-334 13.1691,-322 13.1691,-322 13.1691,-316 19.1691,-310 25.1691,-310 25.1691,-310 62.7039,-310 62.7039,-310 68.7039,-310 74.7039,-316 74.7039,-322 74.7039,-322 74.7039,-334 74.7039,-334 74.7039,-340 68.7039,-346 62.7039,-346"/>
<text text-anchor="middle" x="43.9365" y="-325" font-family="Fira Mono" font-size="10.00" fill="#000000">spec</text>
</g>
<!-- spec__ports -->
<g id="node10" class="node">
<title>spec__ports</title>
<path fill="none" stroke="#000000" stroke-width="2" d="M181.4165,-387C181.4165,-387 141.4225,-387 141.4225,-387 135.4225,-387 129.4225,-381 129.4225,-375 129.4225,-375 129.4225,-363 129.4225,-363 129.4225,-357 135.4225,-351 141.4225,-351 141.4225,-351 181.4165,-351 181.4165,-351 187.4165,-351 193.4165,-357 193.4165,-363 193.4165,-363 193.4165,-375 193.4165,-375 193.4165,-381 187.4165,-387 181.4165,-387"/>
<text text-anchor="middle" x="161.4195" y="-366" font-family="Fira Mono" font-size="10.00" fill="#000000">ports</text>
</g>
<!-- spec&#45;&gt;spec__ports -->
<g id="edge5" class="edge">
<title>spec-&gt;spec__ports</title>
<path fill="none" stroke="#000000" stroke-width="2" d="M74.8038,-338.7723C91.528,-344.6088 112.1766,-351.8149 129.1176,-357.7271"/>
</g>
<!-- spec__selector -->
<g id="node11" class="node">
<title>spec__selector</title>
<path fill="none" stroke="#000000" stroke-width="2" d="M187.0126,-306C187.0126,-306 135.8264,-306 135.8264,-306 129.8264,-306 123.8264,-300 123.8264,-294 123.8264,-294 123.8264,-282 123.8264,-282 123.8264,-276 129.8264,-270 135.8264,-270 135.8264,-270 187.0126,-270 187.0126,-270 193.0126,-270 199.0126,-276 199.0126,-282 199.0126,-282 199.0126,-294 199.0126,-294 199.0126,-300 193.0126,-306 187.0126,-306"/>
<text text-anchor="middle" x="161.4195" y="-285" font-family="Fira Mono" font-size="10.00" fill="#000000">selector</text>
</g>
<!-- spec&#45;&gt;spec__selector -->
<g id="edge6" class="edge">
<title>spec-&gt;spec__selector</title>
<path fill="none" stroke="#000000" stroke-width="2" d="M74.8038,-317.4905C89.7604,-312.3981 107.8557,-306.2371 123.6308,-300.8661"/>
</g>
<!-- metadata__name__my&#45;service -->
<g id="node8" class="node">
<title>metadata__name__my-service</title>
<path fill="none" stroke="#000000" stroke-width="2" d="M311.6,-198C311.6,-198 246.754,-198 246.754,-198 240.754,-198 234.754,-192 234.754,-186 234.754,-186 234.754,-174 234.754,-174 234.754,-168 240.754,-162 246.754,-162 246.754,-162 311.6,-162 311.6,-162 317.6,-162 323.6,-168 323.6,-174 323.6,-174 323.6,-186 323.6,-186 323.6,-192 317.6,-198 311.6,-198"/>
<text text-anchor="middle" x="279.177" y="-177" font-family="Fira Mono" font-size="10.00" fill="#000000">my-service</text>
</g>
<!-- metadata__name&#45;&gt;metadata__name__my&#45;service -->
<g id="edge7" class="edge">
<title>metadata__name-&gt;metadata__name__my-service</title>
<path fill="none" stroke="#000000" stroke-width="2" d="M194.2215,-180C206.7434,-180 221.2372,-180 234.6684,-180"/>
</g>
<!-- metadata__labels__app -->
<g id="node12" class="node">
<title>metadata__labels__app</title>
<path fill="none" stroke="#000000" stroke-width="2" d="M296.6177,-144C296.6177,-144 261.7363,-144 261.7363,-144 255.7363,-144 249.7363,-138 249.7363,-132 249.7363,-132 249.7363,-120 249.7363,-120 249.7363,-114 255.7363,-108 261.7363,-108 261.7363,-108 296.6177,-108 296.6177,-108 302.6177,-108 308.6177,-114 308.6177,-120 308.6177,-120 308.6177,-132 308.6177,-132 308.6177,-138 302.6177,-144 296.6177,-144"/>
<text text-anchor="middle" x="279.177" y="-123" font-family="Fira Mono" font-size="10.00" fill="#000000">app</text>
</g>
<!-- metadata__labels&#45;&gt;metadata__labels__app -->
<g id="edge8" class="edge">
<title>metadata__labels-&gt;metadata__labels__app</title>
<path fill="none" stroke="#000000" stroke-width="2" d="M195.1641,-126C212.4267,-126 233.2379,-126 249.8283,-126"/>
</g>
<!-- spec__ports__port -->
<g id="node18" class="node">
<title>spec__ports__port</title>
<path fill="none" stroke="#000000" stroke-width="2" d="M297.2851,-468C297.2851,-468 261.0689,-468 261.0689,-468 255.0689,-468 249.0689,-462 249.0689,-456 249.0689,-456 249.0689,-444 249.0689,-444 249.0689,-438 255.0689,-432 261.0689,-432 261.0689,-432 297.2851,-432 297.2851,-432 303.2851,-432 309.2851,-438 309.2851,-444 309.2851,-444 309.2851,-456 309.2851,-456 309.2851,-462 303.2851,-468 297.2851,-468"/>
<text text-anchor="middle" x="279.177" y="-447" font-family="Fira Mono" font-size="10.00" fill="#000000">port</text>
</g>
<!-- spec__ports&#45;&gt;spec__ports__port -->
<g id="edge9" class="edge">
<title>spec__ports-&gt;spec__ports__port</title>
<path fill="none" stroke="#000000" stroke-width="2" d="M184.9019,-387.031C199.1652,-397.7835 217.8637,-411.5294 234.966,-423 239.4475,-426.0058 244.2569,-429.0858 248.9943,-432.0401"/>
</g>
<!-- spec__ports__protocol -->
<g id="node20" class="node">
<title>spec__ports__protocol</title>
<path fill="none" stroke="#000000" stroke-width="2" d="M306.0037,-414C306.0037,-414 252.3503,-414 252.3503,-414 246.3503,-414 240.3503,-408 240.3503,-402 240.3503,-402 240.3503,-390 240.3503,-390 240.3503,-384 246.3503,-378 252.3503,-378 252.3503,-378 306.0037,-378 306.0037,-378 312.0037,-378 318.0037,-384 318.0037,-390 318.0037,-390 318.0037,-402 318.0037,-402 318.0037,-408 312.0037,-414 306.0037,-414"/>
<text text-anchor="middle" x="279.177" y="-393" font-family="Fira Mono" font-size="10.00" fill="#000000">protocol</text>
</g>
<!-- spec__ports&#45;&gt;spec__ports__protocol -->
<g id="edge10" class="edge">
<title>spec__ports-&gt;spec__ports__protocol</title>
<path fill="none" stroke="#000000" stroke-width="2" d="M193.5973,-376.3779C208.0339,-379.688 225.1876,-383.6211 240.3333,-387.0937"/>
</g>
<!-- spec__ports__targetPort -->
<g id="node22" class="node">
<title>spec__ports__targetPort</title>
<path fill="none" stroke="#000000" stroke-width="2" d="M309.1101,-360C309.1101,-360 249.2439,-360 249.2439,-360 243.2439,-360 237.2439,-354 237.2439,-348 237.2439,-348 237.2439,-336 237.2439,-336 237.2439,-330 243.2439,-324 249.2439,-324 249.2439,-324 309.1101,-324 309.1101,-324 315.1101,-324 321.1101,-330 321.1101,-336 321.1101,-336 321.1101,-348 321.1101,-348 321.1101,-354 315.1101,-360 309.1101,-360"/>
<text text-anchor="middle" x="279.177" y="-339" font-family="Fira Mono" font-size="10.00" fill="#000000">targetPort</text>
</g>
<!-- spec__ports&#45;&gt;spec__ports__targetPort -->
<g id="edge11" class="edge">
<title>spec__ports-&gt;spec__ports__targetPort</title>
<path fill="none" stroke="#000000" stroke-width="2" d="M193.5973,-361.6221C207.0805,-358.5306 222.9339,-354.8957 237.3078,-351.6"/>
</g>
<!-- spec__selector__app -->
<g id="node14" class="node">
<title>spec__selector__app</title>
<path fill="none" stroke="#000000" stroke-width="2" d="M296.6177,-306C296.6177,-306 261.7363,-306 261.7363,-306 255.7363,-306 249.7363,-300 249.7363,-294 249.7363,-294 249.7363,-282 249.7363,-282 249.7363,-276 255.7363,-270 261.7363,-270 261.7363,-270 296.6177,-270 296.6177,-270 302.6177,-270 308.6177,-276 308.6177,-282 308.6177,-282 308.6177,-294 308.6177,-294 308.6177,-300 302.6177,-306 296.6177,-306"/>
<text text-anchor="middle" x="279.177" y="-285" font-family="Fira Mono" font-size="10.00" fill="#000000">app</text>
</g>
<!-- spec__selector&#45;&gt;spec__selector__app -->
<g id="edge12" class="edge">
<title>spec__selector-&gt;spec__selector__app</title>
<path fill="none" stroke="#000000" stroke-width="2" d="M199.0025,-288C215.426,-288 234.4045,-288 249.7727,-288"/>
</g>
<!-- spec__selector__tier -->
<g id="node16" class="node">
<title>spec__selector__tier</title>
<path fill="none" stroke="#000000" stroke-width="2" d="M296.0039,-252C296.0039,-252 262.3501,-252 262.3501,-252 256.3501,-252 250.3501,-246 250.3501,-240 250.3501,-240 250.3501,-228 250.3501,-228 250.3501,-222 256.3501,-216 262.3501,-216 262.3501,-216 296.0039,-216 296.0039,-216 302.0039,-216 308.0039,-222 308.0039,-228 308.0039,-228 308.0039,-240 308.0039,-240 308.0039,-246 302.0039,-252 296.0039,-252"/>
<text text-anchor="middle" x="279.177" y="-231" font-family="Fira Mono" font-size="10.00" fill="#000000">tier</text>
</g>
<!-- spec__selector&#45;&gt;spec__selector__tier -->
<g id="edge13" class="edge">
<title>spec__selector-&gt;spec__selector__tier</title>
<path fill="none" stroke="#000000" stroke-width="2" d="M199.0025,-270.7656C215.5607,-263.1725 234.7158,-254.3886 250.1499,-247.311"/>
</g>
<!-- metadata__labels__app__myapp -->
<g id="node13" class="node">
<title>metadata__labels__app__myapp</title>
<path fill="none" stroke="#000000" stroke-width="2" d="M422.0443,-144C422.0443,-144 374.6077,-144 374.6077,-144 368.6077,-144 362.6077,-138 362.6077,-132 362.6077,-132 362.6077,-120 362.6077,-120 362.6077,-114 368.6077,-108 374.6077,-108 374.6077,-108 422.0443,-108 422.0443,-108 428.0443,-108 434.0443,-114 434.0443,-120 434.0443,-120 434.0443,-132 434.0443,-132 434.0443,-138 428.0443,-144 422.0443,-144"/>
<text text-anchor="middle" x="398.326" y="-123" font-family="Fira Mono" font-size="10.00" fill="#000000">myapp</text>
</g>
<!-- metadata__labels__app&#45;&gt;metadata__labels__app__myapp -->
<g id="edge14" class="edge">
<title>metadata__labels__app-&gt;metadata__labels__app__myapp</title>
<path fill="none" stroke="#000000" stroke-width="2" d="M308.6296,-126C324.893,-126 345.2208,-126 362.4107,-126"/>
</g>
<!-- spec__selector__app__myapp -->
<g id="node15" class="node">
<title>spec__selector__app__myapp</title>
<path fill="none" stroke="#000000" stroke-width="2" d="M422.0443,-306C422.0443,-306 374.6077,-306 374.6077,-306 368.6077,-306 362.6077,-300 362.6077,-294 362.6077,-294 362.6077,-282 362.6077,-282 362.6077,-276 368.6077,-270 374.6077,-270 374.6077,-270 422.0443,-270 422.0443,-270 428.0443,-270 434.0443,-276 434.0443,-282 434.0443,-282 434.0443,-294 434.0443,-294 434.0443,-300 428.0443,-306 422.0443,-306"/>
<text text-anchor="middle" x="398.326" y="-285" font-family="Fira Mono" font-size="10.00" fill="#000000">myapp</text>
</g>
<!-- spec__selector__app&#45;&gt;spec__selector__app__myapp -->
<g id="edge15" class="edge">
<title>spec__selector__app-&gt;spec__selector__app__myapp</title>
<path fill="none" stroke="#000000" stroke-width="2" d="M308.6296,-288C324.893,-288 345.2208,-288 362.4107,-288"/>
</g>
<!-- spec__selector__tier__frontend -->
<g id="node17" class="node">
<title>spec__selector__tier__frontend</title>
<path fill="none" stroke="#000000" stroke-width="2" d="M425.2021,-252C425.2021,-252 371.4499,-252 371.4499,-252 365.4499,-252 359.4499,-246 359.4499,-240 359.4499,-240 359.4499,-228 359.4499,-228 359.4499,-222 365.4499,-216 371.4499,-216 371.4499,-216 425.2021,-216 425.2021,-216 431.2021,-216 437.2021,-222 437.2021,-228 437.2021,-228 437.2021,-240 437.2021,-240 437.2021,-246 431.2021,-252 425.2021,-252"/>
<text text-anchor="middle" x="398.326" y="-231" font-family="Fira Mono" font-size="10.00" fill="#000000">frontend</text>
</g>
<!-- spec__selector__tier&#45;&gt;spec__selector__tier__frontend -->
<g id="edge16" class="edge">
<title>spec__selector__tier-&gt;spec__selector__tier__frontend</title>
<path fill="none" stroke="#000000" stroke-width="2" d="M308.0196,-234C323.447,-234 342.6606,-234 359.3946,-234"/>
</g>
<!-- spec__ports__port__80 -->
<g id="node19" class="node">
<title>spec__ports__port__80</title>
<path fill="none" stroke="#000000" stroke-width="2" d="M413.326,-468C413.326,-468 383.326,-468 383.326,-468 377.326,-468 371.326,-462 371.326,-456 371.326,-456 371.326,-444 371.326,-444 371.326,-438 377.326,-432 383.326,-432 383.326,-432 413.326,-432 413.326,-432 419.326,-432 425.326,-438 425.326,-444 425.326,-444 425.326,-456 425.326,-456 425.326,-462 419.326,-468 413.326,-468"/>
<text text-anchor="middle" x="398.326" y="-447" font-family="Fira Mono" font-size="10.00" fill="#000000">80</text>
</g>
<!-- spec__ports__port&#45;&gt;spec__ports__port__80 -->
<g id="edge17" class="edge">
<title>spec__ports__port-&gt;spec__ports__port__80</title>
<path fill="none" stroke="#000000" stroke-width="2" d="M309.2433,-450C328.2706,-450 352.6705,-450 371.1215,-450"/>
</g>
<!-- spec__ports__protocol__TCP -->
<g id="node21" class="node">
<title>spec__ports__protocol__TCP</title>
<path fill="none" stroke="#000000" stroke-width="2" d="M417.6639,-414C417.6639,-414 378.9881,-414 378.9881,-414 372.9881,-414 366.9881,-408 366.9881,-402 366.9881,-402 366.9881,-390 366.9881,-390 366.9881,-384 372.9881,-378 378.9881,-378 378.9881,-378 417.6639,-378 417.6639,-378 423.6639,-378 429.6639,-384 429.6639,-390 429.6639,-390 429.6639,-402 429.6639,-402 429.6639,-408 423.6639,-414 417.6639,-414"/>
<text text-anchor="middle" x="398.326" y="-393" font-family="Fira Mono" font-size="10.00" fill="#000000">TCP</text>
</g>
<!-- spec__ports__protocol&#45;&gt;spec__ports__protocol__TCP -->
<g id="edge18" class="edge">
<title>spec__ports__protocol-&gt;spec__ports__protocol__TCP</title>
<path fill="none" stroke="#000000" stroke-width="2" d="M317.8613,-396C333.7617,-396 351.9354,-396 366.9833,-396"/>
</g>
<!-- spec__ports__targetPort__9376 -->
<g id="node23" class="node">
<title>spec__ports__targetPort__9376</title>
<path fill="none" stroke="#000000" stroke-width="2" d="M418.326,-360C418.326,-360 378.326,-360 378.326,-360 372.326,-360 366.326,-354 366.326,-348 366.326,-348 366.326,-336 366.326,-336 366.326,-330 372.326,-324 378.326,-324 378.326,-324 418.326,-324 418.326,-324 424.326,-324 430.326,-330 430.326,-336 430.326,-336 430.326,-348 430.326,-348 430.326,-354 424.326,-360 418.326,-360"/>
<text text-anchor="middle" x="398.326" y="-339" font-family="Fira Mono" font-size="10.00" fill="#000000">9376</text>
</g>
<!-- spec__ports__targetPort&#45;&gt;spec__ports__targetPort__9376 -->
<g id="edge19" class="edge">
<title>spec__ports__targetPort-&gt;spec__ports__targetPort__9376</title>
<path fill="none" stroke="#000000" stroke-width="2" d="M321.1845,-342C335.9244,-342 352.2399,-342 366.0556,-342"/>
</g>
</g>
</svg>