<?xml version="1.0" encoding="UTF-8" standalone="no"?>
<!DOCTYPE svg PUBLIC "-//W3C//DTD SVG 1.1//EN" "http://www.w3.org/Graphics/SVG/1.1/DTD/svg11.dtd">
<!-- Generated by graphviz version 2.40.1 (20161225.0304)
 -->
<!-- Title: %0 Pages: 1 -->
<svg width="445pt" height="476pt" viewBox="0.00 0.00 445.26 476.00" xmlns="http://www.w3.org/2000/svg" xmlns:xlink="http://www.w3.org/1999/xlink">
<g id="graph0" class="graph" transform="scale(1 1) rotate(0) translate(4 472)">
<title>%0</title>
<polygon fill="#ffffff" stroke="transparent" points="-4,4 -4,-472 441.264,-472 441.264,4 -4,4"/>
<!-- 0__spec -->
<g id="node1" class="node">
<title>0__spec</title>
<path fill="none" stroke="#000000" stroke-width="2" d="M62.7039,-144C62.7039,-144 25.1691,-144 25.1691,-144 19.1691,-144 13.1691,-138 13.1691,-132 13.1691,-132 13.1691,-120 13.1691,-120 13.1691,-114 19.1691,-108 25.1691,-108 25.1691,-108 62.7039,-108 62.7039,-108 68.7039,-108 74.7039,-114 74.7039,-120 74.7039,-120 74.7039,-132 74.7039,-132 74.7039,-138 68.7039,-144 62.7039,-144"/>
<text text-anchor="middle" x="43.9365" y="-123" font-family="Fira Mono" font-size="10.00" fill="#000000">spec</text>
</g>
<!-- 0__spec__ports -->
<g id="node7" class="node">
<title>0__spec__ports</title>
<path fill="none" stroke="#000000" stroke-width="2" d="M181.4165,-171C181.4165,-171 141.4225,-171 141.4225,-171 135.4225,-171 129.4225,-165 129.4225,-159 129.4225,-159 129.4225,-147 129.4225,-147 129.4225,-141 135.4225,-135 141.4225,-135 141.4225,-135 181.4165,-135 181.4165,-135 187.4165,-135 193.4165,-141 193.4165,-147 193.4165,-147 193.4165,-159 193.4165,-159 193.4165,-165 187.4165,-171 181.4165,-171"/>
<text text-anchor="middle" x="161.4195" y="-150" font-family="Fira Mono" font-size="10.00" fill="#000000">ports</text>
</g>
<!-- 0__spec&#45;&gt;0__spec__ports -->
<g id="edge1" class="edge">
<title>0__spec-&gt;0__spec__ports</title>
<path fill="none" stroke="#000000" stroke-width="2" d="M74.8038,-133.0939C91.528,-136.9375 112.1766,-141.683 129.1176,-145.5764"/>
</g>
<!-- 0__spec__selector -->
<g id="node8" class="node">
<title>0__spec__selector</title>
<path fill="none" stroke="#000000" stroke-width="2" d="M187.0126,-90C187.0126,-90 135.8264,-90 135.8264,-90 129.8264,-90 123.8264,-84 123.8264,-78 123.8264,-78 123.8264,-66 123.8264,-66 123.8264,-60 129.8264,-54 135.8264,-54 135.8264,-54 187.0126,-54 187.0126,-54 193.0126,-54 199.0126,-60 199.0126,-66 199.0126,-66 199.0126,-78 199.0126,-78 199.0126,-84 193.0126,-90 187.0126,-90"/>
<text text-anchor="middle" x="161.4195" y="-69" font-family="Fira Mono" font-size="10.00" fill="#000000">selector</text>
</g>
<!-- 0__spec&#45;&gt;0__spec__selector -->
<g id="edge2" class="edge">
<title>0__spec-&gt;0__spec__selector</title>
<path fill="none" stroke="#000000" stroke-width="2" d="M74.8038,-111.8121C89.7604,-104.9374 107.8557,-96.6201 123.6308,-89.3692"/>
</g>
<!-- 0__metadata -->
<g id="node2" class="node">
<title>0__metadata</title>
<path fill="none" stroke="#000000" stroke-width="2" d="M72.0296,-333C72.0296,-333 15.8434,-333 15.8434,-333 9.8434,-333 3.8434,-327 3.8434,-321 3.8434,-321 3.8434,-309 3.8434,-309 3.8434,-303 9.8434,-297 15.8434,-297 15.8434,-297 72.0296,-297 72.0296,-297 78.0296,-297 84.0296,-303 84.0296,-309 84.0296,-309 84.0296,-321 84.0296,-321 84.0296,-327 78.0296,-333 72.0296,-333"/>
<text text-anchor="middle" x="43.9365" y="-312" font-family="Fira Mono" font-size="10.00" fill="#000000">metadata</text>
</g>
<!-- 0__metadata__name -->
<g id="node9" class="node">
<title>0__metadata__name</title>
<path fill="none" stroke="#000000" stroke-width="2" d="M182.0774,-360C182.0774,-360 140.7616,-360 140.7616,-360 134.7616,-360 128.7616,-354 128.7616,-348 128.7616,-348 128.7616,-336 128.7616,-336 128.7616,-330 134.7616,-324 140.7616,-324 140.7616,-324 182.0774,-324 182.0774,-324 188.0774,-324 194.0774,-330 194.0774,-336 194.0774,-336 194.0774,-348 194.0774,-348 194.0774,-354 188.0774,-360 182.0774,-360"/>
<text text-anchor="middle" x="161.4195" y="-339" font-family="Fira Mono" font-size="10.00" fill="#000000">name</text>
</g>
<!-- 0__metadata&#45;&gt;0__metadata__name -->
<g id="edge3" class="edge">
<title>0__metadata-&gt;0__metadata__name</title>
<path fill="none" stroke="#000000" stroke-width="2" d="M84.0389,-324.2164C98.5299,-327.5467 114.7092,-331.265 128.5121,-334.4372"/>
</g>
<!-- 0__metadata__labels -->
<g id="node11" class="node">
<title>0__metadata__labels</title>
<path fill="none" stroke="#000000" stroke-width="2" d="M183.2453,-306C183.2453,-306 139.5937,-306 139.5937,-306 133.5937,-306 127.5937,-300 127.5937,-294 127.5937,-294 127.5937,-282 127.5937,-282 127.5937,-276 133.5937,-270 139.5937,-270 139.5937,-270 183.2453,-270 183.2453,-270 189.2453,-270 195.2453,-276 195.2453,-282 195.2453,-282 195.2453,-294 195.2453,-294 195.2453,-300 189.2453,-306 183.2453,-306"/>
<text text-anchor="middle" x="161.4195" y="-285" font-family="Fira Mono" font-size="10.00" fill="#000000">labels</text>
</g>
<!-- 0__metadata&#45;&gt;0__metadata__labels -->
<g id="edge4" class="edge">
<title>0__metadata-&gt;0__metadata__labels</title>
<path fill="none" stroke="#000000" stroke-width="2" d="M84.0389,-305.7836C98.264,-302.5144 114.116,-298.8713 127.7499,-295.738"/>
</g>
<!-- 0__kind -->
<g id="node3" class="node">
<title>0__kind</title>
<path fill="none" stroke="#000000" stroke-width="2" d="M62.7159,-414C62.7159,-414 25.1571,-414 25.1571,-414 19.1571,-414 13.1571,-408 13.1571,-402 13.1571,-402 13.1571,-390 13.1571,-390 13.1571,-384 19.1571,-378 25.1571,-378 25.1571,-378 62.7159,-378 62.7159,-378 68.7159,-378 74.7159,-384 74.7159,-390 74.7159,-390 74.7159,-402 74.7159,-402 74.7159,-408 68.7159,-414 62.7159,-414"/>
<text text-anchor="middle" x="43.9365" y="-393" font-family="Fira Mono" font-size="10.00" fill="#000000">kind</text>
</g>
<!-- 0__kind__Service -->
<g id="node4" class="node">
<title>0__kind__Service</title>
<path fill="none" stroke="#000000" stroke-width="2" d="M186.4035,-414C186.4035,-414 136.4355,-414 136.4355,-414 130.4355,-414 124.4355,-408 124.4355,-402 124.4355,-402 124.4355,-390 124.4355,-390 124.4355,-384 130.4355,-378 136.4355,-378 136.4355,-378 186.4035,-378 186.4035,-378 192.4035,-378 198.4035,-384 198.4035,-390 198.4035,-390 198.4035,-402 198.4035,-402 198.4035,-408 192.4035,-414 186.4035,-414"/>
<text text-anchor="middle" x="161.4195" y="-393" font-family="Fira Mono" font-size="10.00" fill="#000000">Service</text>
</g>
<!-- 0__kind&#45;&gt;0__kind__Service -->
<g id="edge5" class="edge">
<title>0__kind-&gt;0__kind__Service</title>
<path fill="none" stroke="#000000" stroke-width="2" d="M74.8038,-396C89.8964,-396 108.1849,-396 124.0605,-396"/>
</g>
<!-- 0__apiVersion -->
<g id="node5" class="node">
<title>0__apiVersion</title>
<path fill="none" stroke="#000000" stroke-width="2" d="M75.8096,-468C75.8096,-468 12.0634,-468 12.0634,-468 6.0634,-468 .0634,-462 .0634,-456 .0634,-456 .0634,-444 .0634,-444 .0634,-438 6.0634,-432 12.0634,-432 12.0634,-432 75.8096,-432 75.8096,-432 81.8096,-432 87.8096,-438 87.8096,-444 87.8096,-444 87.8096,-456 87.8096,-456 87.8096,-462 81.8096,-468 75.8096,-468"/>
<text text-anchor="middle" x="43.9365" y="-447" font-family="Fira Mono" font-size="10.00" fill="#000000">apiVersion</text>
</g>
<!-- 0__apiVersion__v1 -->
<g id="node6" class="node">
<title>0__apiVersion__v1</title>
<path fill="none" stroke="#000000" stroke-width="2" d="M176.4195,-468C176.4195,-468 146.4195,-468 146.4195,-468 140.4195,-468 134.4195,-462 134.4195,-456 134.4195,-456 134.4195,-444 134.4195,-444 134.4195,-438 140.4195,-432 146.4195,-432 146.4195,-432 176.4195,-432 176.4195,-432 182.4195,-432 188.4195,-438 188.4195,-444 188.4195,-444 188.4195,-456 188.4195,-456 188.4195,-462 182.4195,-468 176.4195,-468"/>
<text text-anchor="middle" x="161.4195" y="-447" font-family="Fira Mono" font-size="10.00" fill="#000000">v1</text>
</g>
<!-- 0__apiVersion&#45;&gt;0__apiVersion__v1 -->
<g id="edge6" class="edge">
<title>0__apiVersion-&gt;0__apiVersion__v1</title>
<path fill="none" stroke="#000000" stroke-width="2" d="M88.0171,-450C103.5132,-450 120.4636,-450 134.1678,-450"/>
</g>
<!-- 0__spec__ports__port -->
<g id="node18" class="node">
<title>0__spec__ports__port</title>
<path fill="none" stroke="#000000" stroke-width="2" d="M297.2851,-252C297.2851,-252 261.0689,-252 261.0689,-252 255.0689,-252 249.0689,-246 249.0689,-240 249.0689,-240 249.0689,-228 249.0689,-228 249.0689,-222 255.0689,-216 261.0689,-216 261.0689,-216 297.2851,-216 297.2851,-216 303.2851,-216 309.2851,-222 309.2851,-228 309.2851,-228 309.2851,-240 309.2851,-240 309.2851,-246 303.2851,-252 297.2851,-252"/>
<text text-anchor="middle" x="279.177" y="-231" font-family="Fira Mono" font-size="10.00" fill="#000000">port</text>
</g>
<!-- 0__spec__ports&#45;&gt;0__spec__ports__port -->
<g id="edge7" class="edge">
<title>0__spec__ports-&gt;0__spec__ports__port</title>
<path fill="none" stroke="#000000" stroke-width="2" d="M184.9019,-171.031C199.1652,-181.7835 217.8637,-195.5294 234.966,-207 239.4475,-210.0058 244.2569,-213.0858 248.9943,-216.0401"/>
</g>
<!-- 0__spec__ports__protocol -->
<g id="node20" class="node">
<title>0__spec__ports__protocol</title>
<path fill="none" stroke="#000000" stroke-width="2" d="M306.0037,-198C306.0037,-198 252.3503,-198 252.3503,-198 246.3503,-198 240.3503,-192 240.3503,-186 240.3503,-186 240.3503,-174 240.3503,-174 240.3503,-168 246.3503,-162 252.3503,-162 252.3503,-162 306.0037,-162 306.0037,-162 312.0037,-162 318.0037,-168 318.0037,-174 318.0037,-174 318.0037,-186 318.0037,-186 318.0037,-192 312.0037,-198 306.0037,-198"/>
<text text-anchor="middle" x="279.177" y="-177" font-family="Fira Mono" font-size="10.00" fill="#000000">protocol</text>
</g>
<!-- 0__spec__ports&#45;&gt;0__spec__ports__protocol -->
<g id="edge8" class="edge">
<title>0__spec__ports-&gt;0__spec__ports__protocol</title>
<path fill="none" stroke="#000000" stroke-width="2" d="M193.5973,-160.3779C208.0339,-163.688 225.1876,-167.6211 240.3333,-171.0937"/>
</g>
<!-- 0__spec__ports__targetPort -->
<g id="node22" class="node">
<title>0__spec__ports__targetPort</title>
<path fill="none" stroke="#000000" stroke-width="2" d="M309.1101,-144C309.1101,-144 249.2439,-144 249.2439,-144 243.2439,-144 237.2439,-138 237.2439,-132 237.2439,-132 237.2439,-120 237.2439,-120 237.2439,-114 243.2439,-108 249.2439,-108 249.2439,-108 309.1101,-108 309.1101,-108 315.1101,-108 321.1101,-114 321.1101,-120 321.1101,-120 321.1101,-132 321.1101,-132 321.1101,-138 315.1101,-144 309.1101,-144"/>
<text text-anchor="middle" x="279.177" y="-123" font-family="Fira Mono" font-size="10.00" fill="#000000">targetPort</text>
</g>
<!-- 0__spec__ports&#45;&gt;0__spec__ports__targetPort -->
<g id="edge9" class="edge">
<title>0__spec__ports-&gt;0__spec__ports__targetPort</title>
<path fill="none" stroke="#000000" stroke-width="2" d="M193.5973,-145.6221C207.0805,-142.5306 222.9339,-138.8957 237.3078,-135.6"/>
</g>
<!-- 0__spec__selector__app -->
<g id="node12" class="node">
<title>0__spec__selector__app</title>
<path fill="none" stroke="#000000" stroke-width="2" d="M296.6177,-90C296.6177,-90 261.7363,-90 261.7363,-90 255.7363,-90 249.7363,-84 249.7363,-78 249.7363,-78 249.7363,-66 249.7363,-66 249.7363,-60 255.7363,-54 261.7363,-54 261.7363,-54 296.6177,-54 296.6177,-54 302.6177,-54 308.6177,-60 308.6177,-66 308.6177,-66 308.6177,-78 308.6177,-78 308.6177,-84 302.6177,-90 296.6177,-90"/>
<text text-anchor="middle" x="279.177" y="-69" font-family="Fira Mono" font-size="10.00" fill="#000000">app</text>
</g>
<!-- 0__spec__selector&#45;&gt;0__spec__selector__app -->
<g id="edge10" class="edge">
<title>0__spec__selector-&gt;0__spec__selector__app</title>
<path fill="none" stroke="#000000" stroke-width="2" d="M199.0025,-72C215.426,-72 234.4045,-72 249.7727,-72"/>
</g>
<!-- 0__spec__selector__tier -->
<g id="node14" class="node">
<title>0__spec__selector__tier</title>
<path fill="none" stroke="#000000" stroke-width="2" d="M296.0039,-36C296.0039,-36 262.3501,-36 262.3501,-36 256.3501,-36 250.3501,-30 250.3501,-24 250.3501,-24 250.3501,-12 250.3501,-12 250.3501,-6 256.3501,0 262.3501,0 262.3501,0 296.0039,0 296.0039,0 302.0039,0 308.0039,-6 308.0039,-12 308.0039,-12 308.0039,-24 308.0039,-24 308.0039,-30 302.0039,-36 296.0039,-36"/>
<text text-anchor="middle" x="279.177" y="-15" font-family="Fira Mono" font-size="10.00" fill="#000000">tier</text>
</g>
<!-- 0__spec__selector&#45;&gt;0__spec__selector__tier -->
<g id="edge11" class="edge">
<title>0__spec__selector-&gt;0__spec__selector__tier</title>
<path fill="none" stroke="#000000" stroke-width="2" d="M199.0025,-54.7656C215.5607,-47.1725 234.7158,-38.3886 250.1499,-31.311"/>
</g>
<!-- 0__metadata__name__my&#45;service -->
<g id="node10" class="node">
<title>0__metadata__name__my-service</title>
<path fill="none" stroke="#000000" stroke-width="2" d="M311.6,-360C311.6,-360 246.754,-360 246.754,-360 240.754,-360 234.754,-354 234.754,-348 234.754,-348 234.754,-336 234.754,-336 234.754,-330 240.754,-324 246.754,-324 246.754,-324 311.6,-324 311.6,-324 317.6,-324 323.6,-330 323.6,-336 323.6,-336 323.6,-348 323.6,-348 323.6,-354 317.6,-360 311.6,-360"/>
<text text-anchor="middle" x="279.177" y="-339" font-family="Fira Mono" font-size="10.00" fill="#000000">my-service</text>
</g>
<!-- 0__metadata__name&#45;&gt;0__metadata__name__my&#45;service -->
<g id="edge12" class="edge">
<title>0__metadata__name-&gt;0__metadata__name__my-service</title>
<path fill="none" stroke="#000000" stroke-width="2" d="M194.2215,-342C206.7434,-342 221.2372,-342 234.6684,-342"/>
</g>
<!-- 0__metadata__labels__app -->
<g id="node16" class="node">
<title>0__metadata__labels__app</title>
<path fill="none" stroke="#000000" stroke-width="2" d="M296.6177,-306C296.6177,-306 261.7363,-306 261.7363,-306 255.7363,-306 249.7363,-300 249.7363,-294 249.7363,-294 249.7363,-282 249.7363,-282 249.7363,-276 255.7363,-270 261.7363,-270 261.7363,-270 296.6177,-270 296.6177,-270 302.6177,-270 308.6177,-276 308.6177,-282 308.6177,-282 308.6177,-294 308.6177,-294 308.6177,-300 302.6177,-306 296.6177,-306"/>
<text text-anchor="middle" x="279.177" y="-285" font-family="Fira Mono" font-size="10.00" fill="#000000">app</text>
</g>
<!-- 0__metadata__labels&#45;&gt;0__metadata__labels__app -->
<g id="edge13" class="edge">
<title>0__metadata__labels-&gt;0__metadata__labels__app</title>
<path fill="none" stroke="#000000" stroke-width="2" d="M195.1641,-288C212.4267,-288 233.2379,-288 249.8283,-288"/>
</g>
<!-- 0__spec__selector__app__myapp -->
<g id="node13" class="node">
<title>0__spec__selector__app__myapp</title>
<path fill="none" stroke="#000000" stroke-width="2" d="M422.0443,-90C422.0443,-90 374.6077,-90 374.6077,-90 368.6077,-90 362.6077,-84 362.6077,-78 362.6077,-78 362.6077,-66 362.6077,-66 362.6077,-60 368.6077,-54 374.6077,-54 374.6077,-54 422.0443,-54 422.0443,-54 428.0443,-54 434.0443,-60 434.0443,-66 434.0443,-66 434.0443,-78 434.0443,-78 434.0443,-84 428.0443,-90 422.0443,-90"/>
<text text-anchor="middle" x="398.326" y="-69" font-family="Fira Mono" font-size="10.00" fill="#000000">myapp</text>
</g>
<!-- 0__spec__selector__app&#45;&gt;0__spec__selector__app__myapp -->
<g id="edge14" class="edge">
<title>0__spec__selector__app-&gt;0__spec__selector__app__myapp</title>
<path fill="none" stroke="#000000" stroke-width="2" d="M308.6296,-72C324.893,-72 345.2208,-72 362.4107,-72"/>
</g>
<!-- 0__spec__selector__tier__frontend -->
<g id="node15" class="node">
<title>0__spec__selector__tier__frontend</title>
<path fill="none" stroke="#000000" stroke-width="2" d="M425.2021,-36C425.2021,-36 371.4499,-36 371.4499,-36 365.4499,-36 359.4499,-30 359.4499,-24 359.4499,-24 359.4499,-12 359.4499,-12 359.4499,-6 365.4499,0 371.4499,0 371.4499,0 425.2021,0 425.2021,0 431.2021,0 437.2021,-6 437.2021,-12 437.2021,-12 437.2021,-24 437.2021,-24 437.2021,-30 431.2021,-36 425.2021,-36"/>
<text text-anchor="middle" x="398.326" y="-15" font-family="Fira Mono" font-size="10.00" fill="#000000">frontend</text>
</g>
<!-- 0__spec__selector__tier&#45;&gt;0__spec__selector__tier__frontend -->
<g id="edge15" class="edge">
<title>0__spec__selector__tier-&gt;0__spec__selector__tier__frontend</title>
<path fill="none" stroke="#000000" stroke-width="2" d="M308.0196,-18C323.447,-18 342.6606,-18 359.3946,-18"/>
</g>
<!-- 0__metadata__labels__app__myapp -->
<g id="node17" class="node">
<title>0__metadata__labels__app__myapp</title>
<path fill="none" stroke="#000000" stroke-width="2" d="M422.0443,-306C422.0443,-306 374.6077,-306 374.6077,-306 368.6077,-306 362.6077,-300 362.6077,-294 362.6077,-294 362.6077,-282 362.6077,-282 362.6077,-276 368.6077,-270 374.6077,-270 374.6077,-270 422.0443,-270 422.0443,-270 428.0443,-270 434.0443,-276 434.0443,-282 434.0443,-282 434.0443,-294 434.0443,-294 434.0443,-300 428.0443,-306 422.0443,-306"/>
<text text-anchor="middle" x="398.326" y="-285" font-family="Fira Mono" font-size="10.00" fill="#000000">myapp</text>
</g>
<!-- 0__metadata__labels__app&#45;&gt;0__metadata__labels__app__myapp -->
<g id="edge16" class="edge">
<title>0__metadata__labels__app-&gt;0__metadata__labels__app__myapp</title>
<path fill="none" stroke="#000000" stroke-width="2" d="M308.6296,-288C324.893,-288 345.2208,-288 362.4107,-288"/>
</g>
<!-- 0__spec__ports__port__80 -->
<g id="node19" class="node">
<title>0__spec__ports__port__80</title>
<path fill="none" stroke="#000000" stroke-width="2" d="M413.326,-252C413.326,-252 383.326,-252 383.326,-252 377.326,-252 371.326,-246 371.326,-240 371.326,-240 371.326,-228 371.326,-228 371.326,-222 377.326,-216 383.326,-216 383.326,-216 413.326,-216 413.326,-216 419.326,-216 425.326,-222 425.326,-228 425.326,-228 425.326,-240 425.326,-240 425.326,-246 419.326,-252 413.326,-252"/>
<text text-anchor="middle" x="398.326" y="-231" font-family="Fira Mono" font-size="10.00" fill="#000000">80</text>
</g>
<!-- 0__spec__ports__port&#45;&gt;0__spec__ports__port__80 -->
<g id="edge17" class="edge">
<title>0__spec__ports__port-&gt;0__spec__ports__port__80</title>
<path fill="none" stroke="#000000" stroke-width="2" d="M309.2433,-234C328.2706,-234 352.6705,-234 371.1215,-234"/>
</g>
<!-- 0__spec__ports__protocol__TCP -->
<g id="node21" class="node">
<title>0__spec__ports__protocol__TCP</title>
<path fill="none" stroke="#000000" stroke-width="2" d="M417.6639,-198C417.6639,-198 378.9881,-198 378.9881,-198 372.9881,-198 366.9881,-192 366.9881,-186 366.9881,-186 366.9881,-174 366.9881,-174 366.9881,-168 372.9881,-162 378.9881,-162 378.9881,-162 417.6639,-162 417.6639,-162 423.6639,-162 429.6639,-168 429.6639,-174 429.6639,-174 429.6639,-186 429.6639,-186 429.6639,-192 423.6639,-198 417.6639,-198"/>
<text text-anchor="middle" x="398.326" y="-177" font-family="Fira Mono" font-size="10.00" fill="#000000">TCP</text>
</g>
<!-- 0__spec__ports__protocol&#45;&gt;0__spec__ports__protocol__TCP -->
<g id="edge18" class="edge">
<title>0__spec__ports__protocol-&gt;0__spec__ports__protocol__TCP</title>
<path fill="none" stroke="#000000" stroke-width="2" d="M317.8613,-180C333.7617,-180 351.9354,-180 366.9833,-180"/>
</g>
<!-- 0__spec__ports__targetPort__9376 -->
<g id="node23" class="node">
<title>0__spec__ports__targetPort__9376</title>
<path fill="none" stroke="#000000" stroke-width="2" d="M418.326,-144C418.326,-144 378.326,-144 378.326,-144 372.326,-144 366.326,-138 366.326,-132 366.326,-132 366.326,-120 366.326,-120 366.326,-114 372.326,-108 378.326,-108 378.326,-108 418.326,-108 418.326,-108 424.326,-108 430.326,-114 430.326,-120 430.326,-120 430.326,-132 430.326,-132 430.326,-138 424.326,-144 418.326,-144"/>
<text text-anchor="middle" x="398.326" y="-123" font-family="Fira Mono" font-size="10.00" fill="#000000">9376</text>
</g>
<!-- 0__spec__ports__targetPort&#45;&gt;0__spec__ports__targetPort__9376 -->
<g id="edge19" class="edge">
<title>0__spec__ports__targetPort-&gt;0__spec__ports__targetPort__9376</title>
<path fill="none" stroke="#000000" stroke-width="2" d="M321.1845,-126C335.9244,-126 352.2399,-126 366.0556,-126"/>
</g>
</g>
</svg>