<?xml version="1.0" encoding="UTF-8" standalone="no"?>
<!DOCTYPE svg PUBLIC "-//W3C//DTD SVG 1.1//EN" "http://www.w3.org/Graphics/SVG/1.1/DTD/svg11.dtd">
<!-- Generated by graphviz version 2.40.1 (20161225.0304)
 -->
<!-- Title: %0 Pages: 1 -->
<svg width="828pt" height="530pt" viewBox="0.00 0.00 828.03 530.00" xmlns="http://www.w3.org/2000/svg" xmlns:xlink="http://www.w3.org/1999/xlink">
<g id="graph0" class="graph" transform="scale(1 1) rotate(0) translate(4 526)">
<title>%0</title>
<polygon fill="#ffffff" stroke="transparent" points="-4,4 -4,-526 824.03,-526 824.03,4 -4,4"/>
<!-- 0__spec -->
<g id="node1" class="node">
<title>0__spec</title>
<path fill="none" stroke="#000000" stroke-width="2" d="M62.7039,-252C62.7039,-252 25.1691,-252 25.1691,-252 19.1691,-252 13.1691,-246 13.1691,-240 13.1691,-240 13.1691,-228 13.1691,-228 13.1691,-222 19.1691,-216 25.1691,-216 25.1691,-216 62.7039,-216 62.7039,-216 68.7039,-216 74.7039,-222 74.7039,-228 74.7039,-228 74.7039,-240 74.7039,-240 74.7039,-246 68.7039,-252 62.7039,-252"/>
<text text-anchor="middle" x="43.9365" y="-231" font-family="Fira Mono" font-size="10.00" fill="#000000">spec</text>
</g>
<!-- 0__spec__replicas -->
<g id="node7" class="node">
<title>0__spec__replicas</title>
<path fill="none" stroke="#000000" stroke-width="2" d="M196.1831,-306C196.1831,-306 144.9969,-306 144.9969,-306 138.9969,-306 132.9969,-300 132.9969,-294 132.9969,-294 132.9969,-282 132.9969,-282 132.9969,-276 138.9969,-270 144.9969,-270 144.9969,-270 196.1831,-270 196.1831,-270 202.1831,-270 208.1831,-276 208.1831,-282 208.1831,-282 208.1831,-294 208.1831,-294 208.1831,-300 202.1831,-306 196.1831,-306"/>
<text text-anchor="middle" x="170.59" y="-285" font-family="Fira Mono" font-size="10.00" fill="#000000">replicas</text>
</g>
<!-- 0__spec&#45;&gt;0__spec__replicas -->
<g id="edge1" class="edge">
<title>0__spec-&gt;0__spec__replicas</title>
<path fill="none" stroke="#000000" stroke-width="2" d="M74.9194,-247.2099C92.349,-254.6412 114.247,-263.9776 132.693,-271.8422"/>
</g>
<!-- 0__spec__selector -->
<g id="node9" class="node">
<title>0__spec__selector</title>
<path fill="none" stroke="#000000" stroke-width="2" d="M196.1831,-252C196.1831,-252 144.9969,-252 144.9969,-252 138.9969,-252 132.9969,-246 132.9969,-240 132.9969,-240 132.9969,-228 132.9969,-228 132.9969,-222 138.9969,-216 144.9969,-216 144.9969,-216 196.1831,-216 196.1831,-216 202.1831,-216 208.1831,-222 208.1831,-228 208.1831,-228 208.1831,-240 208.1831,-240 208.1831,-246 202.1831,-252 196.1831,-252"/>
<text text-anchor="middle" x="170.59" y="-231" font-family="Fira Mono" font-size="10.00" fill="#000000">selector</text>
</g>
<!-- 0__spec&#45;&gt;0__spec__selector -->
<g id="edge2" class="edge">
<title>0__spec-&gt;0__spec__selector</title>
<path fill="none" stroke="#000000" stroke-width="2" d="M74.9194,-234C92.349,-234 114.247,-234 132.693,-234"/>
</g>
<!-- 0__spec__template -->
<g id="node10" class="node">
<title>0__spec__template</title>
<path fill="none" stroke="#000000" stroke-width="2" d="M198.0242,-198C198.0242,-198 143.1558,-198 143.1558,-198 137.1558,-198 131.1558,-192 131.1558,-186 131.1558,-186 131.1558,-174 131.1558,-174 131.1558,-168 137.1558,-162 143.1558,-162 143.1558,-162 198.0242,-162 198.0242,-162 204.0242,-162 210.0242,-168 210.0242,-174 210.0242,-174 210.0242,-186 210.0242,-186 210.0242,-192 204.0242,-198 198.0242,-198"/>
<text text-anchor="middle" x="170.59" y="-177" font-family="Fira Mono" font-size="10.00" fill="#000000">template</text>
</g>
<!-- 0__spec&#45;&gt;0__spec__template -->
<g id="edge3" class="edge">
<title>0__spec-&gt;0__spec__template</title>
<path fill="none" stroke="#000000" stroke-width="2" d="M74.9194,-220.7901C91.9096,-213.5462 113.1457,-204.4919 131.2915,-196.7553"/>
</g>
<!-- 0__metadata -->
<g id="node2" class="node">
<title>0__metadata</title>
<path fill="none" stroke="#000000" stroke-width="2" d="M72.0296,-387C72.0296,-387 15.8434,-387 15.8434,-387 9.8434,-387 3.8434,-381 3.8434,-375 3.8434,-375 3.8434,-363 3.8434,-363 3.8434,-357 9.8434,-351 15.8434,-351 15.8434,-351 72.0296,-351 72.0296,-351 78.0296,-351 84.0296,-357 84.0296,-363 84.0296,-363 84.0296,-375 84.0296,-375 84.0296,-381 78.0296,-387 72.0296,-387"/>
<text text-anchor="middle" x="43.9365" y="-366" font-family="Fira Mono" font-size="10.00" fill="#000000">metadata</text>
</g>
<!-- 0__metadata__name -->
<g id="node11" class="node">
<title>0__metadata__name</title>
<path fill="none" stroke="#000000" stroke-width="2" d="M191.2479,-414C191.2479,-414 149.9321,-414 149.9321,-414 143.9321,-414 137.9321,-408 137.9321,-402 137.9321,-402 137.9321,-390 137.9321,-390 137.9321,-384 143.9321,-378 149.9321,-378 149.9321,-378 191.2479,-378 191.2479,-378 197.2479,-378 203.2479,-384 203.2479,-390 203.2479,-390 203.2479,-402 203.2479,-402 203.2479,-408 197.2479,-414 191.2479,-414"/>
<text text-anchor="middle" x="170.59" y="-393" font-family="Fira Mono" font-size="10.00" fill="#000000">name</text>
</g>
<!-- 0__metadata&#45;&gt;0__metadata__name -->
<g id="edge4" class="edge">
<title>0__metadata-&gt;0__metadata__name</title>
<path fill="none" stroke="#000000" stroke-width="2" d="M84.0105,-377.543C101.2587,-381.22 121.1796,-385.4667 137.5613,-388.9589"/>
</g>
<!-- 0__metadata__labels -->
<g id="node13" class="node">
<title>0__metadata__labels</title>
<path fill="none" stroke="#000000" stroke-width="2" d="M192.4158,-360C192.4158,-360 148.7642,-360 148.7642,-360 142.7642,-360 136.7642,-354 136.7642,-348 136.7642,-348 136.7642,-336 136.7642,-336 136.7642,-330 142.7642,-324 148.7642,-324 148.7642,-324 192.4158,-324 192.4158,-324 198.4158,-324 204.4158,-330 204.4158,-336 204.4158,-336 204.4158,-348 204.4158,-348 204.4158,-354 198.4158,-360 192.4158,-360"/>
<text text-anchor="middle" x="170.59" y="-339" font-family="Fira Mono" font-size="10.00" fill="#000000">labels</text>
</g>
<!-- 0__metadata&#45;&gt;0__metadata__labels -->
<g id="edge5" class="edge">
<title>0__metadata-&gt;0__metadata__labels</title>
<path fill="none" stroke="#000000" stroke-width="2" d="M84.0105,-360.457C100.9688,-356.8418 120.5107,-352.6759 136.7324,-349.2178"/>
</g>
<!-- 0__kind -->
<g id="node3" class="node">
<title>0__kind</title>
<path fill="none" stroke="#000000" stroke-width="2" d="M62.7159,-468C62.7159,-468 25.1571,-468 25.1571,-468 19.1571,-468 13.1571,-462 13.1571,-456 13.1571,-456 13.1571,-444 13.1571,-444 13.1571,-438 19.1571,-432 25.1571,-432 25.1571,-432 62.7159,-432 62.7159,-432 68.7159,-432 74.7159,-438 74.7159,-444 74.7159,-444 74.7159,-456 74.7159,-456 74.7159,-462 68.7159,-468 62.7159,-468"/>
<text text-anchor="middle" x="43.9365" y="-447" font-family="Fira Mono" font-size="10.00" fill="#000000">kind</text>
</g>
<!-- 0__kind__Deployment -->
<g id="node4" class="node">
<title>0__kind__Deployment</title>
<path fill="none" stroke="#000000" stroke-width="2" d="M205.525,-468C205.525,-468 135.655,-468 135.655,-468 129.655,-468 123.655,-462 123.655,-456 123.655,-456 123.655,-444 123.655,-444 123.655,-438 129.655,-432 135.655,-432 135.655,-432 205.525,-432 205.525,-432 211.525,-432 217.525,-438 217.525,-444 217.525,-444 217.525,-456 217.525,-456 217.525,-462 211.525,-468 205.525,-468"/>
<text text-anchor="middle" x="170.59" y="-447" font-family="Fira Mono" font-size="10.00" fill="#000000">Deployment</text>
</g>
<!-- 0__kind&#45;&gt;0__kind__Deployment -->
<g id="edge6" class="edge">
<title>0__kind-&gt;0__kind__Deployment</title>
<path fill="none" stroke="#000000" stroke-width="2" d="M74.9194,-450C89.5661,-450 107.3683,-450 123.6258,-450"/>
</g>
<!-- 0__apiVersion -->
<g id="node5" class="node">
<title>0__apiVersion</title>
<path fill="none" stroke="#000000" stroke-width="2" d="M75.8096,-522C75.8096,-522 12.0634,-522 12.0634,-522 6.0634,-522 .0634,-516 .0634,-510 .0634,-510 .0634,-498 .0634,-498 .0634,-492 6.0634,-486 12.0634,-486 12.0634,-486 75.8096,-486 75.8096,-486 81.8096,-486 87.8096,-492 87.8096,-498 87.8096,-498 87.8096,-510 87.8096,-510 87.8096,-516 81.8096,-522 75.8096,-522"/>
<text text-anchor="middle" x="43.9365" y="-501" font-family="Fira Mono" font-size="10.00" fill="#000000">apiVersion</text>
</g>
<!-- 0__apiVersion__apps/v1 -->
<g id="node6" class="node">
<title>0__apiVersion__apps/v1</title>
<path fill="none" stroke="#000000" stroke-width="2" d="M196.1971,-522C196.1971,-522 144.9829,-522 144.9829,-522 138.9829,-522 132.9829,-516 132.9829,-510 132.9829,-510 132.9829,-498 132.9829,-498 132.9829,-492 138.9829,-486 144.9829,-486 144.9829,-486 196.1971,-486 196.1971,-486 202.1971,-486 208.1971,-492 208.1971,-498 208.1971,-498 208.1971,-510 208.1971,-510 208.1971,-516 202.1971,-522 196.1971,-522"/>
<text text-anchor="middle" x="170.59" y="-501" font-family="Fira Mono" font-size="10.00" fill="#000000">apps/v1</text>
</g>
<!-- 0__apiVersion&#45;&gt;0__apiVersion__apps/v1 -->
<g id="edge7" class="edge">
<title>0__apiVersion-&gt;0__apiVersion__apps/v1</title>
<path fill="none" stroke="#000000" stroke-width="2" d="M87.8783,-504C102.4534,-504 118.5446,-504 132.63,-504"/>
</g>
<!-- 0__spec__replicas__3 -->
<g id="node8" class="node">
<title>0__spec__replicas__3</title>
<path fill="none" stroke="#000000" stroke-width="2" d="M326.9685,-306C326.9685,-306 296.9685,-306 296.9685,-306 290.9685,-306 284.9685,-300 284.9685,-294 284.9685,-294 284.9685,-282 284.9685,-282 284.9685,-276 290.9685,-270 296.9685,-270 296.9685,-270 326.9685,-270 326.9685,-270 332.9685,-270 338.9685,-276 338.9685,-282 338.9685,-282 338.9685,-294 338.9685,-294 338.9685,-300 332.9685,-306 326.9685,-306"/>
<text text-anchor="middle" x="311.9685" y="-285" font-family="Fira Mono" font-size="10.00" fill="#000000">3</text>
</g>
<!-- 0__spec__replicas&#45;&gt;0__spec__replicas__3 -->
<g id="edge8" class="edge">
<title>0__spec__replicas-&gt;0__spec__replicas__3</title>
<path fill="none" stroke="#000000" stroke-width="2" d="M208.4768,-288C232.524,-288 263.0785,-288 284.7381,-288"/>
</g>
<!-- 0__spec__selector__matchLabels -->
<g id="node14" class="node">
<title>0__spec__selector__matchLabels</title>
<path fill="none" stroke="#000000" stroke-width="2" d="M347.5595,-252C347.5595,-252 276.3775,-252 276.3775,-252 270.3775,-252 264.3775,-246 264.3775,-240 264.3775,-240 264.3775,-228 264.3775,-228 264.3775,-222 270.3775,-216 276.3775,-216 276.3775,-216 347.5595,-216 347.5595,-216 353.5595,-216 359.5595,-222 359.5595,-228 359.5595,-228 359.5595,-240 359.5595,-240 359.5595,-246 353.5595,-252 347.5595,-252"/>
<text text-anchor="middle" x="311.9685" y="-231" font-family="Fira Mono" font-size="10.00" fill="#000000">matchLabels</text>
</g>
<!-- 0__spec__selector&#45;&gt;0__spec__selector__matchLabels -->
<g id="edge9" class="edge">
<title>0__spec__selector-&gt;0__spec__selector__matchLabels</title>
<path fill="none" stroke="#000000" stroke-width="2" d="M208.4768,-234C225.6534,-234 246.15,-234 264.3536,-234"/>
</g>
<!-- 0__spec__template__metadata -->
<g id="node15" class="node">
<title>0__spec__template__metadata</title>
<path fill="none" stroke="#000000" stroke-width="2" d="M340.0616,-198C340.0616,-198 283.8754,-198 283.8754,-198 277.8754,-198 271.8754,-192 271.8754,-186 271.8754,-186 271.8754,-174 271.8754,-174 271.8754,-168 277.8754,-162 283.8754,-162 283.8754,-162 340.0616,-162 340.0616,-162 346.0616,-162 352.0616,-168 352.0616,-174 352.0616,-174 352.0616,-186 352.0616,-186 352.0616,-192 346.0616,-198 340.0616,-198"/>
<text text-anchor="middle" x="311.9685" y="-177" font-family="Fira Mono" font-size="10.00" fill="#000000">metadata</text>
</g>
<!-- 0__spec__template&#45;&gt;0__spec__template__metadata -->
<g id="edge10" class="edge">
<title>0__spec__template-&gt;0__spec__template__metadata</title>
<path fill="none" stroke="#000000" stroke-width="2" d="M209.9718,-180C229.2541,-180 252.4311,-180 271.8156,-180"/>
</g>
<!-- 0__spec__template__spec -->
<g id="node16" class="node">
<title>0__spec__template__spec</title>
<path fill="none" stroke="#000000" stroke-width="2" d="M330.7359,-117C330.7359,-117 293.2011,-117 293.2011,-117 287.2011,-117 281.2011,-111 281.2011,-105 281.2011,-105 281.2011,-93 281.2011,-93 281.2011,-87 287.2011,-81 293.2011,-81 293.2011,-81 330.7359,-81 330.7359,-81 336.7359,-81 342.7359,-87 342.7359,-93 342.7359,-93 342.7359,-105 342.7359,-105 342.7359,-111 336.7359,-117 330.7359,-117"/>
<text text-anchor="middle" x="311.9685" y="-96" font-family="Fira Mono" font-size="10.00" fill="#000000">spec</text>
</g>
<!-- 0__spec__template&#45;&gt;0__spec__template__spec -->
<g id="edge11" class="edge">
<title>0__spec__template-&gt;0__spec__template__spec</title>
<path fill="none" stroke="#000000" stroke-width="2" d="M202.3181,-161.822C225.7648,-148.3887 257.5281,-130.1906 280.833,-116.8384"/>
</g>
<!-- 0__metadata__name__nginx&#45;deployment -->
<g id="node12" class="node">
<title>0__metadata__name__nginx-deployment</title>
<path fill="none" stroke="#000000" stroke-width="2" d="M358.7919,-414C358.7919,-414 265.1451,-414 265.1451,-414 259.1451,-414 253.1451,-408 253.1451,-402 253.1451,-402 253.1451,-390 253.1451,-390 253.1451,-384 259.1451,-378 265.1451,-378 265.1451,-378 358.7919,-378 358.7919,-378 364.7919,-378 370.7919,-384 370.7919,-390 370.7919,-390 370.7919,-402 370.7919,-402 370.7919,-408 364.7919,-414 358.7919,-414"/>
<text text-anchor="middle" x="311.9685" y="-393" font-family="Fira Mono" font-size="10.00" fill="#000000">nginx-deployment</text>
</g>
<!-- 0__metadata__name&#45;&gt;0__metadata__name__nginx&#45;deployment -->
<g id="edge12" class="edge">
<title>0__metadata__name-&gt;0__metadata__name__nginx-deployment</title>
<path fill="none" stroke="#000000" stroke-width="2" d="M203.3804,-396C218.2264,-396 236.2389,-396 253.2906,-396"/>
</g>
<!-- 0__metadata__labels__app -->
<g id="node17" class="node">
<title>0__metadata__labels__app</title>
<path fill="none" stroke="#000000" stroke-width="2" d="M329.4092,-360C329.4092,-360 294.5278,-360 294.5278,-360 288.5278,-360 282.5278,-354 282.5278,-348 282.5278,-348 282.5278,-336 282.5278,-336 282.5278,-330 288.5278,-324 294.5278,-324 294.5278,-324 329.4092,-324 329.4092,-324 335.4092,-324 341.4092,-330 341.4092,-336 341.4092,-336 341.4092,-348 341.4092,-348 341.4092,-354 335.4092,-360 329.4092,-360"/>
<text text-anchor="middle" x="311.9685" y="-339" font-family="Fira Mono" font-size="10.00" fill="#000000">app</text>
</g>
<!-- 0__metadata__labels&#45;&gt;0__metadata__labels__app -->
<g id="edge13" class="edge">
<title>0__metadata__labels-&gt;0__metadata__labels__app</title>
<path fill="none" stroke="#000000" stroke-width="2" d="M204.4537,-342C228.3073,-342 259.9228,-342 282.6882,-342"/>
</g>
<!-- 0__spec__selector__matchLabels__app -->
<g id="node19" class="node">
<title>0__spec__selector__matchLabels__app</title>
<path fill="none" stroke="#000000" stroke-width="2" d="M466.6172,-252C466.6172,-252 431.7358,-252 431.7358,-252 425.7358,-252 419.7358,-246 419.7358,-240 419.7358,-240 419.7358,-228 419.7358,-228 419.7358,-222 425.7358,-216 431.7358,-216 431.7358,-216 466.6172,-216 466.6172,-216 472.6172,-216 478.6172,-222 478.6172,-228 478.6172,-228 478.6172,-240 478.6172,-240 478.6172,-246 472.6172,-252 466.6172,-252"/>
<text text-anchor="middle" x="449.1765" y="-231" font-family="Fira Mono" font-size="10.00" fill="#000000">app</text>
</g>
<!-- 0__spec__selector__matchLabels&#45;&gt;0__spec__selector__matchLabels__app -->
<g id="edge14" class="edge">
<title>0__spec__selector__matchLabels-&gt;0__spec__selector__matchLabels__app</title>
<path fill="none" stroke="#000000" stroke-width="2" d="M359.5721,-234C379.5414,-234 402.1379,-234 419.6432,-234"/>
</g>
<!-- 0__spec__template__metadata__labels -->
<g id="node21" class="node">
<title>0__spec__template__metadata__labels</title>
<path fill="none" stroke="#000000" stroke-width="2" d="M471.0023,-198C471.0023,-198 427.3507,-198 427.3507,-198 421.3507,-198 415.3507,-192 415.3507,-186 415.3507,-186 415.3507,-174 415.3507,-174 415.3507,-168 421.3507,-162 427.3507,-162 427.3507,-162 471.0023,-162 471.0023,-162 477.0023,-162 483.0023,-168 483.0023,-174 483.0023,-174 483.0023,-186 483.0023,-186 483.0023,-192 477.0023,-198 471.0023,-198"/>
<text text-anchor="middle" x="449.1765" y="-177" font-family="Fira Mono" font-size="10.00" fill="#000000">labels</text>
</g>
<!-- 0__spec__template__metadata&#45;&gt;0__spec__template__metadata__labels -->
<g id="edge15" class="edge">
<title>0__spec__template__metadata-&gt;0__spec__template__metadata__labels</title>
<path fill="none" stroke="#000000" stroke-width="2" d="M352.0236,-180C372.1148,-180 396.182,-180 415.3356,-180"/>
</g>
<!-- 0__spec__template__spec__containers -->
<g id="node22" class="node">
<title>0__spec__template__spec__containers</title>
<path fill="none" stroke="#000000" stroke-width="2" d="M479.7696,-117C479.7696,-117 418.5834,-117 418.5834,-117 412.5834,-117 406.5834,-111 406.5834,-105 406.5834,-105 406.5834,-93 406.5834,-93 406.5834,-87 412.5834,-81 418.5834,-81 418.5834,-81 479.7696,-81 479.7696,-81 485.7696,-81 491.7696,-87 491.7696,-93 491.7696,-93 491.7696,-105 491.7696,-105 491.7696,-111 485.7696,-117 479.7696,-117"/>
<text text-anchor="middle" x="449.1765" y="-96" font-family="Fira Mono" font-size="10.00" fill="#000000">containers</text>
</g>
<!-- 0__spec__template__spec&#45;&gt;0__spec__template__spec__containers -->
<g id="edge16" class="edge">
<title>0__spec__template__spec-&gt;0__spec__template__spec__containers</title>
<path fill="none" stroke="#000000" stroke-width="2" d="M342.7607,-99C361.5652,-99 385.8817,-99 406.5225,-99"/>
</g>
<!-- 0__metadata__labels__app__nginx -->
<g id="node18" class="node">
<title>0__metadata__labels__app__nginx</title>
<path fill="none" stroke="#000000" stroke-width="2" d="M470.4559,-360C470.4559,-360 427.8971,-360 427.8971,-360 421.8971,-360 415.8971,-354 415.8971,-348 415.8971,-348 415.8971,-336 415.8971,-336 415.8971,-330 421.8971,-324 427.8971,-324 427.8971,-324 470.4559,-324 470.4559,-324 476.4559,-324 482.4559,-330 482.4559,-336 482.4559,-336 482.4559,-348 482.4559,-348 482.4559,-354 476.4559,-360 470.4559,-360"/>
<text text-anchor="middle" x="449.1765" y="-339" font-family="Fira Mono" font-size="10.00" fill="#000000">nginx</text>
</g>
<!-- 0__metadata__labels__app&#45;&gt;0__metadata__labels__app__nginx -->
<g id="edge17" class="edge">
<title>0__metadata__labels__app-&gt;0__metadata__labels__app__nginx</title>
<path fill="none" stroke="#000000" stroke-width="2" d="M341.4031,-342C363.136,-342 392.7558,-342 415.4442,-342"/>
</g>
<!-- 0__spec__selector__matchLabels__app__nginx -->
<g id="node20" class="node">
<title>0__spec__selector__matchLabels__app__nginx</title>
<path fill="none" stroke="#000000" stroke-width="2" d="M583.2204,-252C583.2204,-252 540.6616,-252 540.6616,-252 534.6616,-252 528.6616,-246 528.6616,-240 528.6616,-240 528.6616,-228 528.6616,-228 528.6616,-222 534.6616,-216 540.6616,-216 540.6616,-216 583.2204,-216 583.2204,-216 589.2204,-216 595.2204,-222 595.2204,-228 595.2204,-228 595.2204,-240 595.2204,-240 595.2204,-246 589.2204,-252 583.2204,-252"/>
<text text-anchor="middle" x="561.941" y="-231" font-family="Fira Mono" font-size="10.00" fill="#000000">nginx</text>
</g>
<!-- 0__spec__selector__matchLabels__app&#45;&gt;0__spec__selector__matchLabels__app__nginx -->
<g id="edge18" class="edge">
<title>0__spec__selector__matchLabels__app-&gt;0__spec__selector__matchLabels__app__nginx</title>
<path fill="none" stroke="#000000" stroke-width="2" d="M478.5097,-234C493.7798,-234 512.519,-234 528.3668,-234"/>
</g>
<!-- 0__spec__template__metadata__labels__app -->
<g id="node23" class="node">
<title>0__spec__template__metadata__labels__app</title>
<path fill="none" stroke="#000000" stroke-width="2" d="M579.3817,-198C579.3817,-198 544.5003,-198 544.5003,-198 538.5003,-198 532.5003,-192 532.5003,-186 532.5003,-186 532.5003,-174 532.5003,-174 532.5003,-168 538.5003,-162 544.5003,-162 544.5003,-162 579.3817,-162 579.3817,-162 585.3817,-162 591.3817,-168 591.3817,-174 591.3817,-174 591.3817,-186 591.3817,-186 591.3817,-192 585.3817,-198 579.3817,-198"/>
<text text-anchor="middle" x="561.941" y="-177" font-family="Fira Mono" font-size="10.00" fill="#000000">app</text>
</g>
<!-- 0__spec__template__metadata__labels&#45;&gt;0__spec__template__metadata__labels__app -->
<g id="edge19" class="edge">
<title>0__spec__template__metadata__labels-&gt;0__spec__template__metadata__labels__app</title>
<path fill="none" stroke="#000000" stroke-width="2" d="M483.0096,-180C498.8388,-180 517.5071,-180 532.7134,-180"/>
</g>
<!-- 0__spec__template__spec__containers__name -->
<g id="node25" class="node">
<title>0__spec__template__spec__containers__name</title>
<path fill="none" stroke="#000000" stroke-width="2" d="M582.5989,-144C582.5989,-144 541.2831,-144 541.2831,-144 535.2831,-144 529.2831,-138 529.2831,-132 529.2831,-132 529.2831,-120 529.2831,-120 529.2831,-114 535.2831,-108 541.2831,-108 541.2831,-108 582.5989,-108 582.5989,-108 588.5989,-108 594.5989,-114 594.5989,-120 594.5989,-120 594.5989,-132 594.5989,-132 594.5989,-138 588.5989,-144 582.5989,-144"/>
<text text-anchor="middle" x="561.941" y="-123" font-family="Fira Mono" font-size="10.00" fill="#000000">name</text>
</g>
<!-- 0__spec__template__spec__containers&#45;&gt;0__spec__template__spec__containers__name -->
<g id="edge20" class="edge">
<title>0__spec__template__spec__containers-&gt;0__spec__template__spec__containers__name</title>
<path fill="none" stroke="#000000" stroke-width="2" d="M491.8079,-109.2075C504.157,-112.1644 517.4433,-115.3456 529.0952,-118.1355"/>
</g>
<!-- 0__spec__template__spec__containers__image -->
<g id="node27" class="node">
<title>0__spec__template__spec__containers__image</title>
<path fill="none" stroke="#000000" stroke-width="2" d="M584.3784,-90C584.3784,-90 539.5036,-90 539.5036,-90 533.5036,-90 527.5036,-84 527.5036,-78 527.5036,-78 527.5036,-66 527.5036,-66 527.5036,-60 533.5036,-54 539.5036,-54 539.5036,-54 584.3784,-54 584.3784,-54 590.3784,-54 596.3784,-60 596.3784,-66 596.3784,-66 596.3784,-78 596.3784,-78 596.3784,-84 590.3784,-90 584.3784,-90"/>
<text text-anchor="middle" x="561.941" y="-69" font-family="Fira Mono" font-size="10.00" fill="#000000">image</text>
</g>
<!-- 0__spec__template__spec__containers&#45;&gt;0__spec__template__spec__containers__image -->
<g id="edge21" class="edge">
<title>0__spec__template__spec__containers-&gt;0__spec__template__spec__containers__image</title>
<path fill="none" stroke="#000000" stroke-width="2" d="M491.8079,-88.7925C503.658,-85.9551 516.3712,-82.9111 527.675,-80.2045"/>
</g>
<!-- 0__spec__template__spec__containers__ports -->
<g id="node29" class="node">
<title>0__spec__template__spec__containers__ports</title>
<path fill="none" stroke="#000000" stroke-width="2" d="M581.938,-36C581.938,-36 541.944,-36 541.944,-36 535.944,-36 529.944,-30 529.944,-24 529.944,-24 529.944,-12 529.944,-12 529.944,-6 535.944,0 541.944,0 541.944,0 581.938,0 581.938,0 587.938,0 593.938,-6 593.938,-12 593.938,-12 593.938,-24 593.938,-24 593.938,-30 587.938,-36 581.938,-36"/>
<text text-anchor="middle" x="561.941" y="-15" font-family="Fira Mono" font-size="10.00" fill="#000000">ports</text>
</g>
<!-- 0__spec__template__spec__containers&#45;&gt;0__spec__template__spec__containers__ports -->
<g id="edge22" class="edge">
<title>0__spec__template__spec__containers-&gt;0__spec__template__spec__containers__ports</title>
<path fill="none" stroke="#000000" stroke-width="2" d="M474.4831,-80.822C493.0545,-67.482 518.1674,-49.4431 536.7189,-36.1173"/>
</g>
<!-- 0__spec__template__metadata__labels__app__nginx -->
<g id="node24" class="node">
<title>0__spec__template__metadata__labels__app__nginx</title>
<path fill="none" stroke="#000000" stroke-width="2" d="M702.3739,-198C702.3739,-198 659.8151,-198 659.8151,-198 653.8151,-198 647.8151,-192 647.8151,-186 647.8151,-186 647.8151,-174 647.8151,-174 647.8151,-168 653.8151,-162 659.8151,-162 659.8151,-162 702.3739,-162 702.3739,-162 708.3739,-162 714.3739,-168 714.3739,-174 714.3739,-174 714.3739,-186 714.3739,-186 714.3739,-192 708.3739,-198 702.3739,-198"/>
<text text-anchor="middle" x="681.0945" y="-177" font-family="Fira Mono" font-size="10.00" fill="#000000">nginx</text>
</g>
<!-- 0__spec__template__metadata__labels__app&#45;&gt;0__spec__template__metadata__labels__app__nginx -->
<g id="edge23" class="edge">
<title>0__spec__template__metadata__labels__app-&gt;0__spec__template__metadata__labels__app__nginx</title>
<path fill="none" stroke="#000000" stroke-width="2" d="M591.3947,-180C608.4857,-180 630.0651,-180 647.7749,-180"/>
</g>
<!-- 0__spec__template__spec__containers__name__nginx -->
<g id="node26" class="node">
<title>0__spec__template__spec__containers__name__nginx</title>
<path fill="none" stroke="#000000" stroke-width="2" d="M702.3739,-144C702.3739,-144 659.8151,-144 659.8151,-144 653.8151,-144 647.8151,-138 647.8151,-132 647.8151,-132 647.8151,-120 647.8151,-120 647.8151,-114 653.8151,-108 659.8151,-108 659.8151,-108 702.3739,-108 702.3739,-108 708.3739,-108 714.3739,-114 714.3739,-120 714.3739,-120 714.3739,-132 714.3739,-132 714.3739,-138 708.3739,-144 702.3739,-144"/>
<text text-anchor="middle" x="681.0945" y="-123" font-family="Fira Mono" font-size="10.00" fill="#000000">nginx</text>
</g>
<!-- 0__spec__template__spec__containers__name&#45;&gt;0__spec__template__spec__containers__name__nginx -->
<g id="edge24" class="edge">
<title>0__spec__template__spec__containers__name-&gt;0__spec__template__spec__containers__name__nginx</title>
<path fill="none" stroke="#000000" stroke-width="2" d="M594.8156,-126C611.2101,-126 631.0059,-126 647.4984,-126"/>
</g>
<!-- 0__spec__template__spec__containers__image__nginx&#45;&#45;&#45;1.14.2 -->
<g id="node28" class="node">
<title>0__spec__template__spec__containers__image__nginx---1.14.2</title>
<path fill="none" stroke="#000000" stroke-width="2" d="M716.1535,-90C716.1535,-90 646.0355,-90 646.0355,-90 640.0355,-90 634.0355,-84 634.0355,-78 634.0355,-78 634.0355,-66 634.0355,-66 634.0355,-60 640.0355,-54 646.0355,-54 646.0355,-54 716.1535,-54 716.1535,-54 722.1535,-54 728.1535,-60 728.1535,-66 728.1535,-66 728.1535,-78 728.1535,-78 728.1535,-84 722.1535,-90 716.1535,-90"/>
<text text-anchor="middle" x="681.0945" y="-69" font-family="Fira Mono" font-size="10.00" fill="#000000">nginx:1.14.2</text>
</g>
<!-- 0__spec__template__spec__containers__image&#45;&gt;0__spec__template__spec__containers__image__nginx&#45;&#45;&#45;1.14.2 -->
<g id="edge25" class="edge">
<title>0__spec__template__spec__containers__image-&gt;0__spec__template__spec__containers__image__nginx---1.14.2</title>
<path fill="none" stroke="#000000" stroke-width="2" d="M596.4051,-72C608.0895,-72 621.3513,-72 633.8548,-72"/>
</g>
<!-- 0__spec__template__spec__containers__ports__containerPort -->
<g id="node30" class="node">
<title>0__spec__template__spec__containers__ports__containerPort</title>
<path fill="none" stroke="#000000" stroke-width="2" d="M717.9656,-36C717.9656,-36 644.2234,-36 644.2234,-36 638.2234,-36 632.2234,-30 632.2234,-24 632.2234,-24 632.2234,-12 632.2234,-12 632.2234,-6 638.2234,0 644.2234,0 644.2234,0 717.9656,0 717.9656,0 723.9656,0 729.9656,-6 729.9656,-12 729.9656,-12 729.9656,-24 729.9656,-24 729.9656,-30 723.9656,-36 717.9656,-36"/>
<text text-anchor="middle" x="681.0945" y="-15" font-family="Fira Mono" font-size="10.00" fill="#000000">containerPort</text>
</g>
<!-- 0__spec__template__spec__containers__ports&#45;&gt;0__spec__template__spec__containers__ports__containerPort -->
<g id="edge26" class="edge">
<title>0__spec__template__spec__containers__ports-&gt;0__spec__template__spec__containers__ports__containerPort</title>
<path fill="none" stroke="#000000" stroke-width="2" d="M594.1857,-18C605.7645,-18 619.1018,-18 631.797,-18"/>
</g>
<!-- 0__spec__template__spec__containers__ports__containerPort__80 -->
<g id="node31" class="node">
<title>0__spec__template__spec__containers__ports__containerPort__80</title>
<path fill="none" stroke="#000000" stroke-width="2" d="M808.03,-36C808.03,-36 778.03,-36 778.03,-36 772.03,-36 766.03,-30 766.03,-24 766.03,-24 766.03,-12 766.03,-12 766.03,-6 772.03,0 778.03,0 778.03,0 808.03,0 808.03,0 814.03,0 820.03,-6 820.03,-12 820.03,-12 820.03,-24 820.03,-24 820.03,-30 814.03,-36 808.03,-36"/>
<text text-anchor="middle" x="793.03" y="-15" font-family="Fira Mono" font-size="10.00" fill="#000000">80</text>
</g>
<!-- 0__spec__template__spec__containers__ports__containerPort&#45;&gt;0__spec__template__spec__containers__ports__containerPort__80 -->
<g id="edge27" class="edge">
<title>0__spec__template__spec__containers__ports__containerPort-&gt;0__spec__template__spec__containers__ports__containerPort__80</title>
<path fill="none" stroke="#000000" stroke-width="2" d="M730.191,-18C742.4093,-18 755.0711,-18 765.7996,-18"/>
</g>
</g>
</svg>