<?xml version="1.0" encoding="UTF-8" standalone="no"?>
<!DOCTYPE svg PUBLIC "-//W3C//DTD SVG 1.1//EN" "http://www.w3.org/Graphics/SVG/1.1/DTD/svg11.dtd">
<!-- Generated by graphviz version 2.40.1 (20161225.0304)
 -->
<!-- Title: %0 Pages: 1 -->
<svg width="828pt" height="448pt" viewBox="0.00 0.00 828.03 448.00" xmlns="http://www.w3.org/2000/svg" xmlns:xlink="http://www.w3.org/1999/xlink">
<g id="graph0" class="graph" transform="scale(1 1) rotate(0) translate(4 444)">
<title>%0</title>
<polygon fill="#ffffff" stroke="transparent" points="-4,4 -4,-444 824.03,-444 824.03,4 -4,4"/>
<!-- apiVersion -->
<g id="node1" class="node">
<title>apiVersion</title>
<path fill="none" stroke="#000000" stroke-width="2" d="M75.8096,-36C75.8096,-36 12.0634,-36 12.0634,-36 6.0634,-36 .0634,-30 .0634,-24 .0634,-24 .0634,-12 .0634,-12 .0634,-6 6.0634,0 12.0634,0 12.0634,0 75.8096,0 75.8096,0 81.8096,0 87.8096,-6 87.8096,-12 87.8096,-12 87.8096,-24 87.8096,-24 87.8096,-30 81.8096,-36 75.8096,-36"/>
<text text-anchor="middle" x="43.9365" y="-15" font-family="Fira Mono" font-size="10.00" fill="#000000">apiVersion</text>
</g>
<!-- apiVersion__apps/v1 -->
<g id="node2" class="node">
<title>apiVersion__apps/v1</title>
<path fill="none" stroke="#000000" stroke-width="2" d="M196.1971,-36C196.1971,-36 144.9829,-36 144.9829,-36 138.9829,-36 132.9829,-30 132.9829,-24 132.9829,-24 132.9829,-12 132.9829,-12 132.9829,-6 138.9829,0 144.9829,0 144.9829,0 196.1971,0 196.1971,0 202.1971,0 208.1971,-6 208.1971,-12 208.1971,-12 208.1971,-24 208.1971,-24 208.1971,-30 202.1971,-36 196.1971,-36"/>
<text text-anchor="middle" x="170.59" y="-15" font-family="Fira Mono" font-size="10.00" fill="#000000">apps/v1</text>
</g>
<!-- apiVersion&#45;&gt;apiVersion__apps/v1 -->
<g id="edge1" class="edge">
<title>apiVersion-&gt;apiVersion__apps/v1</title>
<path fill="none" stroke="#000000" stroke-width="2" d="M87.8783,-18C102.4534,-18 118.5446,-18 132.63,-18"/>
</g>
<!-- kind -->
<g id="node3" class="node">
<title>kind</title>
<path fill="none" stroke="#000000" stroke-width="2" d="M62.7159,-90C62.7159,-90 25.1571,-90 25.1571,-90 19.1571,-90 13.1571,-84 13.1571,-78 13.1571,-78 13.1571,-66 13.1571,-66 13.1571,-60 19.1571,-54 25.1571,-54 25.1571,-54 62.7159,-54 62.7159,-54 68.7159,-54 74.7159,-60 74.7159,-66 74.7159,-66 74.7159,-78 74.7159,-78 74.7159,-84 68.7159,-90 62.7159,-90"/>
<text text-anchor="middle" x="43.9365" y="-69" font-family="Fira Mono" font-size="10.00" fill="#000000">kind</text>
</g>
<!-- kind__Deployment -->
<g id="node4" class="node">
<title>kind__Deployment</title>
<path fill="none" stroke="#000000" stroke-width="2" d="M205.525,-90C205.525,-90 135.655,-90 135.655,-90 129.655,-90 123.655,-84 123.655,-78 123.655,-78 123.655,-66 123.655,-66 123.655,-60 129.655,-54 135.655,-54 135.655,-54 205.525,-54 205.525,-54 211.525,-54 217.525,-60 217.525,-66 217.525,-66 217.525,-78 217.525,-78 217.525,-84 211.525,-90 205.525,-90"/>
<text text-anchor="middle" x="170.59" y="-69" font-family="Fira Mono" font-size="10.00" fill="#000000">Deployment</text>
</g>
<!-- kind&#45;&gt;kind__Deployment -->
<g id="edge2" class="edge">
<title>kind-&gt;kind__Deployment</title>
<path fill="none" stroke="#000000" stroke-width="2" d="M74.9194,-72C89.5661,-72 107.3683,-72 123.6258,-72"/>
</g>
<!-- metadata -->
<g id="node5" class="node">
<title>metadata</title>
<path fill="none" stroke="#000000" stroke-width="2" d="M72.0296,-171C72.0296,-171 15.8434,-171 15.8434,-171 9.8434,-171 3.8434,-165 3.8434,-159 3.8434,-159 3.8434,-147 3.8434,-147 3.8434,-141 9.8434,-135 15.8434,-135 15.8434,-135 72.0296,-135 72.0296,-135 78.0296,-135 84.0296,-141 84.0296,-147 84.0296,-147 84.0296,-159 84.0296,-159 84.0296,-165 78.0296,-171 72.0296,-171"/>
<text text-anchor="middle" x="43.9365" y="-150" font-family="Fira Mono" font-size="10.00" fill="#000000">metadata</text>
</g>
<!-- metadata__name -->
<g id="node7" class="node">
<title>metadata__name</title>
<path fill="none" stroke="#000000" stroke-width="2" d="M191.2479,-211C191.2479,-211 149.9321,-211 149.9321,-211 143.9321,-211 137.9321,-205 137.9321,-199 137.9321,-199 137.9321,-187 137.9321,-187 137.9321,-181 143.9321,-175 149.9321,-175 149.9321,-175 191.2479,-175 191.2479,-175 197.2479,-175 203.2479,-181 203.2479,-187 203.2479,-187 203.2479,-199 203.2479,-199 203.2479,-205 197.2479,-211 191.2479,-211"/>
<text text-anchor="middle" x="170.59" y="-190" font-family="Fira Mono" font-size="10.00" fill="#000000">name</text>
</g>
<!-- metadata&#45;&gt;metadata__name -->
<g id="edge3" class="edge">
<title>metadata-&gt;metadata__name</title>
<path fill="none" stroke="#000000" stroke-width="2" d="M84.0105,-165.6563C101.2587,-171.1036 121.1796,-177.3951 137.5613,-182.5688"/>
</g>
<!-- metadata__labels -->
<g id="node9" class="node">
<title>metadata__labels</title>
<path fill="none" stroke="#000000" stroke-width="2" d="M192.4158,-157C192.4158,-157 148.7642,-157 148.7642,-157 142.7642,-157 136.7642,-151 136.7642,-145 136.7642,-145 136.7642,-133 136.7642,-133 136.7642,-127 142.7642,-121 148.7642,-121 148.7642,-121 192.4158,-121 192.4158,-121 198.4158,-121 204.4158,-127 204.4158,-133 204.4158,-133 204.4158,-145 204.4158,-145 204.4158,-151 198.4158,-157 192.4158,-157"/>
<text text-anchor="middle" x="170.59" y="-136" font-family="Fira Mono" font-size="10.00" fill="#000000">labels</text>
</g>
<!-- metadata&#45;&gt;metadata__labels -->
<g id="edge4" class="edge">
<title>metadata-&gt;metadata__labels</title>
<path fill="none" stroke="#000000" stroke-width="2" d="M84.0105,-148.5703C100.9688,-146.6958 120.5107,-144.5357 136.7324,-142.7425"/>
</g>
<!-- spec -->
<g id="node6" class="node">
<title>spec</title>
<path fill="none" stroke="#000000" stroke-width="2" d="M62.7039,-386C62.7039,-386 25.1691,-386 25.1691,-386 19.1691,-386 13.1691,-380 13.1691,-374 13.1691,-374 13.1691,-362 13.1691,-362 13.1691,-356 19.1691,-350 25.1691,-350 25.1691,-350 62.7039,-350 62.7039,-350 68.7039,-350 74.7039,-356 74.7039,-362 74.7039,-362 74.7039,-374 74.7039,-374 74.7039,-380 68.7039,-386 62.7039,-386"/>
<text text-anchor="middle" x="43.9365" y="-365" font-family="Fira Mono" font-size="10.00" fill="#000000">spec</text>
</g>
<!-- spec__replicas -->
<g id="node10" class="node">
<title>spec__replicas</title>
<path fill="none" stroke="#000000" stroke-width="2" d="M196.1831,-440C196.1831,-440 144.9969,-440 144.9969,-440 138.9969,-440 132.9969,-434 132.9969,-428 132.9969,-428 132.9969,-416 132.9969,-416 132.9969,-410 138.9969,-404 144.9969,-404 144.9969,-404 196.1831,-404 196.1831,-404 202.1831,-404 208.1831,-410 208.1831,-416 208.1831,-416 208.1831,-428 208.1831,-428 208.1831,-434 202.1831,-440 196.1831,-440"/>
<text text-anchor="middle" x="170.59" y="-419" font-family="Fira Mono" font-size="10.00" fill="#000000">replicas</text>
</g>
<!-- spec&#45;&gt;spec__replicas -->
<g id="edge5" class="edge">
<title>spec-&gt;spec__replicas</title>
<path fill="none" stroke="#000000" stroke-width="2" d="M74.9194,-381.2099C92.349,-388.6412 114.247,-397.9776 132.693,-405.8422"/>
</g>
<!-- spec__selector -->
<g id="node12" class="node">
<title>spec__selector</title>
<path fill="none" stroke="#000000" stroke-width="2" d="M196.1831,-386C196.1831,-386 144.9969,-386 144.9969,-386 138.9969,-386 132.9969,-380 132.9969,-374 132.9969,-374 132.9969,-362 132.9969,-362 132.9969,-356 138.9969,-350 144.9969,-350 144.9969,-350 196.1831,-350 196.1831,-350 202.1831,-350 208.1831,-356 208.1831,-362 208.1831,-362 208.1831,-374 208.1831,-374 208.1831,-380 202.1831,-386 196.1831,-386"/>
<text text-anchor="middle" x="170.59" y="-365" font-family="Fira Mono" font-size="10.00" fill="#000000">selector</text>
</g>
<!-- spec&#45;&gt;spec__selector -->
<g id="edge6" class="edge">
<title>spec-&gt;spec__selector</title>
<path fill="none" stroke="#000000" stroke-width="2" d="M74.9194,-368C92.349,-368 114.247,-368 132.693,-368"/>
</g>
<!-- spec__template -->
<g id="node13" class="node">
<title>spec__template</title>
<path fill="none" stroke="#000000" stroke-width="2" d="M198.0242,-332C198.0242,-332 143.1558,-332 143.1558,-332 137.1558,-332 131.1558,-326 131.1558,-320 131.1558,-320 131.1558,-308 131.1558,-308 131.1558,-302 137.1558,-296 143.1558,-296 143.1558,-296 198.0242,-296 198.0242,-296 204.0242,-296 210.0242,-302 210.0242,-308 210.0242,-308 210.0242,-320 210.0242,-320 210.0242,-326 204.0242,-332 198.0242,-332"/>
<text text-anchor="middle" x="170.59" y="-311" font-family="Fira Mono" font-size="10.00" fill="#000000">template</text>
</g>
<!-- spec&#45;&gt;spec__template -->
<g id="edge7" class="edge">
<title>spec-&gt;spec__template</title>
<path fill="none" stroke="#000000" stroke-width="2" d="M74.9194,-354.7901C91.9096,-347.5462 113.1457,-338.4919 131.2915,-330.7553"/>
</g>
<!-- metadata__name__nginx&#45;deployment -->
<g id="node8" class="node">
<title>metadata__name__nginx-deployment</title>
<path fill="none" stroke="#000000" stroke-width="2" d="M358.7919,-211C358.7919,-211 265.1451,-211 265.1451,-211 259.1451,-211 253.1451,-205 253.1451,-199 253.1451,-199 253.1451,-187 253.1451,-187 253.1451,-181 259.1451,-175 265.1451,-175 265.1451,-175 358.7919,-175 358.7919,-175 364.7919,-175 370.7919,-181 370.7919,-187 370.7919,-187 370.7919,-199 370.7919,-199 370.7919,-205 364.7919,-211 358.7919,-211"/>
<text text-anchor="middle" x="311.9685" y="-190" font-family="Fira Mono" font-size="10.00" fill="#000000">nginx-deployment</text>
</g>
<!-- metadata__name&#45;&gt;metadata__name__nginx&#45;deployment -->
<g id="edge8" class="edge">
<title>metadata__name-&gt;metadata__name__nginx-deployment</title>
<path fill="none" stroke="#000000" stroke-width="2" d="M203.3804,-193C218.2264,-193 236.2389,-193 253.2906,-193"/>
</g>
<!-- metadata__labels__app -->
<g id="node14" class="node">
<title>metadata__labels__app</title>
<path fill="none" stroke="#000000" stroke-width="2" d="M329.4092,-157C329.4092,-157 294.5278,-157 294.5278,-157 288.5278,-157 282.5278,-151 282.5278,-145 282.5278,-145 282.5278,-133 282.5278,-133 282.5278,-127 288.5278,-121 294.5278,-121 294.5278,-121 329.4092,-121 329.4092,-121 335.4092,-121 341.4092,-127 341.4092,-133 341.4092,-133 341.4092,-145 341.4092,-145 341.4092,-151 335.4092,-157 329.4092,-157"/>
<text text-anchor="middle" x="311.9685" y="-136" font-family="Fira Mono" font-size="10.00" fill="#000000">app</text>
</g>
<!-- metadata__labels&#45;&gt;metadata__labels__app -->
<g id="edge9" class="edge">
<title>metadata__labels-&gt;metadata__labels__app</title>
<path fill="none" stroke="#000000" stroke-width="2" d="M204.4537,-139C228.3073,-139 259.9228,-139 282.6882,-139"/>
</g>
<!-- spec__replicas__3 -->
<g id="node11" class="node">
<title>spec__replicas__3</title>
<path fill="none" stroke="#000000" stroke-width="2" d="M326.9685,-440C326.9685,-440 296.9685,-440 296.9685,-440 290.9685,-440 284.9685,-434 284.9685,-428 284.9685,-428 284.9685,-416 284.9685,-416 284.9685,-410 290.9685,-404 296.9685,-404 296.9685,-404 326.9685,-404 326.9685,-404 332.9685,-404 338.9685,-410 338.9685,-416 338.9685,-416 338.9685,-428 338.9685,-428 338.9685,-434 332.9685,-440 326.9685,-440"/>
<text text-anchor="middle" x="311.9685" y="-419" font-family="Fira Mono" font-size="10.00" fill="#000000">3</text>
</g>
<!-- spec__replicas&#45;&gt;spec__replicas__3 -->
<g id="edge10" class="edge">
<title>spec__replicas-&gt;spec__replicas__3</title>
<path fill="none" stroke="#000000" stroke-width="2" d="M208.4768,-422C232.524,-422 263.0785,-422 284.7381,-422"/>
</g>
<!-- spec__selector__matchLabels -->
<g id="node16" class="node">
<title>spec__selector__matchLabels</title>
<path fill="none" stroke="#000000" stroke-width="2" d="M347.5595,-386C347.5595,-386 276.3775,-386 276.3775,-386 270.3775,-386 264.3775,-380 264.3775,-374 264.3775,-374 264.3775,-362 264.3775,-362 264.3775,-356 270.3775,-350 276.3775,-350 276.3775,-350 347.5595,-350 347.5595,-350 353.5595,-350 359.5595,-356 359.5595,-362 359.5595,-362 359.5595,-374 359.5595,-374 359.5595,-380 353.5595,-386 347.5595,-386"/>
<text text-anchor="middle" x="311.9685" y="-365" font-family="Fira Mono" font-size="10.00" fill="#000000">matchLabels</text>
</g>
<!-- spec__selector&#45;&gt;spec__selector__matchLabels -->
<g id="edge11" class="edge">
<title>spec__selector-&gt;spec__selector__matchLabels</title>
<path fill="none" stroke="#000000" stroke-width="2" d="M208.4768,-368C225.6534,-368 246.15,-368 264.3536,-368"/>
</g>
<!-- spec__template__metadata -->
<g id="node17" class="node">
<title>spec__template__metadata</title>
<path fill="none" stroke="#000000" stroke-width="2" d="M340.0616,-332C340.0616,-332 283.8754,-332 283.8754,-332 277.8754,-332 271.8754,-326 271.8754,-320 271.8754,-320 271.8754,-308 271.8754,-308 271.8754,-302 277.8754,-296 283.8754,-296 283.8754,-296 340.0616,-296 340.0616,-296 346.0616,-296 352.0616,-302 352.0616,-308 352.0616,-308 352.0616,-320 352.0616,-320 352.0616,-326 346.0616,-332 340.0616,-332"/>
<text text-anchor="middle" x="311.9685" y="-311" font-family="Fira Mono" font-size="10.00" fill="#000000">metadata</text>
</g>
<!-- spec__template&#45;&gt;spec__template__metadata -->
<g id="edge12" class="edge">
<title>spec__template-&gt;spec__template__metadata</title>
<path fill="none" stroke="#000000" stroke-width="2" d="M209.9718,-314C229.2541,-314 252.4311,-314 271.8156,-314"/>
</g>
<!-- spec__template__spec -->
<g id="node18" class="node">
<title>spec__template__spec</title>
<path fill="none" stroke="#000000" stroke-width="2" d="M330.7359,-265C330.7359,-265 293.2011,-265 293.2011,-265 287.2011,-265 281.2011,-259 281.2011,-253 281.2011,-253 281.2011,-241 281.2011,-241 281.2011,-235 287.2011,-229 293.2011,-229 293.2011,-229 330.7359,-229 330.7359,-229 336.7359,-229 342.7359,-235 342.7359,-241 342.7359,-241 342.7359,-253 342.7359,-253 342.7359,-259 336.7359,-265 330.7359,-265"/>
<text text-anchor="middle" x="311.9685" y="-244" font-family="Fira Mono" font-size="10.00" fill="#000000">spec</text>
</g>
<!-- spec__template&#45;&gt;spec__template__spec -->
<g id="edge13" class="edge">
<title>spec__template-&gt;spec__template__spec</title>
<path fill="none" stroke="#000000" stroke-width="2" d="M208.8491,-295.8688C231.4195,-285.1726 259.6215,-271.8075 280.8248,-261.7591"/>
</g>
<!-- metadata__labels__app__nginx -->
<g id="node15" class="node">
<title>metadata__labels__app__nginx</title>
<path fill="none" stroke="#000000" stroke-width="2" d="M470.4559,-157C470.4559,-157 427.8971,-157 427.8971,-157 421.8971,-157 415.8971,-151 415.8971,-145 415.8971,-145 415.8971,-133 415.8971,-133 415.8971,-127 421.8971,-121 427.8971,-121 427.8971,-121 470.4559,-121 470.4559,-121 476.4559,-121 482.4559,-127 482.4559,-133 482.4559,-133 482.4559,-145 482.4559,-145 482.4559,-151 476.4559,-157 470.4559,-157"/>
<text text-anchor="middle" x="449.1765" y="-136" font-family="Fira Mono" font-size="10.00" fill="#000000">nginx</text>
</g>
<!-- metadata__labels__app&#45;&gt;metadata__labels__app__nginx -->
<g id="edge14" class="edge">
<title>metadata__labels__app-&gt;metadata__labels__app__nginx</title>
<path fill="none" stroke="#000000" stroke-width="2" d="M341.4031,-139C363.136,-139 392.7558,-139 415.4442,-139"/>
</g>
<!-- spec__selector__matchLabels__app -->
<g id="node19" class="node">
<title>spec__selector__matchLabels__app</title>
<path fill="none" stroke="#000000" stroke-width="2" d="M466.6172,-386C466.6172,-386 431.7358,-386 431.7358,-386 425.7358,-386 419.7358,-380 419.7358,-374 419.7358,-374 419.7358,-362 419.7358,-362 419.7358,-356 425.7358,-350 431.7358,-350 431.7358,-350 466.6172,-350 466.6172,-350 472.6172,-350 478.6172,-356 478.6172,-362 478.6172,-362 478.6172,-374 478.6172,-374 478.6172,-380 472.6172,-386 466.6172,-386"/>
<text text-anchor="middle" x="449.1765" y="-365" font-family="Fira Mono" font-size="10.00" fill="#000000">app</text>
</g>
<!-- spec__selector__matchLabels&#45;&gt;spec__selector__matchLabels__app -->
<g id="edge15" class="edge">
<title>spec__selector__matchLabels-&gt;spec__selector__matchLabels__app</title>
<path fill="none" stroke="#000000" stroke-width="2" d="M359.5721,-368C379.5414,-368 402.1379,-368 419.6432,-368"/>
</g>
<!-- spec__template__metadata__labels -->
<g id="node21" class="node">
<title>spec__template__metadata__labels</title>
<path fill="none" stroke="#000000" stroke-width="2" d="M471.0023,-332C471.0023,-332 427.3507,-332 427.3507,-332 421.3507,-332 415.3507,-326 415.3507,-320 415.3507,-320 415.3507,-308 415.3507,-308 415.3507,-302 421.3507,-296 427.3507,-296 427.3507,-296 471.0023,-296 471.0023,-296 477.0023,-296 483.0023,-302 483.0023,-308 483.0023,-308 483.0023,-320 483.0023,-320 483.0023,-326 477.0023,-332 471.0023,-332"/>
<text text-anchor="middle" x="449.1765" y="-311" font-family="Fira Mono" font-size="10.00" fill="#000000">labels</text>
</g>
<!-- spec__template__metadata&#45;&gt;spec__template__metadata__labels -->
<g id="edge16" class="edge">
<title>spec__template__metadata-&gt;spec__template__metadata__labels</title>
<path fill="none" stroke="#000000" stroke-width="2" d="M352.0236,-314C372.1148,-314 396.182,-314 415.3356,-314"/>
</g>
<!-- spec__template__spec__containers -->
<g id="node22" class="node">
<title>spec__template__spec__containers</title>
<path fill="none" stroke="#000000" stroke-width="2" d="M479.7696,-251C479.7696,-251 418.5834,-251 418.5834,-251 412.5834,-251 406.5834,-245 406.5834,-239 406.5834,-239 406.5834,-227 406.5834,-227 406.5834,-221 412.5834,-215 418.5834,-215 418.5834,-215 479.7696,-215 479.7696,-215 485.7696,-215 491.7696,-221 491.7696,-227 491.7696,-227 491.7696,-239 491.7696,-239 491.7696,-245 485.7696,-251 479.7696,-251"/>
<text text-anchor="middle" x="449.1765" y="-230" font-family="Fira Mono" font-size="10.00" fill="#000000">containers</text>
</g>
<!-- spec__template__spec&#45;&gt;spec__template__spec__containers -->
<g id="edge17" class="edge">
<title>spec__template__spec-&gt;spec__template__spec__containers</title>
<path fill="none" stroke="#000000" stroke-width="2" d="M342.7607,-243.8581C361.5652,-241.9394 385.8817,-239.4583 406.5225,-237.3522"/>
</g>
<!-- spec__selector__matchLabels__app__nginx -->
<g id="node20" class="node">
<title>spec__selector__matchLabels__app__nginx</title>
<path fill="none" stroke="#000000" stroke-width="2" d="M583.2204,-386C583.2204,-386 540.6616,-386 540.6616,-386 534.6616,-386 528.6616,-380 528.6616,-374 528.6616,-374 528.6616,-362 528.6616,-362 528.6616,-356 534.6616,-350 540.6616,-350 540.6616,-350 583.2204,-350 583.2204,-350 589.2204,-350 595.2204,-356 595.2204,-362 595.2204,-362 595.2204,-374 595.2204,-374 595.2204,-380 589.2204,-386 583.2204,-386"/>
<text text-anchor="middle" x="561.941" y="-365" font-family="Fira Mono" font-size="10.00" fill="#000000">nginx</text>
</g>
<!-- spec__selector__matchLabels__app&#45;&gt;spec__selector__matchLabels__app__nginx -->
<g id="edge18" class="edge">
<title>spec__selector__matchLabels__app-&gt;spec__selector__matchLabels__app__nginx</title>
<path fill="none" stroke="#000000" stroke-width="2" d="M478.5097,-368C493.7798,-368 512.519,-368 528.3668,-368"/>
</g>
<!-- spec__template__metadata__labels__app -->
<g id="node23" class="node">
<title>spec__template__metadata__labels__app</title>
<path fill="none" stroke="#000000" stroke-width="2" d="M579.3817,-332C579.3817,-332 544.5003,-332 544.5003,-332 538.5003,-332 532.5003,-326 532.5003,-320 532.5003,-320 532.5003,-308 532.5003,-308 532.5003,-302 538.5003,-296 544.5003,-296 544.5003,-296 579.3817,-296 579.3817,-296 585.3817,-296 591.3817,-302 591.3817,-308 591.3817,-308 591.3817,-320 591.3817,-320 591.3817,-326 585.3817,-332 579.3817,-332"/>
<text text-anchor="middle" x="561.941" y="-311" font-family="Fira Mono" font-size="10.00" fill="#000000">app</text>
</g>
<!-- spec__template__metadata__labels&#45;&gt;spec__template__metadata__labels__app -->
<g id="edge19" class="edge">
<title>spec__template__metadata__labels-&gt;spec__template__metadata__labels__app</title>
<path fill="none" stroke="#000000" stroke-width="2" d="M483.0096,-314C498.8388,-314 517.5071,-314 532.7134,-314"/>
</g>
<!-- spec__template__spec__containers__name -->
<g id="node25" class="node">
<title>spec__template__spec__containers__name</title>
<path fill="none" stroke="#000000" stroke-width="2" d="M582.5989,-278C582.5989,-278 541.2831,-278 541.2831,-278 535.2831,-278 529.2831,-272 529.2831,-266 529.2831,-266 529.2831,-254 529.2831,-254 529.2831,-248 535.2831,-242 541.2831,-242 541.2831,-242 582.5989,-242 582.5989,-242 588.5989,-242 594.5989,-248 594.5989,-254 594.5989,-254 594.5989,-266 594.5989,-266 594.5989,-272 588.5989,-278 582.5989,-278"/>
<text text-anchor="middle" x="561.941" y="-257" font-family="Fira Mono" font-size="10.00" fill="#000000">name</text>
</g>
<!-- spec__template__spec__containers&#45;&gt;spec__template__spec__containers__name -->
<g id="edge20" class="edge">
<title>spec__template__spec__containers-&gt;spec__template__spec__containers__name</title>
<path fill="none" stroke="#000000" stroke-width="2" d="M491.8079,-243.2075C504.157,-246.1644 517.4433,-249.3456 529.0952,-252.1355"/>
</g>
<!-- spec__template__spec__containers__image -->
<g id="node27" class="node">
<title>spec__template__spec__containers__image</title>
<path fill="none" stroke="#000000" stroke-width="2" d="M584.3784,-224C584.3784,-224 539.5036,-224 539.5036,-224 533.5036,-224 527.5036,-218 527.5036,-212 527.5036,-212 527.5036,-200 527.5036,-200 527.5036,-194 533.5036,-188 539.5036,-188 539.5036,-188 584.3784,-188 584.3784,-188 590.3784,-188 596.3784,-194 596.3784,-200 596.3784,-200 596.3784,-212 596.3784,-212 596.3784,-218 590.3784,-224 584.3784,-224"/>
<text text-anchor="middle" x="561.941" y="-203" font-family="Fira Mono" font-size="10.00" fill="#000000">image</text>
</g>
<!-- spec__template__spec__containers&#45;&gt;spec__template__spec__containers__image -->
<g id="edge21" class="edge">
<title>spec__template__spec__containers-&gt;spec__template__spec__containers__image</title>
<path fill="none" stroke="#000000" stroke-width="2" d="M491.8079,-222.7925C503.658,-219.9551 516.3712,-216.9111 527.675,-214.2045"/>
</g>
<!-- spec__template__spec__containers__ports -->
<g id="node29" class="node">
<title>spec__template__spec__containers__ports</title>
<path fill="none" stroke="#000000" stroke-width="2" d="M581.938,-170C581.938,-170 541.944,-170 541.944,-170 535.944,-170 529.944,-164 529.944,-158 529.944,-158 529.944,-146 529.944,-146 529.944,-140 535.944,-134 541.944,-134 541.944,-134 581.938,-134 581.938,-134 587.938,-134 593.938,-140 593.938,-146 593.938,-146 593.938,-158 593.938,-158 593.938,-164 587.938,-170 581.938,-170"/>
<text text-anchor="middle" x="561.941" y="-149" font-family="Fira Mono" font-size="10.00" fill="#000000">ports</text>
</g>
<!-- spec__template__spec__containers&#45;&gt;spec__template__spec__containers__ports -->
<g id="edge22" class="edge">
<title>spec__template__spec__containers-&gt;spec__template__spec__containers__ports</title>
<path fill="none" stroke="#000000" stroke-width="2" d="M474.4831,-214.822C493.0545,-201.482 518.1674,-183.4431 536.7189,-170.1173"/>
</g>
<!-- spec__template__metadata__labels__app__nginx -->
<g id="node24" class="node">
<title>spec__template__metadata__labels__app__nginx</title>
<path fill="none" stroke="#000000" stroke-width="2" d="M702.3739,-332C702.3739,-332 659.8151,-332 659.8151,-332 653.8151,-332 647.8151,-326 647.8151,-320 647.8151,-320 647.8151,-308 647.8151,-308 647.8151,-302 653.8151,-296 659.8151,-296 659.8151,-296 702.3739,-296 702.3739,-296 708.3739,-296 714.3739,-302 714.3739,-308 714.3739,-308 714.3739,-320 714.3739,-320 714.3739,-326 708.3739,-332 702.3739,-332"/>
<text text-anchor="middle" x="681.0945" y="-311" font-family="Fira Mono" font-size="10.00" fill="#000000">nginx</text>
</g>
<!-- spec__template__metadata__labels__app&#45;&gt;spec__template__metadata__labels__app__nginx -->
<g id="edge23" class="edge">
<title>spec__template__metadata__labels__app-&gt;spec__template__metadata__labels__app__nginx</title>
<path fill="none" stroke="#000000" stroke-width="2" d="M591.3947,-314C608.4857,-314 630.0651,-314 647.7749,-314"/>
</g>
<!-- spec__template__spec__containers__name__nginx -->
<g id="node26" class="node">
<title>spec__template__spec__containers__name__nginx</title>
<path fill="none" stroke="#000000" stroke-width="2" d="M702.3739,-278C702.3739,-278 659.8151,-278 659.8151,-278 653.8151,-278 647.8151,-272 647.8151,-266 647.8151,-266 647.8151,-254 647.8151,-254 647.8151,-248 653.8151,-242 659.8151,-242 659.8151,-242 702.3739,-242 702.3739,-242 708.3739,-242 714.3739,-248 714.3739,-254 714.3739,-254 714.3739,-266 714.3739,-266 714.3739,-272 708.3739,-278 702.3739,-278"/>
<text text-anchor="middle" x="681.0945" y="-257" font-family="Fira Mono" font-size="10.00" fill="#000000">nginx</text>
</g>
<!-- spec__template__spec__containers__name&#45;&gt;spec__template__spec__containers__name__nginx -->
<g id="edge24" class="edge">
<title>spec__template__spec__containers__name-&gt;spec__template__spec__containers__name__nginx</title>
<path fill="none" stroke="#000000" stroke-width="2" d="M594.8156,-260C611.2101,-260 631.0059,-260 647.4984,-260"/>
</g>
<!-- spec__template__spec__containers__image__nginx&#45;&#45;&#45;1.14.2 -->
<g id="node28" class="node">
<title>spec__template__spec__containers__image__nginx---1.14.2</title>
<path fill="none" stroke="#000000" stroke-width="2" d="M716.1535,-224C716.1535,-224 646.0355,-224 646.0355,-224 640.0355,-224 634.0355,-218 634.0355,-212 634.0355,-212 634.0355,-200 634.0355,-200 634.0355,-194 640.0355,-188 646.0355,-188 646.0355,-188 716.1535,-188 716.1535,-188 722.1535,-188 728.1535,-194 728.1535,-200 728.1535,-200 728.1535,-212 728.1535,-212 728.1535,-218 722.1535,-224 716.1535,-224"/>
<text text-anchor="middle" x="681.0945" y="-203" font-family="Fira Mono" font-size="10.00" fill="#000000">nginx:1.14.2</text>
</g>
<!-- spec__template__spec__containers__image&#45;&gt;spec__template__spec__containers__image__nginx&#45;&#45;&#45;1.14.2 -->
<g id="edge25" class="edge">
<title>spec__template__spec__containers__image-&gt;spec__template__spec__containers__image__nginx---1.14.2</title>
<path fill="none" stroke="#000000" stroke-width="2" d="M596.4051,-206C608.0895,-206 621.3513,-206 633.8548,-206"/>
</g>
<!-- spec__template__spec__containers__ports__containerPort -->
<g id="node30" class="node">
<title>spec__template__spec__containers__ports__containerPort</title>
<path fill="none" stroke="#000000" stroke-width="2" d="M717.9656,-170C717.9656,-170 644.2234,-170 644.2234,-170 638.2234,-170 632.2234,-164 632.2234,-158 632.2234,-158 632.2234,-146 632.2234,-146 632.2234,-140 638.2234,-134 644.2234,-134 644.2234,-134 717.9656,-134 717.9656,-134 723.9656,-134 729.9656,-140 729.9656,-146 729.9656,-146 729.9656,-158 729.9656,-158 729.9656,-164 723.9656,-170 717.9656,-170"/>
<text text-anchor="middle" x="681.0945" y="-149" font-family="Fira Mono" font-size="10.00" fill="#000000">containerPort</text>
</g>
<!-- spec__template__spec__containers__ports&#45;&gt;spec__template__spec__containers__ports__containerPort -->
<g id="edge26" class="edge">
<title>spec__template__spec__containers__ports-&gt;spec__template__spec__containers__ports__containerPort</title>
<path fill="none" stroke="#000000" stroke-width="2" d="M594.1857,-152C605.7645,-152 619.1018,-152 631.797,-152"/>
</g>
<!-- spec__template__spec__containers__ports__containerPort__80 -->
<g id="node31" class="node">
<title>spec__template__spec__containers__ports__containerPort__80</title>
<path fill="none" stroke="#000000" stroke-width="2" d="M808.03,-170C808.03,-170 778.03,-170 778.03,-170 772.03,-170 766.03,-164 766.03,-158 766.03,-158 766.03,-146 766.03,-146 766.03,-140 772.03,-134 778.03,-134 778.03,-134 808.03,-134 808.03,-134 814.03,-134 820.03,-140 820.03,-146 820.03,-146 820.03,-158 820.03,-158 820.03,-164 814.03,-170 808.03,-170"/>
<text text-anchor="middle" x="793.03" y="-149" font-family="Fira Mono" font-size="10.00" fill="#000000">80</text>
</g>
<!-- spec__template__spec__containers__ports__containerPort&#45;&gt;spec__template__spec__containers__ports__containerPort__80 -->
<g id="edge27" class="edge">
<title>spec__template__spec__containers__ports__containerPort-&gt;spec__template__spec__containers__ports__containerPort__80</title>
<path fill="none" stroke="#000000" stroke-width="2" d="M730.191,-152C742.4093,-152 755.0711,-152 765.7996,-152"/>
</g>
</g>
</svg>