<?xml version="1.0" encoding="UTF-8" standalone="no"?>
<!DOCTYPE svg PUBLIC "-//W3C//DTD SVG 1.1//EN" "http://www.w3.org/Graphics/SVG/1.1/DTD/svg11.dtd">
<!-- Generated by graphviz version 2.40.1 (20161225.0304)
 -->
<!-- Title: %0 Pages: 1 -->
<svg width="427pt" height="638pt" viewBox="0.00 0.00 427.22 638.00" xmlns="http://www.w3.org/2000/svg" xmlns:xlink="http://www.w3.org/1999/xlink">
<g id="graph0" class="graph" transform="scale(1 1) rotate(0) translate(4 634)">
<title>%0</title>
<polygon fill="#ffffff" stroke="transparent" points="-4,4 -4,-634 423.223,-634 423.223,4 -4,4"/>
<!-- 0__sample&#45;graph -->
<g id="node1" class="node">
<title>0__sample-graph</title>
<path fill="none" stroke="#000000" stroke-width="2" d="M86.6339,-333C86.6339,-333 11.7881,-333 11.7881,-333 5.7881,-333 -.2119,-327 -.2119,-321 -.2119,-321 -.2119,-309 -.2119,-309 -.2119,-303 5.7881,-297 11.7881,-297 11.7881,-297 86.6339,-297 86.6339,-297 92.6339,-297 98.6339,-303 98.6339,-309 98.6339,-309 98.6339,-321 98.6339,-321 98.6339,-327 92.6339,-333 86.6339,-333"/>
<text text-anchor="middle" x="49.211" y="-312" font-family="Fira Mono" font-size="10.00" fill="#000000">sample-graph</text>
</g>
<!-- 0__sample&#45;graph__nodes -->
<g id="node2" class="node">
<title>0__sample-graph__nodes</title>
<path fill="none" stroke="#000000" stroke-width="2" d="M189.9148,-414C189.9148,-414 146.2572,-414 146.2572,-414 140.2572,-414 134.2572,-408 134.2572,-402 134.2572,-402 134.2572,-390 134.2572,-390 134.2572,-384 140.2572,-378 146.2572,-378 146.2572,-378 189.9148,-378 189.9148,-378 195.9148,-378 201.9148,-384 201.9148,-390 201.9148,-390 201.9148,-402 201.9148,-402 201.9148,-408 195.9148,-414 189.9148,-414"/>
<text text-anchor="middle" x="168.086" y="-393" font-family="Fira Mono" font-size="10.00" fill="#000000">nodes</text>
</g>
<!-- 0__sample&#45;graph&#45;&gt;0__sample&#45;graph__nodes -->
<g id="edge1" class="edge">
<title>0__sample-graph-&gt;0__sample-graph__nodes</title>
<path fill="none" stroke="#000000" stroke-width="2" d="M75.8889,-333.178C95.4666,-346.518 121.9404,-364.5569 141.4972,-377.8827"/>
</g>
<!-- 0__sample&#45;graph__edges -->
<g id="node3" class="node">
<title>0__sample-graph__edges</title>
<path fill="none" stroke="#000000" stroke-width="2" d="M189.3534,-252C189.3534,-252 146.8186,-252 146.8186,-252 140.8186,-252 134.8186,-246 134.8186,-240 134.8186,-240 134.8186,-228 134.8186,-228 134.8186,-222 140.8186,-216 146.8186,-216 146.8186,-216 189.3534,-216 189.3534,-216 195.3534,-216 201.3534,-222 201.3534,-228 201.3534,-228 201.3534,-240 201.3534,-240 201.3534,-246 195.3534,-252 189.3534,-252"/>
<text text-anchor="middle" x="168.086" y="-231" font-family="Fira Mono" font-size="10.00" fill="#000000">edges</text>
</g>
<!-- 0__sample&#45;graph&#45;&gt;0__sample&#45;graph__edges -->
<g id="edge2" class="edge">
<title>0__sample-graph-&gt;0__sample-graph__edges</title>
<path fill="none" stroke="#000000" stroke-width="2" d="M75.8889,-296.822C95.4666,-283.482 121.9404,-265.4431 141.4972,-252.1173"/>
</g>
<!-- 0__sample&#45;graph__nodes__id -->
<g id="node4" class="node">
<title>0__sample-graph__nodes__id</title>
<path fill="none" stroke="#000000" stroke-width="2" d="M287.798,-549C287.798,-549 257.798,-549 257.798,-549 251.798,-549 245.798,-543 245.798,-537 245.798,-537 245.798,-525 245.798,-525 245.798,-519 251.798,-513 257.798,-513 257.798,-513 287.798,-513 287.798,-513 293.798,-513 299.798,-519 299.798,-525 299.798,-525 299.798,-537 299.798,-537 299.798,-543 293.798,-549 287.798,-549"/>
<text text-anchor="middle" x="272.798" y="-528" font-family="Fira Mono" font-size="10.00" fill="#000000">id</text>
</g>
<!-- 0__sample&#45;graph__nodes&#45;&gt;0__sample&#45;graph__nodes__id -->
<g id="edge3" class="edge">
<title>0__sample-graph__nodes-&gt;0__sample-graph__nodes__id</title>
<path fill="none" stroke="#000000" stroke-width="2" d="M182.2079,-414.2067C202.1929,-439.9724 238.5203,-486.8074 258.5654,-512.6506"/>
</g>
<!-- 0__sample&#45;graph__nodes__label -->
<g id="node6" class="node">
<title>0__sample-graph__nodes__label</title>
<path fill="none" stroke="#000000" stroke-width="2" d="M292.7355,-414C292.7355,-414 252.8605,-414 252.8605,-414 246.8605,-414 240.8605,-408 240.8605,-402 240.8605,-402 240.8605,-390 240.8605,-390 240.8605,-384 246.8605,-378 252.8605,-378 252.8605,-378 292.7355,-378 292.7355,-378 298.7355,-378 304.7355,-384 304.7355,-390 304.7355,-390 304.7355,-402 304.7355,-402 304.7355,-408 298.7355,-414 292.7355,-414"/>
<text text-anchor="middle" x="272.798" y="-393" font-family="Fira Mono" font-size="10.00" fill="#000000">label</text>
</g>
<!-- 0__sample&#45;graph__nodes&#45;&gt;0__sample&#45;graph__nodes__label -->
<g id="edge4" class="edge">
<title>0__sample-graph__nodes-&gt;0__sample-graph__nodes__label</title>
<path fill="none" stroke="#000000" stroke-width="2" d="M201.7939,-396C214.3491,-396 228.55,-396 240.9344,-396"/>
</g>
<!-- 0__sample&#45;graph__edges__source -->
<g id="node12" class="node">
<title>0__sample-graph__edges__source</title>
<path fill="none" stroke="#000000" stroke-width="2" d="M295.8941,-252C295.8941,-252 249.7019,-252 249.7019,-252 243.7019,-252 237.7019,-246 237.7019,-240 237.7019,-240 237.7019,-228 237.7019,-228 237.7019,-222 243.7019,-216 249.7019,-216 249.7019,-216 295.8941,-216 295.8941,-216 301.8941,-216 307.8941,-222 307.8941,-228 307.8941,-228 307.8941,-240 307.8941,-240 307.8941,-246 301.8941,-252 295.8941,-252"/>
<text text-anchor="middle" x="272.798" y="-231" font-family="Fira Mono" font-size="10.00" fill="#000000">source</text>
</g>
<!-- 0__sample&#45;graph__edges&#45;&gt;0__sample&#45;graph__edges__source -->
<g id="edge5" class="edge">
<title>0__sample-graph__edges-&gt;0__sample-graph__edges__source</title>
<path fill="none" stroke="#000000" stroke-width="2" d="M201.5054,-234C212.9972,-234 225.8956,-234 237.5297,-234"/>
</g>
<!-- 0__sample&#45;graph__edges__target -->
<g id="node14" class="node">
<title>0__sample-graph__edges__target</title>
<path fill="none" stroke="#000000" stroke-width="2" d="M294.0634,-117C294.0634,-117 251.5326,-117 251.5326,-117 245.5326,-117 239.5326,-111 239.5326,-105 239.5326,-105 239.5326,-93 239.5326,-93 239.5326,-87 245.5326,-81 251.5326,-81 251.5326,-81 294.0634,-81 294.0634,-81 300.0634,-81 306.0634,-87 306.0634,-93 306.0634,-93 306.0634,-105 306.0634,-105 306.0634,-111 300.0634,-117 294.0634,-117"/>
<text text-anchor="middle" x="272.798" y="-96" font-family="Fira Mono" font-size="10.00" fill="#000000">target</text>
</g>
<!-- 0__sample&#45;graph__edges&#45;&gt;0__sample&#45;graph__edges__target -->
<g id="edge6" class="edge">
<title>0__sample-graph__edges-&gt;0__sample-graph__edges__target</title>
<path fill="none" stroke="#000000" stroke-width="2" d="M182.2079,-215.7933C202.1929,-190.0276 238.5203,-143.1926 258.5654,-117.3494"/>
</g>
<!-- 0__sample&#45;graph__nodes__id__C -->
<g id="node5" class="node">
<title>0__sample-graph__nodes__id__C</title>
<path fill="none" stroke="#000000" stroke-width="2" d="M396.5345,-630C396.5345,-630 366.5345,-630 366.5345,-630 360.5345,-630 354.5345,-624 354.5345,-618 354.5345,-618 354.5345,-606 354.5345,-606 354.5345,-600 360.5345,-594 366.5345,-594 366.5345,-594 396.5345,-594 396.5345,-594 402.5345,-594 408.5345,-600 408.5345,-606 408.5345,-606 408.5345,-618 408.5345,-618 408.5345,-624 402.5345,-630 396.5345,-630"/>
<text text-anchor="middle" x="381.5345" y="-609" font-family="Fira Mono" font-size="10.00" fill="#000000">C</text>
</g>
<!-- 0__sample&#45;graph__nodes__id&#45;&gt;0__sample&#45;graph__nodes__id__C -->
<g id="edge7" class="edge">
<title>0__sample-graph__nodes__id-&gt;0__sample-graph__nodes__id__C</title>
<path fill="none" stroke="#000000" stroke-width="2" d="M296.3547,-549.1682C310.1276,-559.7242 327.8896,-573.2242 343.846,-585 347.7318,-587.8677 351.8664,-590.8743 355.9197,-593.7972"/>
</g>
<!-- 0__sample&#45;graph__nodes__id__B -->
<g id="node8" class="node">
<title>0__sample-graph__nodes__id__B</title>
<path fill="none" stroke="#000000" stroke-width="2" d="M396.5345,-576C396.5345,-576 366.5345,-576 366.5345,-576 360.5345,-576 354.5345,-570 354.5345,-564 354.5345,-564 354.5345,-552 354.5345,-552 354.5345,-546 360.5345,-540 366.5345,-540 366.5345,-540 396.5345,-540 396.5345,-540 402.5345,-540 408.5345,-546 408.5345,-552 408.5345,-552 408.5345,-564 408.5345,-564 408.5345,-570 402.5345,-576 396.5345,-576"/>
<text text-anchor="middle" x="381.5345" y="-555" font-family="Fira Mono" font-size="10.00" fill="#000000">B</text>
</g>
<!-- 0__sample&#45;graph__nodes__id&#45;&gt;0__sample&#45;graph__nodes__id__B -->
<g id="edge8" class="edge">
<title>0__sample-graph__nodes__id-&gt;0__sample-graph__nodes__id__B</title>
<path fill="none" stroke="#000000" stroke-width="2" d="M299.9563,-537.7436C316.563,-541.8672 337.7332,-547.1238 354.3455,-551.2488"/>
</g>
<!-- 0__sample&#45;graph__nodes__id__A -->
<g id="node10" class="node">
<title>0__sample-graph__nodes__id__A</title>
<path fill="none" stroke="#000000" stroke-width="2" d="M396.5345,-522C396.5345,-522 366.5345,-522 366.5345,-522 360.5345,-522 354.5345,-516 354.5345,-510 354.5345,-510 354.5345,-498 354.5345,-498 354.5345,-492 360.5345,-486 366.5345,-486 366.5345,-486 396.5345,-486 396.5345,-486 402.5345,-486 408.5345,-492 408.5345,-498 408.5345,-498 408.5345,-510 408.5345,-510 408.5345,-516 402.5345,-522 396.5345,-522"/>
<text text-anchor="middle" x="381.5345" y="-501" font-family="Fira Mono" font-size="10.00" fill="#000000">A</text>
</g>
<!-- 0__sample&#45;graph__nodes__id&#45;&gt;0__sample&#45;graph__nodes__id__A -->
<g id="edge9" class="edge">
<title>0__sample-graph__nodes__id-&gt;0__sample-graph__nodes__id__A</title>
<path fill="none" stroke="#000000" stroke-width="2" d="M299.9563,-524.2564C316.563,-520.1328 337.7332,-514.8762 354.3455,-510.7512"/>
</g>
<!-- 0__sample&#45;graph__nodes__label__Node C -->
<g id="node7" class="node">
<title>0__sample-graph__nodes__label__Node C</title>
<path fill="none" stroke="#000000" stroke-width="2" d="M406.8617,-468C406.8617,-468 356.2073,-468 356.2073,-468 350.2073,-468 344.2073,-462 344.2073,-456 344.2073,-456 344.2073,-444 344.2073,-444 344.2073,-438 350.2073,-432 356.2073,-432 356.2073,-432 406.8617,-432 406.8617,-432 412.8617,-432 418.8617,-438 418.8617,-444 418.8617,-444 418.8617,-456 418.8617,-456 418.8617,-462 412.8617,-468 406.8617,-468"/>
<text text-anchor="middle" x="381.5345" y="-447" font-family="Fira Mono" font-size="10.00" fill="#000000">Node C</text>
</g>
<!-- 0__sample&#45;graph__nodes__label&#45;&gt;0__sample&#45;graph__nodes__label__Node C -->
<g id="edge10" class="edge">
<title>0__sample-graph__nodes__label-&gt;0__sample-graph__nodes__label__Node C</title>
<path fill="none" stroke="#000000" stroke-width="2" d="M304.5414,-411.7642C317.2039,-418.0526 331.8593,-425.3306 344.964,-431.8386"/>
</g>
<!-- 0__sample&#45;graph__nodes__label__Node B -->
<g id="node9" class="node">
<title>0__sample-graph__nodes__label__Node B</title>
<path fill="none" stroke="#000000" stroke-width="2" d="M406.8617,-414C406.8617,-414 356.2073,-414 356.2073,-414 350.2073,-414 344.2073,-408 344.2073,-402 344.2073,-402 344.2073,-390 344.2073,-390 344.2073,-384 350.2073,-378 356.2073,-378 356.2073,-378 406.8617,-378 406.8617,-378 412.8617,-378 418.8617,-384 418.8617,-390 418.8617,-390 418.8617,-402 418.8617,-402 418.8617,-408 412.8617,-414 406.8617,-414"/>
<text text-anchor="middle" x="381.5345" y="-393" font-family="Fira Mono" font-size="10.00" fill="#000000">Node B</text>
</g>
<!-- 0__sample&#45;graph__nodes__label&#45;&gt;0__sample&#45;graph__nodes__label__Node B -->
<g id="edge11" class="edge">
<title>0__sample-graph__nodes__label-&gt;0__sample-graph__nodes__label__Node B</title>
<path fill="none" stroke="#000000" stroke-width="2" d="M304.5414,-396C316.9532,-396 331.2796,-396 344.1837,-396"/>
</g>
<!-- 0__sample&#45;graph__nodes__label__Node A -->
<g id="node11" class="node">
<title>0__sample-graph__nodes__label__Node A</title>
<path fill="none" stroke="#000000" stroke-width="2" d="M407.4124,-360C407.4124,-360 355.6566,-360 355.6566,-360 349.6566,-360 343.6566,-354 343.6566,-348 343.6566,-348 343.6566,-336 343.6566,-336 343.6566,-330 349.6566,-324 355.6566,-324 355.6566,-324 407.4124,-324 407.4124,-324 413.4124,-324 419.4124,-330 419.4124,-336 419.4124,-336 419.4124,-348 419.4124,-348 419.4124,-354 413.4124,-360 407.4124,-360"/>
<text text-anchor="middle" x="381.5345" y="-339" font-family="Fira Mono" font-size="10.00" fill="#000000">Node A</text>
</g>
<!-- 0__sample&#45;graph__nodes__label&#45;&gt;0__sample&#45;graph__nodes__label__Node A -->
<g id="edge12" class="edge">
<title>0__sample-graph__nodes__label-&gt;0__sample-graph__nodes__label__Node A</title>
<path fill="none" stroke="#000000" stroke-width="2" d="M304.5414,-380.2358C317.2039,-373.9474 331.8593,-366.6694 344.964,-360.1614"/>
</g>
<!-- 0__sample&#45;graph__edges__source__C -->
<g id="node13" class="node">
<title>0__sample-graph__edges__source__C</title>
<path fill="none" stroke="#000000" stroke-width="2" d="M396.5345,-306C396.5345,-306 366.5345,-306 366.5345,-306 360.5345,-306 354.5345,-300 354.5345,-294 354.5345,-294 354.5345,-282 354.5345,-282 354.5345,-276 360.5345,-270 366.5345,-270 366.5345,-270 396.5345,-270 396.5345,-270 402.5345,-270 408.5345,-276 408.5345,-282 408.5345,-282 408.5345,-294 408.5345,-294 408.5345,-300 402.5345,-306 396.5345,-306"/>
<text text-anchor="middle" x="381.5345" y="-285" font-family="Fira Mono" font-size="10.00" fill="#000000">C</text>
</g>
<!-- 0__sample&#45;graph__edges__source&#45;&gt;0__sample&#45;graph__edges__source__C -->
<g id="edge13" class="edge">
<title>0__sample-graph__edges__source-&gt;0__sample-graph__edges__source__C</title>
<path fill="none" stroke="#000000" stroke-width="2" d="M308.1016,-251.5323C323.1086,-258.9849 340.3345,-267.5395 354.3291,-274.4894"/>
</g>
<!-- 0__sample&#45;graph__edges__source__B -->
<g id="node16" class="node">
<title>0__sample-graph__edges__source__B</title>
<path fill="none" stroke="#000000" stroke-width="2" d="M396.5345,-252C396.5345,-252 366.5345,-252 366.5345,-252 360.5345,-252 354.5345,-246 354.5345,-240 354.5345,-240 354.5345,-228 354.5345,-228 354.5345,-222 360.5345,-216 366.5345,-216 366.5345,-216 396.5345,-216 396.5345,-216 402.5345,-216 408.5345,-222 408.5345,-228 408.5345,-228 408.5345,-240 408.5345,-240 408.5345,-246 402.5345,-252 396.5345,-252"/>
<text text-anchor="middle" x="381.5345" y="-231" font-family="Fira Mono" font-size="10.00" fill="#000000">B</text>
</g>
<!-- 0__sample&#45;graph__edges__source&#45;&gt;0__sample&#45;graph__edges__source__B -->
<g id="edge14" class="edge">
<title>0__sample-graph__edges__source-&gt;0__sample-graph__edges__source__B</title>
<path fill="none" stroke="#000000" stroke-width="2" d="M308.1016,-234C323.1086,-234 340.3345,-234 354.3291,-234"/>
</g>
<!-- 0__sample&#45;graph__edges__source__A -->
<g id="node18" class="node">
<title>0__sample-graph__edges__source__A</title>
<path fill="none" stroke="#000000" stroke-width="2" d="M396.5345,-198C396.5345,-198 366.5345,-198 366.5345,-198 360.5345,-198 354.5345,-192 354.5345,-186 354.5345,-186 354.5345,-174 354.5345,-174 354.5345,-168 360.5345,-162 366.5345,-162 366.5345,-162 396.5345,-162 396.5345,-162 402.5345,-162 408.5345,-168 408.5345,-174 408.5345,-174 408.5345,-186 408.5345,-186 408.5345,-192 402.5345,-198 396.5345,-198"/>
<text text-anchor="middle" x="381.5345" y="-177" font-family="Fira Mono" font-size="10.00" fill="#000000">A</text>
</g>
<!-- 0__sample&#45;graph__edges__source&#45;&gt;0__sample&#45;graph__edges__source__A -->
<g id="edge15" class="edge">
<title>0__sample-graph__edges__source-&gt;0__sample-graph__edges__source__A</title>
<path fill="none" stroke="#000000" stroke-width="2" d="M308.1016,-216.4677C323.1086,-209.0151 340.3345,-200.4605 354.3291,-193.5106"/>
</g>
<!-- 0__sample&#45;graph__edges__target__A -->
<g id="node15" class="node">
<title>0__sample-graph__edges__target__A</title>
<path fill="none" stroke="#000000" stroke-width="2" d="M396.5345,-144C396.5345,-144 366.5345,-144 366.5345,-144 360.5345,-144 354.5345,-138 354.5345,-132 354.5345,-132 354.5345,-120 354.5345,-120 354.5345,-114 360.5345,-108 366.5345,-108 366.5345,-108 396.5345,-108 396.5345,-108 402.5345,-108 408.5345,-114 408.5345,-120 408.5345,-120 408.5345,-132 408.5345,-132 408.5345,-138 402.5345,-144 396.5345,-144"/>
<text text-anchor="middle" x="381.5345" y="-123" font-family="Fira Mono" font-size="10.00" fill="#000000">A</text>
</g>
<!-- 0__sample&#45;graph__edges__target&#45;&gt;0__sample&#45;graph__edges__target__A -->
<g id="edge16" class="edge">
<title>0__sample-graph__edges__target-&gt;0__sample-graph__edges__target__A</title>
<path fill="none" stroke="#000000" stroke-width="2" d="M306.3098,-107.3212C321.7853,-111.1639 339.918,-115.6664 354.503,-119.2879"/>
</g>
<!-- 0__sample&#45;graph__edges__target__C -->
<g id="node17" class="node">
<title>0__sample-graph__edges__target__C</title>
<path fill="none" stroke="#000000" stroke-width="2" d="M396.5345,-90C396.5345,-90 366.5345,-90 366.5345,-90 360.5345,-90 354.5345,-84 354.5345,-78 354.5345,-78 354.5345,-66 354.5345,-66 354.5345,-60 360.5345,-54 366.5345,-54 366.5345,-54 396.5345,-54 396.5345,-54 402.5345,-54 408.5345,-60 408.5345,-66 408.5345,-66 408.5345,-78 408.5345,-78 408.5345,-84 402.5345,-90 396.5345,-90"/>
<text text-anchor="middle" x="381.5345" y="-69" font-family="Fira Mono" font-size="10.00" fill="#000000">C</text>
</g>
<!-- 0__sample&#45;graph__edges__target&#45;&gt;0__sample&#45;graph__edges__target__C -->
<g id="edge17" class="edge">
<title>0__sample-graph__edges__target-&gt;0__sample-graph__edges__target__C</title>
<path fill="none" stroke="#000000" stroke-width="2" d="M306.3098,-90.6788C321.7853,-86.8361 339.918,-82.3336 354.503,-78.7121"/>
</g>
<!-- 0__sample&#45;graph__edges__target__B -->
<g id="node19" class="node">
<title>0__sample-graph__edges__target__B</title>
<path fill="none" stroke="#000000" stroke-width="2" d="M396.5345,-36C396.5345,-36 366.5345,-36 366.5345,-36 360.5345,-36 354.5345,-30 354.5345,-24 354.5345,-24 354.5345,-12 354.5345,-12 354.5345,-6 360.5345,0 366.5345,0 366.5345,0 396.5345,0 396.5345,0 402.5345,0 408.5345,-6 408.5345,-12 408.5345,-12 408.5345,-24 408.5345,-24 408.5345,-30 402.5345,-36 396.5345,-36"/>
<text text-anchor="middle" x="381.5345" y="-15" font-family="Fira Mono" font-size="10.00" fill="#000000">B</text>
</g>
<!-- 0__sample&#45;graph__edges__target&#45;&gt;0__sample&#45;graph__edges__target__B -->
<g id="edge18" class="edge">
<title>0__sample-graph__edges__target-&gt;0__sample-graph__edges__target__B</title>
<path fill="none" stroke="#000000" stroke-width="2" d="M296.3547,-80.8318C310.1276,-70.2758 327.8896,-56.7758 343.846,-45 347.7318,-42.1323 351.8664,-39.1257 355.9197,-36.2028"/>
</g>
</g>
</svg>