<?xml version="1.0" encoding="UTF-8" standalone="no"?>
<!DOCTYPE svg PUBLIC "-//W3C//DTD SVG 1.1//EN" "http://www.w3.org/Graphics/SVG/1.1/DTD/svg11.dtd">
<!-- Generated by graphviz version 2.40.1 (20161225.0304)
 -->
<!-- Title: %0 Pages: 1 -->
<svg width="181pt" height="152pt" viewBox="0.00 0.00 181.42 152.00" xmlns="http://www.w3.org/2000/svg" xmlns:xlink="http://www.w3.org/1999/xlink">
<g id="graph0" class="graph" transform="scale(1 1) rotate(0) translate(4 148)">
<title>%0</title>
<polygon fill="#ffffff" stroke="transparent" points="-4,4 -4,-148 177.422,-148 177.422,4 -4,4"/>
<!-- 0__fruits -->
<g id="node1" class="node">
<title>0__fruits</title>
<path fill="none" stroke="#000000" stroke-width="2" d="M53.1576,-90C53.1576,-90 11.9474,-90 11.9474,-90 5.9474,-90 -.0526,-84 -.0526,-78 -.0526,-78 -.0526,-66 -.0526,-66 -.0526,-60 5.9474,-54 11.9474,-54 11.9474,-54 53.1576,-54 53.1576,-54 59.1576,-54 65.1576,-60 65.1576,-66 65.1576,-66 65.1576,-78 65.1576,-78 65.1576,-84 59.1576,-90 53.1576,-90"/>
<text text-anchor="middle" x="32.5525" y="-69" font-family="Fira Mono" font-size="10.00" fill="#000000">fruits</text>
</g>
<!-- 0__fruits__orange -->
<g id="node2" class="node">
<title>0__fruits__orange</title>
<path fill="none" stroke="#000000" stroke-width="2" d="M160.9708,-144C160.9708,-144 113.5562,-144 113.5562,-144 107.5562,-144 101.5562,-138 101.5562,-132 101.5562,-132 101.5562,-120 101.5562,-120 101.5562,-114 107.5562,-108 113.5562,-108 113.5562,-108 160.9708,-108 160.9708,-108 166.9708,-108 172.9708,-114 172.9708,-120 172.9708,-120 172.9708,-132 172.9708,-132 172.9708,-138 166.9708,-144 160.9708,-144"/>
<text text-anchor="middle" x="137.2635" y="-123" font-family="Fira Mono" font-size="10.00" fill="#000000">orange</text>
</g>
<!-- 0__fruits&#45;&gt;0__fruits__orange -->
<g id="edge1" class="edge">
<title>0__fruits-&gt;0__fruits__orange</title>
<path fill="none" stroke="#000000" stroke-width="2" d="M65.1097,-88.7899C76.8767,-94.8582 90.2084,-101.7334 102.1824,-107.9085"/>
</g>
<!-- 0__fruits__banana -->
<g id="node3" class="node">
<title>0__fruits__banana</title>
<path fill="none" stroke="#000000" stroke-width="2" d="M161.5812,-90C161.5812,-90 112.9458,-90 112.9458,-90 106.9458,-90 100.9458,-84 100.9458,-78 100.9458,-78 100.9458,-66 100.9458,-66 100.9458,-60 106.9458,-54 112.9458,-54 112.9458,-54 161.5812,-54 161.5812,-54 167.5812,-54 173.5812,-60 173.5812,-66 173.5812,-66 173.5812,-78 173.5812,-78 173.5812,-84 167.5812,-90 161.5812,-90"/>
<text text-anchor="middle" x="137.2635" y="-69" font-family="Fira Mono" font-size="10.00" fill="#000000">banana</text>
</g>
<!-- 0__fruits&#45;&gt;0__fruits__banana -->
<g id="edge2" class="edge">
<title>0__fruits-&gt;0__fruits__banana</title>
<path fill="none" stroke="#000000" stroke-width="2" d="M65.1097,-72C76.5165,-72 89.3936,-72 101.079,-72"/>
</g>
<!-- 0__fruits__apple -->
<g id="node4" class="node">
<title>0__fruits__apple</title>
<path fill="none" stroke="#000000" stroke-width="2" d="M157.9214,-36C157.9214,-36 116.6056,-36 116.6056,-36 110.6056,-36 104.6056,-30 104.6056,-24 104.6056,-24 104.6056,-12 104.6056,-12 104.6056,-6 110.6056,0 116.6056,0 116.6056,0 157.9214,0 157.9214,0 163.9214,0 169.9214,-6 169.9214,-12 169.9214,-12 169.9214,-24 169.9214,-24 169.9214,-30 163.9214,-36 157.9214,-36"/>
<text text-anchor="middle" x="137.2635" y="-15" font-family="Fira Mono" font-size="10.00" fill="#000000">apple</text>
</g>
<!-- 0__fruits&#45;&gt;0__fruits__apple -->
<g id="edge3" class="edge">
<title>0__fruits-&gt;0__fruits__apple</title>
<path fill="none" stroke="#000000" stroke-width="2" d="M65.1097,-55.2101C77.5971,-48.7703 91.8467,-41.4217 104.3658,-34.9655"/>
</g>
</g>
</svg>