<?xml version="1.0" encoding="UTF-8" standalone="no"?>
<!DOCTYPE svg PUBLIC "-//W3C//DTD SVG 1.1//EN" "http://www.w3.org/Graphics/SVG/1.1/DTD/svg11.dtd">
<!-- Generated by graphviz version 2.40.1 (20161225.0304)
 -->
<!-- Title: %0 Pages: 1 -->
<svg width="181pt" height="152pt" viewBox="0.00 0.00 181.42 152.00" xmlns="http://www.w3.org/2000/svg" xmlns:xlink="http://www.w3.org/1999/xlink">
<g id="graph0" class="graph" transform="scale(1 1) rotate(0) translate(4 148)">
<title>%0</title>
<polygon fill="#ffffff" stroke="transparent" points="-4,4 -4,-148 177.422,-148 177.422,4 -4,4"/>
<!-- fruits -->
<g id="node1" class="node">
<title>fruits</title>
<path fill="none" stroke="#000000" stroke-width="2" d="M53.1576,-90C53.1576,-90 11.9474,-90 11.9474,-90 5.9474,-90 -.0526,-84 -.0526,-78 -.0526,-78 -.0526,-66 -.0526,-66 -.0526,-60 5.9474,-54 11.9474,-54 11.9474,-54 53.1576,-54 53.1576,-54 59.1576,-54 65.1576,-60 65.1576,-66 65.1576,-66 65.1576,-78 65.1576,-78 65.1576,-84 59.1576,-90 53.1576,-90"/>
<text text-anchor="middle" x="32.5525" y="-69" font-family="Fira Mono" font-size="10.00" fill="#000000">fruits</text>
</g>
<!-- fruits__apple -->
<g id="node2" class="node">
<title>fruits__apple</title>
<path fill="none" stroke="#000000" stroke-width="2" d="M157.9214,-144C157.9214,-144 116.6056,-144 116.6056,-144 110.6056,-144 104.6056,-138 104.6056,-132 104.6056,-132 104.6056,-120 104.6056,-120 104.6056,-114 110.6056,-108 116.6056,-108 116.6056,-108 157.9214,-108 157.9214,-108 163.9214,-108 169.9214,-114 169.9214,-120 169.9214,-120 169.9214,-132 169.9214,-132 169.9214,-138 163.9214,-144 157.9214,-144"/>
<text text-anchor="middle" x="137.2635" y="-123" font-family="Fira Mono" font-size="10.00" fill="#000000">apple</text>
</g>
<!-- fruits&#45;&gt;fruits__apple -->
<g id="edge1" class="edge">
<title>fruits-&gt;fruits__apple</title>
<path fill="none" stroke="#000000" stroke-width="2" d="M65.1097,-88.7899C77.5971,-95.2297 91.8467,-102.5783 104.3658,-109.0345"/>
</g>
<!-- fruits__banana -->
<g id="node3" class="node">
<title>fruits__banana</title>
<path fill="none" stroke="#000000" stroke-width="2" d="M161.5812,-90C161.5812,-90 112.9458,-90 112.9458,-90 106.9458,-90 100.9458,-84 100.9458,-78 100.9458,-78 100.9458,-66 100.9458,-66 100.9458,-60 106.9458,-54 112.9458,-54 112.9458,-54 161.5812,-54 161.5812,-54 167.5812,-54 173.5812,-60 173.5812,-66 173.5812,-66 173.5812,-78 173.5812,-78 173.5812,-84 167.5812,-90 161.5812,-90"/>
<text text-anchor="middle" x="137.2635" y="-69" font-family="Fira Mono" font-size="10.00" fill="#000000">banana</text>
</g>
<!-- fruits&#45;&gt;fruits__banana -->
<g id="edge2" class="edge">
<title>fruits-&gt;fruits__banana</title>
<path fill="none" stroke="#000000" stroke-width="2" d="M65.1097,-72C76.5165,-72 89.3936,-72 101.079,-72"/>
</g>
<!-- fruits__orange -->
<g id="node4" class="node">
<title>fruits__orange</title>
<path fill="none" stroke="#000000" stroke-width="2" d="M160.9708,-36C160.9708,-36 113.5562,-36 113.5562,-36 107.5562,-36 101.5562,-30 101.5562,-24 101.5562,-24 101.5562,-12 101.5562,-12 101.5562,-6 107.5562,0 113.5562,0 113.5562,0 160.9708,0 160.9708,0 166.9708,0 172.9708,-6 172.9708,-12 172.9708,-12 172.9708,-24 172.9708,-24 172.9708,-30 166.9708,-36 160.9708,-36"/>
<text text-anchor="middle" x="137.2635" y="-15" font-family="Fira Mono" font-size="10.00" fill="#000000">orange</text>
</g>
<!-- fruits&#45;&gt;fruits__orange -->
<g id="edge3" class="edge">
<title>fruits-&gt;fruits__orange</title>
<path fill="none" stroke="#000000" stroke-width="2" d="M65.1097,-55.2101C76.8767,-49.1418 90.2084,-42.2666 102.1824,-36.0915"/>
</g>
</g>
</svg>