<?xml version="1.0" encoding="UTF-8" standalone="no"?>
<!DOCTYPE svg PUBLIC "-//W3C//DTD SVG 1.1//EN" "http://www.w3.org/Graphics/SVG/1.1/DTD/svg11.dtd">
<!-- Generated by graphviz version 2.40.1 (20161225.0304)
 -->
<!-- Title: %0 Pages: 1 -->
<svg width="372pt" height="368pt" viewBox="0.00 0.00 372.01 368.00" xmlns="http://www.w3.org/2000/svg" xmlns:xlink="http://www.w3.org/1999/xlink">
<g id="graph0" class="graph" transform="scale(1 1) rotate(0) translate(4 364)">
<title>%0</title>
<polygon fill="#ffffff" stroke="transparent" points="-4,4 -4,-364 368.011,-364 368.011,4 -4,4"/>
<!-- name -->
<g id="node1" class="node">
<title>name</title>
<path fill="none" stroke="#000000" stroke-width="2" d="M57.6504,-36C57.6504,-36 16.3346,-36 16.3346,-36 10.3346,-36 4.3346,-30 4.3346,-24 4.3346,-24 4.3346,-12 4.3346,-12 4.3346,-6 10.3346,0 16.3346,0 16.3346,0 57.6504,0 57.6504,0 63.6504,0 69.6504,-6 69.6504,-12 69.6504,-12 69.6504,-24 69.6504,-24 69.6504,-30 63.6504,-36 57.6504,-36"/>
<text text-anchor="middle" x="36.9925" y="-15" font-family="Fira Mono" font-size="10.00" fill="#000000">name</text>
</g>
<!-- name__John Doe -->
<g id="node2" class="node">
<title>name__John Doe</title>
<path fill="none" stroke="#000000" stroke-width="2" d="M201.3225,-36C201.3225,-36 143.2285,-36 143.2285,-36 137.2285,-36 131.2285,-30 131.2285,-24 131.2285,-24 131.2285,-12 131.2285,-12 131.2285,-6 137.2285,0 143.2285,0 143.2285,0 201.3225,0 201.3225,0 207.3225,0 213.3225,-6 213.3225,-12 213.3225,-12 213.3225,-24 213.3225,-24 213.3225,-30 207.3225,-36 201.3225,-36"/>
<text text-anchor="middle" x="172.2755" y="-15" font-family="Fira Mono" font-size="10.00" fill="#000000">John Doe</text>
</g>
<!-- name&#45;&gt;name__John Doe -->
<g id="edge1" class="edge">
<title>name-&gt;name__John Doe</title>
<path fill="none" stroke="#000000" stroke-width="2" d="M69.7407,-18C88.1955,-18 111.4221,-18 131.1006,-18"/>
</g>
<!-- age -->
<g id="node3" class="node">
<title>age</title>
<path fill="none" stroke="#000000" stroke-width="2" d="M53.8706,-90C53.8706,-90 20.1144,-90 20.1144,-90 14.1144,-90 8.1144,-84 8.1144,-78 8.1144,-78 8.1144,-66 8.1144,-66 8.1144,-60 14.1144,-54 20.1144,-54 20.1144,-54 53.8706,-54 53.8706,-54 59.8706,-54 65.8706,-60 65.8706,-66 65.8706,-66 65.8706,-78 65.8706,-78 65.8706,-84 59.8706,-90 53.8706,-90"/>
<text text-anchor="middle" x="36.9925" y="-69" font-family="Fira Mono" font-size="10.00" fill="#000000">age</text>
</g>
<!-- age__30 -->
<g id="node4" class="node">
<title>age__30</title>
<path fill="none" stroke="#000000" stroke-width="2" d="M187.2755,-90C187.2755,-90 157.2755,-90 157.2755,-90 151.2755,-90 145.2755,-84 145.2755,-78 145.2755,-78 145.2755,-66 145.2755,-66 145.2755,-60 151.2755,-54 157.2755,-54 157.2755,-54 187.2755,-54 187.2755,-54 193.2755,-54 199.2755,-60 199.2755,-66 199.2755,-66 199.2755,-78 199.2755,-78 199.2755,-84 193.2755,-90 187.2755,-90"/>
<text text-anchor="middle" x="172.2755" y="-69" font-family="Fira Mono" font-size="10.00" fill="#000000">30</text>
</g>
<!-- age&#45;&gt;age__30 -->
<g id="edge2" class="edge">
<title>age-&gt;age__30</title>
<path fill="none" stroke="#000000" stroke-width="2" d="M66.0141,-72C89.4607,-72 122.2177,-72 145.1442,-72"/>
</g>
<!-- address -->
<g id="node5" class="node">
<title>address</title>
<path fill="none" stroke="#000000" stroke-width="2" d="M61.9775,-198C61.9775,-198 12.0075,-198 12.0075,-198 6.0075,-198 .0075,-192 .0075,-186 .0075,-186 .0075,-174 .0075,-174 .0075,-168 6.0075,-162 12.0075,-162 12.0075,-162 61.9775,-162 61.9775,-162 67.9775,-162 73.9775,-168 73.9775,-174 73.9775,-174 73.9775,-186 73.9775,-186 73.9775,-192 67.9775,-198 61.9775,-198"/>
<text text-anchor="middle" x="36.9925" y="-177" font-family="Fira Mono" font-size="10.00" fill="#000000">address</text>
</g>
<!-- address__street -->
<g id="node7" class="node">
<title>address__street</title>
<path fill="none" stroke="#000000" stroke-width="2" d="M192.9304,-252C192.9304,-252 151.6206,-252 151.6206,-252 145.6206,-252 139.6206,-246 139.6206,-240 139.6206,-240 139.6206,-228 139.6206,-228 139.6206,-222 145.6206,-216 151.6206,-216 151.6206,-216 192.9304,-216 192.9304,-216 198.9304,-216 204.9304,-222 204.9304,-228 204.9304,-228 204.9304,-240 204.9304,-240 204.9304,-246 198.9304,-252 192.9304,-252"/>
<text text-anchor="middle" x="172.2755" y="-231" font-family="Fira Mono" font-size="10.00" fill="#000000">street</text>
</g>
<!-- address&#45;&gt;address__street -->
<g id="edge3" class="edge">
<title>address-&gt;address__street</title>
<path fill="none" stroke="#000000" stroke-width="2" d="M74.3173,-194.8987C94.6516,-203.0154 119.5947,-212.9718 139.2221,-220.8063"/>
</g>
<!-- address__city -->
<g id="node9" class="node">
<title>address__city</title>
<path fill="none" stroke="#000000" stroke-width="2" d="M189.7725,-198C189.7725,-198 154.7785,-198 154.7785,-198 148.7785,-198 142.7785,-192 142.7785,-186 142.7785,-186 142.7785,-174 142.7785,-174 142.7785,-168 148.7785,-162 154.7785,-162 154.7785,-162 189.7725,-162 189.7725,-162 195.7725,-162 201.7725,-168 201.7725,-174 201.7725,-174 201.7725,-186 201.7725,-186 201.7725,-192 195.7725,-198 189.7725,-198"/>
<text text-anchor="middle" x="172.2755" y="-177" font-family="Fira Mono" font-size="10.00" fill="#000000">city</text>
</g>
<!-- address&#45;&gt;address__city -->
<g id="edge4" class="edge">
<title>address-&gt;address__city</title>
<path fill="none" stroke="#000000" stroke-width="2" d="M74.3173,-180C95.7465,-180 122.2943,-180 142.3449,-180"/>
</g>
<!-- address__zip -->
<g id="node11" class="node">
<title>address__zip</title>
<path fill="none" stroke="#000000" stroke-width="2" d="M188.4939,-144C188.4939,-144 156.0571,-144 156.0571,-144 150.0571,-144 144.0571,-138 144.0571,-132 144.0571,-132 144.0571,-120 144.0571,-120 144.0571,-114 150.0571,-108 156.0571,-108 156.0571,-108 188.4939,-108 188.4939,-108 194.4939,-108 200.4939,-114 200.4939,-120 200.4939,-120 200.4939,-132 200.4939,-132 200.4939,-138 194.4939,-144 188.4939,-144"/>
<text text-anchor="middle" x="172.2755" y="-123" font-family="Fira Mono" font-size="10.00" fill="#000000">zip</text>
</g>
<!-- address&#45;&gt;address__zip -->
<g id="edge5" class="edge">
<title>address-&gt;address__zip</title>
<path fill="none" stroke="#000000" stroke-width="2" d="M74.3173,-165.1013C96.3722,-156.2978 123.8489,-145.3301 144.0843,-137.2529"/>
</g>
<!-- emails -->
<g id="node6" class="node">
<title>emails</title>
<path fill="none" stroke="#000000" stroke-width="2" d="M60.0966,-333C60.0966,-333 13.8884,-333 13.8884,-333 7.8884,-333 1.8884,-327 1.8884,-321 1.8884,-321 1.8884,-309 1.8884,-309 1.8884,-303 7.8884,-297 13.8884,-297 13.8884,-297 60.0966,-297 60.0966,-297 66.0966,-297 72.0966,-303 72.0966,-309 72.0966,-309 72.0966,-321 72.0966,-321 72.0966,-327 66.0966,-333 60.0966,-333"/>
<text text-anchor="middle" x="36.9925" y="-312" font-family="Fira Mono" font-size="10.00" fill="#000000">emails</text>
</g>
<!-- emails__john@example.com -->
<g id="node13" class="node">
<title>emails__john@example.com</title>
<path fill="none" stroke="#000000" stroke-width="2" d="M222.3572,-360C222.3572,-360 122.1938,-360 122.1938,-360 116.1938,-360 110.1938,-354 110.1938,-348 110.1938,-348 110.1938,-336 110.1938,-336 110.1938,-330 116.1938,-324 122.1938,-324 122.1938,-324 222.3572,-324 222.3572,-324 228.3572,-324 234.3572,-330 234.3572,-336 234.3572,-336 234.3572,-348 234.3572,-348 234.3572,-354 228.3572,-360 222.3572,-360"/>
<text text-anchor="middle" x="172.2755" y="-339" font-family="Fira Mono" font-size="10.00" fill="#000000">john@example.com</text>
</g>
<!-- emails&#45;&gt;emails__john@example.com -->
<g id="edge6" class="edge">
<title>emails-&gt;emails__john@example.com</title>
<path fill="none" stroke="#000000" stroke-width="2" d="M72.1834,-322.0234C83.7701,-324.3359 97.0216,-326.9807 110.0074,-329.5724"/>
</g>
<!-- emails__jane@example.com -->
<g id="node14" class="node">
<title>emails__jane@example.com</title>
<path fill="none" stroke="#000000" stroke-width="2" d="M222.2354,-306C222.2354,-306 122.3156,-306 122.3156,-306 116.3156,-306 110.3156,-300 110.3156,-294 110.3156,-294 110.3156,-282 110.3156,-282 110.3156,-276 116.3156,-270 122.3156,-270 122.3156,-270 222.2354,-270 222.2354,-270 228.2354,-270 234.2354,-276 234.2354,-282 234.2354,-282 234.2354,-294 234.2354,-294 234.2354,-300 228.2354,-306 222.2354,-306"/>
<text text-anchor="middle" x="172.2755" y="-285" font-family="Fira Mono" font-size="10.00" fill="#000000">jane@example.com</text>
</g>
<!-- emails&#45;&gt;emails__jane@example.com -->
<g id="edge7" class="edge">
<title>emails-&gt;emails__jane@example.com</title>
<path fill="none" stroke="#000000" stroke-width="2" d="M72.1834,-307.9766C83.9266,-305.6328 97.3801,-302.9478 110.5337,-300.3225"/>
</g>
<!-- address__street__123 Main St -->
<g id="node8" class="node">
<title>address__street__123 Main St</title>
<path fill="none" stroke="#000000" stroke-width="2" d="M352.2346,-252C352.2346,-252 282.3424,-252 282.3424,-252 276.3424,-252 270.3424,-246 270.3424,-240 270.3424,-240 270.3424,-228 270.3424,-228 270.3424,-222 276.3424,-216 282.3424,-216 282.3424,-216 352.2346,-216 352.2346,-216 358.2346,-216 364.2346,-222 364.2346,-228 364.2346,-228 364.2346,-240 364.2346,-240 364.2346,-246 358.2346,-252 352.2346,-252"/>
<text text-anchor="middle" x="317.2885" y="-231" font-family="Fira Mono" font-size="10.00" fill="#000000">123 Main St</text>
</g>
<!-- address__street&#45;&gt;address__street__123 Main St -->
<g id="edge8" class="edge">
<title>address__street-&gt;address__street__123 Main St</title>
<path fill="none" stroke="#000000" stroke-width="2" d="M205.1812,-234C224.4845,-234 249.1898,-234 270.4932,-234"/>
</g>
<!-- address__city__Anytown -->
<g id="node10" class="node">
<title>address__city__Anytown</title>
<path fill="none" stroke="#000000" stroke-width="2" d="M346.0058,-198C346.0058,-198 288.5712,-198 288.5712,-198 282.5712,-198 276.5712,-192 276.5712,-186 276.5712,-186 276.5712,-174 276.5712,-174 276.5712,-168 282.5712,-162 288.5712,-162 288.5712,-162 346.0058,-162 346.0058,-162 352.0058,-162 358.0058,-168 358.0058,-174 358.0058,-174 358.0058,-186 358.0058,-186 358.0058,-192 352.0058,-198 346.0058,-198"/>
<text text-anchor="middle" x="317.2885" y="-177" font-family="Fira Mono" font-size="10.00" fill="#000000">Anytown</text>
</g>
<!-- address__city&#45;&gt;address__city__Anytown -->
<g id="edge9" class="edge">
<title>address__city-&gt;address__city__Anytown</title>
<path fill="none" stroke="#000000" stroke-width="2" d="M201.971,-180C223.5152,-180 252.9159,-180 276.6381,-180"/>
</g>
<!-- address__zip__12345 -->
<g id="node12" class="node">
<title>address__zip__12345</title>
<path fill="none" stroke="#000000" stroke-width="2" d="M339.7885,-144C339.7885,-144 294.7885,-144 294.7885,-144 288.7885,-144 282.7885,-138 282.7885,-132 282.7885,-132 282.7885,-120 282.7885,-120 282.7885,-114 288.7885,-108 294.7885,-108 294.7885,-108 339.7885,-108 339.7885,-108 345.7885,-108 351.7885,-114 351.7885,-120 351.7885,-120 351.7885,-132 351.7885,-132 351.7885,-138 345.7885,-144 339.7885,-144"/>
<text text-anchor="middle" x="317.2885" y="-123" font-family="Fira Mono" font-size="10.00" fill="#000000">12345</text>
</g>
<!-- address__zip&#45;&gt;address__zip__12345 -->
<g id="edge10" class="edge">
<title>address__zip-&gt;address__zip__12345</title>
<path fill="none" stroke="#000000" stroke-width="2" d="M200.5797,-126C224.0707,-126 257.5717,-126 282.6601,-126"/>
</g>
</g>
</svg>