<?xml version="1.0" encoding="UTF-8" standalone="no"?>
<!DOCTYPE svg PUBLIC "-//W3C//DTD SVG 1.1//EN" "http://www.w3.org/Graphics/SVG/1.1/DTD/svg11.dtd">
<!-- Generated by graphviz version 2.40.1 (20161225.0304)
 -->
<!-- Title: %0 Pages: 1 -->
<svg width="372pt" height="368pt" viewBox="0.00 0.00 372.01 368.00" xmlns="http://www.w3.org/2000/svg" xmlns:xlink="http://www.w3.org/1999/xlink">
<g id="graph0" class="graph" transform="scale(1 1) rotate(0) translate(4 364)">
<title>%0</title>
<polygon fill="#ffffff" stroke="transparent" points="-4,4 -4,-364 368.011,-364 368.011,4 -4,4"/>
<!-- 0__emails -->
<g id="node1" class="node">
<title>0__emails</title>
<path fill="none" stroke="#000000" stroke-width="2" d="M60.0966,-63C60.0966,-63 13.8884,-63 13.8884,-63 7.8884,-63 1.8884,-57 1.8884,-51 1.8884,-51 1.8884,-39 1.8884,-39 1.8884,-33 7.8884,-27 13.8884,-27 13.8884,-27 60.0966,-27 60.0966,-27 66.0966,-27 72.0966,-33 72.0966,-39 72.0966,-39 72.0966,-51 72.0966,-51 72.0966,-57 66.0966,-63 60.0966,-63"/>
<text text-anchor="middle" x="36.9925" y="-42" font-family="Fira Mono" font-size="10.00" fill="#000000">emails</text>
</g>
<!-- 0__emails__jane@example.com -->
<g id="node7" class="node">
<title>0__emails__jane@example.com</title>
<path fill="none" stroke="#000000" stroke-width="2" d="M222.2354,-90C222.2354,-90 122.3156,-90 122.3156,-90 116.3156,-90 110.3156,-84 110.3156,-78 110.3156,-78 110.3156,-66 110.3156,-66 110.3156,-60 116.3156,-54 122.3156,-54 122.3156,-54 222.2354,-54 222.2354,-54 228.2354,-54 234.2354,-60 234.2354,-66 234.2354,-66 234.2354,-78 234.2354,-78 234.2354,-84 228.2354,-90 222.2354,-90"/>
<text text-anchor="middle" x="172.2755" y="-69" font-family="Fira Mono" font-size="10.00" fill="#000000">jane@example.com</text>
</g>
<!-- 0__emails&#45;&gt;0__emails__jane@example.com -->
<g id="edge1" class="edge">
<title>0__emails-&gt;0__emails__jane@example.com</title>
<path fill="none" stroke="#000000" stroke-width="2" d="M72.1834,-52.0234C83.9266,-54.3672 97.3801,-57.0522 110.5337,-59.6775"/>
</g>
<!-- 0__emails__john@example.com -->
<g id="node8" class="node">
<title>0__emails__john@example.com</title>
<path fill="none" stroke="#000000" stroke-width="2" d="M222.3572,-36C222.3572,-36 122.1938,-36 122.1938,-36 116.1938,-36 110.1938,-30 110.1938,-24 110.1938,-24 110.1938,-12 110.1938,-12 110.1938,-6 116.1938,0 122.1938,0 122.1938,0 222.3572,0 222.3572,0 228.3572,0 234.3572,-6 234.3572,-12 234.3572,-12 234.3572,-24 234.3572,-24 234.3572,-30 228.3572,-36 222.3572,-36"/>
<text text-anchor="middle" x="172.2755" y="-15" font-family="Fira Mono" font-size="10.00" fill="#000000">john@example.com</text>
</g>
<!-- 0__emails&#45;&gt;0__emails__john@example.com -->
<g id="edge2" class="edge">
<title>0__emails-&gt;0__emails__john@example.com</title>
<path fill="none" stroke="#000000" stroke-width="2" d="M72.1834,-37.9766C83.7701,-35.6641 97.0216,-33.0193 110.0074,-30.4276"/>
</g>
<!-- 0__address -->
<g id="node2" class="node">
<title>0__address</title>
<path fill="none" stroke="#000000" stroke-width="2" d="M61.9775,-198C61.9775,-198 12.0075,-198 12.0075,-198 6.0075,-198 .0075,-192 .0075,-186 .0075,-186 .0075,-174 .0075,-174 .0075,-168 6.0075,-162 12.0075,-162 12.0075,-162 61.9775,-162 61.9775,-162 67.9775,-162 73.9775,-168 73.9775,-174 73.9775,-174 73.9775,-186 73.9775,-186 73.9775,-192 67.9775,-198 61.9775,-198"/>
<text text-anchor="middle" x="36.9925" y="-177" font-family="Fira Mono" font-size="10.00" fill="#000000">address</text>
</g>
<!-- 0__address__street -->
<g id="node9" class="node">
<title>0__address__street</title>
<path fill="none" stroke="#000000" stroke-width="2" d="M192.9304,-252C192.9304,-252 151.6206,-252 151.6206,-252 145.6206,-252 139.6206,-246 139.6206,-240 139.6206,-240 139.6206,-228 139.6206,-228 139.6206,-222 145.6206,-216 151.6206,-216 151.6206,-216 192.9304,-216 192.9304,-216 198.9304,-216 204.9304,-222 204.9304,-228 204.9304,-228 204.9304,-240 204.9304,-240 204.9304,-246 198.9304,-252 192.9304,-252"/>
<text text-anchor="middle" x="172.2755" y="-231" font-family="Fira Mono" font-size="10.00" fill="#000000">street</text>
</g>
<!-- 0__address&#45;&gt;0__address__street -->
<g id="edge3" class="edge">
<title>0__address-&gt;0__address__street</title>
<path fill="none" stroke="#000000" stroke-width="2" d="M74.3173,-194.8987C94.6516,-203.0154 119.5947,-212.9718 139.2221,-220.8063"/>
</g>
<!-- 0__address__city -->
<g id="node11" class="node">
<title>0__address__city</title>
<path fill="none" stroke="#000000" stroke-width="2" d="M189.7725,-198C189.7725,-198 154.7785,-198 154.7785,-198 148.7785,-198 142.7785,-192 142.7785,-186 142.7785,-186 142.7785,-174 142.7785,-174 142.7785,-168 148.7785,-162 154.7785,-162 154.7785,-162 189.7725,-162 189.7725,-162 195.7725,-162 201.7725,-168 201.7725,-174 201.7725,-174 201.7725,-186 201.7725,-186 201.7725,-192 195.7725,-198 189.7725,-198"/>
<text text-anchor="middle" x="172.2755" y="-177" font-family="Fira Mono" font-size="10.00" fill="#000000">city</text>
</g>
<!-- 0__address&#45;&gt;0__address__city -->
<g id="edge4" class="edge">
<title>0__address-&gt;0__address__city</title>
<path fill="none" stroke="#000000" stroke-width="2" d="M74.3173,-180C95.7465,-180 122.2943,-180 142.3449,-180"/>
</g>
<!-- 0__address__zip -->
<g id="node13" class="node">
<title>0__address__zip</title>
<path fill="none" stroke="#000000" stroke-width="2" d="M188.4939,-144C188.4939,-144 156.0571,-144 156.0571,-144 150.0571,-144 144.0571,-138 144.0571,-132 144.0571,-132 144.0571,-120 144.0571,-120 144.0571,-114 150.0571,-108 156.0571,-108 156.0571,-108 188.4939,-108 188.4939,-108 194.4939,-108 200.4939,-114 200.4939,-120 200.4939,-120 200.4939,-132 200.4939,-132 200.4939,-138 194.4939,-144 188.4939,-144"/>
<text text-anchor="middle" x="172.2755" y="-123" font-family="Fira Mono" font-size="10.00" fill="#000000">zip</text>
</g>
<!-- 0__address&#45;&gt;0__address__zip -->
<g id="edge5" class="edge">
<title>0__address-&gt;0__address__zip</title>
<path fill="none" stroke="#000000" stroke-width="2" d="M74.3173,-165.1013C96.3722,-156.2978 123.8489,-145.3301 144.0843,-137.2529"/>
</g>
<!-- 0__age -->
<g id="node3" class="node">
<title>0__age</title>
<path fill="none" stroke="#000000" stroke-width="2" d="M53.8706,-306C53.8706,-306 20.1144,-306 20.1144,-306 14.1144,-306 8.1144,-300 8.1144,-294 8.1144,-294 8.1144,-282 8.1144,-282 8.1144,-276 14.1144,-270 20.1144,-270 20.1144,-270 53.8706,-270 53.8706,-270 59.8706,-270 65.8706,-276 65.8706,-282 65.8706,-282 65.8706,-294 65.8706,-294 65.8706,-300 59.8706,-306 53.8706,-306"/>
<text text-anchor="middle" x="36.9925" y="-285" font-family="Fira Mono" font-size="10.00" fill="#000000">age</text>
</g>
<!-- 0__age__30 -->
<g id="node4" class="node">
<title>0__age__30</title>
<path fill="none" stroke="#000000" stroke-width="2" d="M187.2755,-306C187.2755,-306 157.2755,-306 157.2755,-306 151.2755,-306 145.2755,-300 145.2755,-294 145.2755,-294 145.2755,-282 145.2755,-282 145.2755,-276 151.2755,-270 157.2755,-270 157.2755,-270 187.2755,-270 187.2755,-270 193.2755,-270 199.2755,-276 199.2755,-282 199.2755,-282 199.2755,-294 199.2755,-294 199.2755,-300 193.2755,-306 187.2755,-306"/>
<text text-anchor="middle" x="172.2755" y="-285" font-family="Fira Mono" font-size="10.00" fill="#000000">30</text>
</g>
<!-- 0__age&#45;&gt;0__age__30 -->
<g id="edge6" class="edge">
<title>0__age-&gt;0__age__30</title>
<path fill="none" stroke="#000000" stroke-width="2" d="M66.0141,-288C89.4607,-288 122.2177,-288 145.1442,-288"/>
</g>
<!-- 0__name -->
<g id="node5" class="node">
<title>0__name</title>
<path fill="none" stroke="#000000" stroke-width="2" d="M57.6504,-360C57.6504,-360 16.3346,-360 16.3346,-360 10.3346,-360 4.3346,-354 4.3346,-348 4.3346,-348 4.3346,-336 4.3346,-336 4.3346,-330 10.3346,-324 16.3346,-324 16.3346,-324 57.6504,-324 57.6504,-324 63.6504,-324 69.6504,-330 69.6504,-336 69.6504,-336 69.6504,-348 69.6504,-348 69.6504,-354 63.6504,-360 57.6504,-360"/>
<text text-anchor="middle" x="36.9925" y="-339" font-family="Fira Mono" font-size="10.00" fill="#000000">name</text>
</g>
<!-- 0__name__John Doe -->
<g id="node6" class="node">
<title>0__name__John Doe</title>
<path fill="none" stroke="#000000" stroke-width="2" d="M201.3225,-360C201.3225,-360 143.2285,-360 143.2285,-360 137.2285,-360 131.2285,-354 131.2285,-348 131.2285,-348 131.2285,-336 131.2285,-336 131.2285,-330 137.2285,-324 143.2285,-324 143.2285,-324 201.3225,-324 201.3225,-324 207.3225,-324 213.3225,-330 213.3225,-336 213.3225,-336 213.3225,-348 213.3225,-348 213.3225,-354 207.3225,-360 201.3225,-360"/>
<text text-anchor="middle" x="172.2755" y="-339" font-family="Fira Mono" font-size="10.00" fill="#000000">John Doe</text>
</g>
<!-- 0__name&#45;&gt;0__name__John Doe -->
<g id="edge7" class="edge">
<title>0__name-&gt;0__name__John Doe</title>
<path fill="none" stroke="#000000" stroke-width="2" d="M69.7407,-342C88.1955,-342 111.4221,-342 131.1006,-342"/>
</g>
<!-- 0__address__street__123 Main St -->
<g id="node10" class="node">
<title>0__address__street__123 Main St</title>
<path fill="none" stroke="#000000" stroke-width="2" d="M352.2346,-252C352.2346,-252 282.3424,-252 282.3424,-252 276.3424,-252 270.3424,-246 270.3424,-240 270.3424,-240 270.3424,-228 270.3424,-228 270.3424,-222 276.3424,-216 282.3424,-216 282.3424,-216 352.2346,-216 352.2346,-216 358.2346,-216 364.2346,-222 364.2346,-228 364.2346,-228 364.2346,-240 364.2346,-240 364.2346,-246 358.2346,-252 352.2346,-252"/>
<text text-anchor="middle" x="317.2885" y="-231" font-family="Fira Mono" font-size="10.00" fill="#000000">123 Main St</text>
</g>
<!-- 0__address__street&#45;&gt;0__address__street__123 Main St -->
<g id="edge8" class="edge">
<title>0__address__street-&gt;0__address__street__123 Main St</title>
<path fill="none" stroke="#000000" stroke-width="2" d="M205.1812,-234C224.4845,-234 249.1898,-234 270.4932,-234"/>
</g>
<!-- 0__address__city__Anytown -->
<g id="node12" class="node">
<title>0__address__city__Anytown</title>
<path fill="none" stroke="#000000" stroke-width="2" d="M346.0058,-198C346.0058,-198 288.5712,-198 288.5712,-198 282.5712,-198 276.5712,-192 276.5712,-186 276.5712,-186 276.5712,-174 276.5712,-174 276.5712,-168 282.5712,-162 288.5712,-162 288.5712,-162 346.0058,-162 346.0058,-162 352.0058,-162 358.0058,-168 358.0058,-174 358.0058,-174 358.0058,-186 358.0058,-186 358.0058,-192 352.0058,-198 346.0058,-198"/>
<text text-anchor="middle" x="317.2885" y="-177" font-family="Fira Mono" font-size="10.00" fill="#000000">Anytown</text>
</g>
<!-- 0__address__city&#45;&gt;0__address__city__Anytown -->
<g id="edge9" class="edge">
<title>0__address__city-&gt;0__address__city__Anytown</title>
<path fill="none" stroke="#000000" stroke-width="2" d="M201.971,-180C223.5152,-180 252.9159,-180 276.6381,-180"/>
</g>
<!-- 0__address__zip__12345 -->
<g id="node14" class="node">
<title>0__address__zip__12345</title>
<path fill="none" stroke="#000000" stroke-width="2" d="M339.7885,-144C339.7885,-144 294.7885,-144 294.7885,-144 288.7885,-144 282.7885,-138 282.7885,-132 282.7885,-132 282.7885,-120 282.7885,-120 282.7885,-114 288.7885,-108 294.7885,-108 294.7885,-108 339.7885,-108 339.7885,-108 345.7885,-108 351.7885,-114 351.7885,-120 351.7885,-120 351.7885,-132 351.7885,-132 351.7885,-138 345.7885,-144 339.7885,-144"/>
<text text-anchor="middle" x="317.2885" y="-123" font-family="Fira Mono" font-size="10.00" fill="#000000">12345</text>
</g>
<!-- 0__address__zip&#45;&gt;0__address__zip__12345 -->
<g id="edge10" class="edge">
<title>0__address__zip-&gt;0__address__zip__12345</title>
<path fill="none" stroke="#000000" stroke-width="2" d="M200.5797,-126C224.0707,-126 257.5717,-126 282.6601,-126"/>
</g>
</g>
</svg>