<?xml version="1.0" encoding="UTF-8" standalone="no"?>
<!DOCTYPE svg PUBLIC "-//W3C//DTD SVG 1.1//EN" "http://www.w3.org/Graphics/SVG/1.1/DTD/svg11.dtd">
<!-- Generated by graphviz version 2.40.1 (20161225.0304)
 -->
<!-- Title: %0 Pages: 1 -->
<svg width="438pt" height="368pt" viewBox="0.00 0.00 438.34 368.00" xmlns="http://www.w3.org/2000/svg" xmlns:xlink="http://www.w3.org/1999/xlink">
<g id="graph0" class="graph" transform="scale(1 1) rotate(0) translate(4 364)">
<title>%0</title>
<polygon fill="#ffffff" stroke="transparent" points="-4,4 -4,-364 434.344,-364 434.344,4 -4,4"/>
<!-- 0__person -->
<g id="node1" class="node">
<title>0__person</title>
<path fill="none" stroke="#000000" stroke-width="2" d="M58.4863,-252C58.4863,-252 12.1707,-252 12.1707,-252 6.1707,-252 .1707,-246 .1707,-240 .1707,-240 .1707,-228 .1707,-228 .1707,-222 6.1707,-216 12.1707,-216 12.1707,-216 58.4863,-216 58.4863,-216 64.4863,-216 70.4863,-222 70.4863,-228 70.4863,-228 70.4863,-240 70.4863,-240 70.4863,-246 64.4863,-252 58.4863,-252"/>
<text text-anchor="middle" x="35.3285" y="-231" font-family="Fira Mono" font-size="10.00" fill="#000000">person</text>
</g>
<!-- 0__person__name -->
<g id="node2" class="node">
<title>0__person__name</title>
<path fill="none" stroke="#000000" stroke-width="2" d="M164.8684,-353C164.8684,-353 123.5526,-353 123.5526,-353 117.5526,-353 111.5526,-347 111.5526,-341 111.5526,-341 111.5526,-329 111.5526,-329 111.5526,-323 117.5526,-317 123.5526,-317 123.5526,-317 164.8684,-317 164.8684,-317 170.8684,-317 176.8684,-323 176.8684,-329 176.8684,-329 176.8684,-341 176.8684,-341 176.8684,-347 170.8684,-353 164.8684,-353"/>
<text text-anchor="middle" x="144.2105" y="-332" font-family="Fira Mono" font-size="10.00" fill="#000000">name</text>
</g>
<!-- 0__person&#45;&gt;0__person__name -->
<g id="edge1" class="edge">
<title>0__person-&gt;0__person__name</title>
<path fill="none" stroke="#000000" stroke-width="2" d="M54.3128,-252.0109C68.6335,-265.5537 88.7969,-284.5294 106.657,-301 112.2172,-306.1276 118.2797,-311.6471 123.8795,-316.7166"/>
</g>
<!-- 0__person__age -->
<g id="node4" class="node">
<title>0__person__age</title>
<path fill="none" stroke="#000000" stroke-width="2" d="M161.0886,-292C161.0886,-292 127.3324,-292 127.3324,-292 121.3324,-292 115.3324,-286 115.3324,-280 115.3324,-280 115.3324,-268 115.3324,-268 115.3324,-262 121.3324,-256 127.3324,-256 127.3324,-256 161.0886,-256 161.0886,-256 167.0886,-256 173.0886,-262 173.0886,-268 173.0886,-268 173.0886,-280 173.0886,-280 173.0886,-286 167.0886,-292 161.0886,-292"/>
<text text-anchor="middle" x="144.2105" y="-271" font-family="Fira Mono" font-size="10.00" fill="#000000">age</text>
</g>
<!-- 0__person&#45;&gt;0__person__age -->
<g id="edge2" class="edge">
<title>0__person-&gt;0__person__age</title>
<path fill="none" stroke="#000000" stroke-width="2" d="M70.6794,-246.9869C85.0855,-252.2792 101.5337,-258.3218 115.2153,-263.348"/>
</g>
<!-- 0__person__address -->
<g id="node6" class="node">
<title>0__person__address</title>
<path fill="none" stroke="#000000" stroke-width="2" d="M169.1955,-225C169.1955,-225 119.2255,-225 119.2255,-225 113.2255,-225 107.2255,-219 107.2255,-213 107.2255,-213 107.2255,-201 107.2255,-201 107.2255,-195 113.2255,-189 119.2255,-189 119.2255,-189 169.1955,-189 169.1955,-189 175.1955,-189 181.1955,-195 181.1955,-201 181.1955,-201 181.1955,-213 181.1955,-213 181.1955,-219 175.1955,-225 169.1955,-225"/>
<text text-anchor="middle" x="144.2105" y="-204" font-family="Fira Mono" font-size="10.00" fill="#000000">address</text>
</g>
<!-- 0__person&#45;&gt;0__person__address -->
<g id="edge3" class="edge">
<title>0__person-&gt;0__person__address</title>
<path fill="none" stroke="#000000" stroke-width="2" d="M70.6794,-225.2339C82.3533,-222.339 95.3681,-219.1117 107.1652,-216.1863"/>
</g>
<!-- 0__person__hobbies -->
<g id="node7" class="node">
<title>0__person__hobbies</title>
<path fill="none" stroke="#000000" stroke-width="2" d="M169.8176,-90C169.8176,-90 118.6034,-90 118.6034,-90 112.6034,-90 106.6034,-84 106.6034,-78 106.6034,-78 106.6034,-66 106.6034,-66 106.6034,-60 112.6034,-54 118.6034,-54 118.6034,-54 169.8176,-54 169.8176,-54 175.8176,-54 181.8176,-60 181.8176,-66 181.8176,-66 181.8176,-78 181.8176,-78 181.8176,-84 175.8176,-90 169.8176,-90"/>
<text text-anchor="middle" x="144.2105" y="-69" font-family="Fira Mono" font-size="10.00" fill="#000000">hobbies</text>
</g>
<!-- 0__person&#45;&gt;0__person__hobbies -->
<g id="edge4" class="edge">
<title>0__person-&gt;0__person__hobbies</title>
<path fill="none" stroke="#000000" stroke-width="2" d="M47.607,-215.7314C68.5186,-184.6181 110.8152,-121.6872 131.8098,-90.4503"/>
</g>
<!-- 0__person__name__Alice -->
<g id="node3" class="node">
<title>0__person__name__Alice</title>
<path fill="none" stroke="#000000" stroke-width="2" d="M275.4129,-360C275.4129,-360 234.1011,-360 234.1011,-360 228.1011,-360 222.1011,-354 222.1011,-348 222.1011,-348 222.1011,-336 222.1011,-336 222.1011,-330 228.1011,-324 234.1011,-324 234.1011,-324 275.4129,-324 275.4129,-324 281.4129,-324 287.4129,-330 287.4129,-336 287.4129,-336 287.4129,-348 287.4129,-348 287.4129,-354 281.4129,-360 275.4129,-360"/>
<text text-anchor="middle" x="254.757" y="-339" font-family="Fira Mono" font-size="10.00" fill="#000000">Alice</text>
</g>
<!-- 0__person__name&#45;&gt;0__person__name__Alice -->
<g id="edge5" class="edge">
<title>0__person__name-&gt;0__person__name__Alice</title>
<path fill="none" stroke="#000000" stroke-width="2" d="M177.0788,-337.0813C191.2079,-337.976 207.6882,-339.0195 221.8245,-339.9147"/>
</g>
<!-- 0__person__age__28 -->
<g id="node5" class="node">
<title>0__person__age__28</title>
<path fill="none" stroke="#000000" stroke-width="2" d="M269.757,-306C269.757,-306 239.757,-306 239.757,-306 233.757,-306 227.757,-300 227.757,-294 227.757,-294 227.757,-282 227.757,-282 227.757,-276 233.757,-270 239.757,-270 239.757,-270 269.757,-270 269.757,-270 275.757,-270 281.757,-276 281.757,-282 281.757,-282 281.757,-294 281.757,-294 281.757,-300 275.757,-306 269.757,-306"/>
<text text-anchor="middle" x="254.757" y="-285" font-family="Fira Mono" font-size="10.00" fill="#000000">28</text>
</g>
<!-- 0__person__age&#45;&gt;0__person__age__28 -->
<g id="edge6" class="edge">
<title>0__person__age-&gt;0__person__age__28</title>
<path fill="none" stroke="#000000" stroke-width="2" d="M173.2553,-277.6783C190.0156,-279.8009 210.9645,-282.454 227.4265,-284.5388"/>
</g>
<!-- 0__person__address__street -->
<g id="node8" class="node">
<title>0__person__address__street</title>
<path fill="none" stroke="#000000" stroke-width="2" d="M275.4119,-252C275.4119,-252 234.1021,-252 234.1021,-252 228.1021,-252 222.1021,-246 222.1021,-240 222.1021,-240 222.1021,-228 222.1021,-228 222.1021,-222 228.1021,-216 234.1021,-216 234.1021,-216 275.4119,-216 275.4119,-216 281.4119,-216 287.4119,-222 287.4119,-228 287.4119,-228 287.4119,-240 287.4119,-240 287.4119,-246 281.4119,-252 275.4119,-252"/>
<text text-anchor="middle" x="254.757" y="-231" font-family="Fira Mono" font-size="10.00" fill="#000000">street</text>
</g>
<!-- 0__person__address&#45;&gt;0__person__address__street -->
<g id="edge7" class="edge">
<title>0__person__address-&gt;0__person__address__street</title>
<path fill="none" stroke="#000000" stroke-width="2" d="M181.3284,-216.0657C194.5005,-219.2829 209.2202,-222.878 222.0019,-225.9999"/>
</g>
<!-- 0__person__address__city -->
<g id="node10" class="node">
<title>0__person__address__city</title>
<path fill="none" stroke="#000000" stroke-width="2" d="M272.254,-198C272.254,-198 237.26,-198 237.26,-198 231.26,-198 225.26,-192 225.26,-186 225.26,-186 225.26,-174 225.26,-174 225.26,-168 231.26,-162 237.26,-162 237.26,-162 272.254,-162 272.254,-162 278.254,-162 284.254,-168 284.254,-174 284.254,-174 284.254,-186 284.254,-186 284.254,-192 278.254,-198 272.254,-198"/>
<text text-anchor="middle" x="254.757" y="-177" font-family="Fira Mono" font-size="10.00" fill="#000000">city</text>
</g>
<!-- 0__person__address&#45;&gt;0__person__address__city -->
<g id="edge8" class="edge">
<title>0__person__address-&gt;0__person__address__city</title>
<path fill="none" stroke="#000000" stroke-width="2" d="M181.3284,-197.9343C195.6296,-194.4413 211.7549,-190.5029 225.2438,-187.2083"/>
</g>
<!-- 0__person__address__zip -->
<g id="node12" class="node">
<title>0__person__address__zip</title>
<path fill="none" stroke="#000000" stroke-width="2" d="M270.9754,-144C270.9754,-144 238.5386,-144 238.5386,-144 232.5386,-144 226.5386,-138 226.5386,-132 226.5386,-132 226.5386,-120 226.5386,-120 226.5386,-114 232.5386,-108 238.5386,-108 238.5386,-108 270.9754,-108 270.9754,-108 276.9754,-108 282.9754,-114 282.9754,-120 282.9754,-120 282.9754,-132 282.9754,-132 282.9754,-138 276.9754,-144 270.9754,-144"/>
<text text-anchor="middle" x="254.757" y="-123" font-family="Fira Mono" font-size="10.00" fill="#000000">zip</text>
</g>
<!-- 0__person__address&#45;&gt;0__person__address__zip -->
<g id="edge9" class="edge">
<title>0__person__address-&gt;0__person__address__zip</title>
<path fill="none" stroke="#000000" stroke-width="2" d="M168.7158,-188.9829C183.0137,-178.4772 201.402,-164.9772 217.764,-153 221.6135,-150.1821 225.6906,-147.202 229.6772,-144.2904"/>
</g>
<!-- 0__person__hobbies__hiking -->
<g id="node14" class="node">
<title>0__person__hobbies__hiking</title>
<path fill="none" stroke="#000000" stroke-width="2" d="M277.3164,-90C277.3164,-90 232.1976,-90 232.1976,-90 226.1976,-90 220.1976,-84 220.1976,-78 220.1976,-78 220.1976,-66 220.1976,-66 220.1976,-60 226.1976,-54 232.1976,-54 232.1976,-54 277.3164,-54 277.3164,-54 283.3164,-54 289.3164,-60 289.3164,-66 289.3164,-66 289.3164,-78 289.3164,-78 289.3164,-84 283.3164,-90 277.3164,-90"/>
<text text-anchor="middle" x="254.757" y="-69" font-family="Fira Mono" font-size="10.00" fill="#000000">hiking</text>
</g>
<!-- 0__person__hobbies&#45;&gt;0__person__hobbies__hiking -->
<g id="edge10" class="edge">
<title>0__person__hobbies-&gt;0__person__hobbies__hiking</title>
<path fill="none" stroke="#000000" stroke-width="2" d="M181.9451,-72C194.3296,-72 208.0246,-72 220.1643,-72"/>
</g>
<!-- 0__person__hobbies__reading -->
<g id="node15" class="node">
<title>0__person__hobbies__reading</title>
<path fill="none" stroke="#000000" stroke-width="2" d="M279.743,-36C279.743,-36 229.771,-36 229.771,-36 223.771,-36 217.771,-30 217.771,-24 217.771,-24 217.771,-12 217.771,-12 217.771,-6 223.771,0 229.771,0 229.771,0 279.743,0 279.743,0 285.743,0 291.743,-6 291.743,-12 291.743,-12 291.743,-24 291.743,-24 291.743,-30 285.743,-36 279.743,-36"/>
<text text-anchor="middle" x="254.757" y="-15" font-family="Fira Mono" font-size="10.00" fill="#000000">reading</text>
</g>
<!-- 0__person__hobbies&#45;&gt;0__person__hobbies__reading -->
<g id="edge11" class="edge">
<title>0__person__hobbies-&gt;0__person__hobbies__reading</title>
<path fill="none" stroke="#000000" stroke-width="2" d="M181.3284,-53.8686C192.9952,-48.1696 205.8759,-41.8775 217.5489,-36.1755"/>
</g>
<!-- 0__person__address__street__456 Elm St -->
<g id="node9" class="node">
<title>0__person__address__street__456 Elm St</title>
<path fill="none" stroke="#000000" stroke-width="2" d="M411.552,-252C411.552,-252 346.542,-252 346.542,-252 340.542,-252 334.542,-246 334.542,-240 334.542,-240 334.542,-228 334.542,-228 334.542,-222 340.542,-216 346.542,-216 346.542,-216 411.552,-216 411.552,-216 417.552,-216 423.552,-222 423.552,-228 423.552,-228 423.552,-240 423.552,-240 423.552,-246 417.552,-252 411.552,-252"/>
<text text-anchor="middle" x="379.047" y="-231" font-family="Fira Mono" font-size="10.00" fill="#000000">456 Elm St</text>
</g>
<!-- 0__person__address__street&#45;&gt;0__person__address__street__456 Elm St -->
<g id="edge12" class="edge">
<title>0__person__address__street-&gt;0__person__address__street__456 Elm St</title>
<path fill="none" stroke="#000000" stroke-width="2" d="M287.4127,-234C301.7975,-234 318.9264,-234 334.4607,-234"/>
</g>
<!-- 0__person__address__city__Another Town -->
<g id="node11" class="node">
<title>0__person__address__city__Another Town</title>
<path fill="none" stroke="#000000" stroke-width="2" d="M418.1418,-198C418.1418,-198 339.9522,-198 339.9522,-198 333.9522,-198 327.9522,-192 327.9522,-186 327.9522,-186 327.9522,-174 327.9522,-174 327.9522,-168 333.9522,-162 339.9522,-162 339.9522,-162 418.1418,-162 418.1418,-162 424.1418,-162 430.1418,-168 430.1418,-174 430.1418,-174 430.1418,-186 430.1418,-186 430.1418,-192 424.1418,-198 418.1418,-198"/>
<text text-anchor="middle" x="379.047" y="-177" font-family="Fira Mono" font-size="10.00" fill="#000000">Another Town</text>
</g>
<!-- 0__person__address__city&#45;&gt;0__person__address__city__Another Town -->
<g id="edge13" class="edge">
<title>0__person__address__city-&gt;0__person__address__city__Another Town</title>
<path fill="none" stroke="#000000" stroke-width="2" d="M284.5276,-180C297.4545,-180 312.9745,-180 327.6665,-180"/>
</g>
<!-- 0__person__address__zip__54321 -->
<g id="node13" class="node">
<title>0__person__address__zip__54321</title>
<path fill="none" stroke="#000000" stroke-width="2" d="M401.547,-144C401.547,-144 356.547,-144 356.547,-144 350.547,-144 344.547,-138 344.547,-132 344.547,-132 344.547,-120 344.547,-120 344.547,-114 350.547,-108 356.547,-108 356.547,-108 401.547,-108 401.547,-108 407.547,-108 413.547,-114 413.547,-120 413.547,-120 413.547,-132 413.547,-132 413.547,-138 407.547,-144 401.547,-144"/>
<text text-anchor="middle" x="379.047" y="-123" font-family="Fira Mono" font-size="10.00" fill="#000000">54321</text>
</g>
<!-- 0__person__address__zip&#45;&gt;0__person__address__zip__54321 -->
<g id="edge14" class="edge">
<title>0__person__address__zip-&gt;0__person__address__zip__54321</title>
<path fill="none" stroke="#000000" stroke-width="2" d="M282.9603,-126C301.1525,-126 324.9424,-126 344.2988,-126"/>
</g>
</g>
</svg>