<?xml version="1.0" encoding="UTF-8" standalone="no"?>
<!DOCTYPE svg PUBLIC "-//W3C//DTD SVG 1.1//EN" "http://www.w3.org/Graphics/SVG/1.1/DTD/svg11.dtd">
<!-- Generated by graphviz version 2.40.1 (20161225.0304)
 -->
<!-- Title: %0 Pages: 1 -->
<svg width="329pt" height="503pt" viewBox="0.00 0.00 329.47 503.00" xmlns="http://www.w3.org/2000/svg" xmlns:xlink="http://www.w3.org/1999/xlink">
<g id="graph0" class="graph" transform="scale(1 1) rotate(0) translate(4 499)">
<title>%0</title>
<polygon fill="#ffffff" stroke="transparent" points="-4,4 -4,-499 325.467,-499 325.467,4 -4,4"/>
<!-- 0__location -->
<g id="node1" class="node">
<title>0__location</title>
<path fill="none" stroke="#000000" stroke-width="2" d="M69.5973,-36C69.5973,-36 17.1667,-36 17.1667,-36 11.1667,-36 5.1667,-30 5.1667,-24 5.1667,-24 5.1667,-12 5.1667,-12 5.1667,-6 11.1667,0 17.1667,0 17.1667,0 69.5973,0 69.5973,0 75.5973,0 81.5973,-6 81.5973,-12 81.5973,-12 81.5973,-24 81.5973,-24 81.5973,-30 75.5973,-36 69.5973,-36"/>
<text text-anchor="middle" x="43.382" y="-15" font-family="Fira Mono" font-size="10.00" fill="#000000">location</text>
</g>
<!-- 0__location__New York -->
<g id="node2" class="node">
<title>0__location__New York</title>
<path fill="none" stroke="#000000" stroke-width="2" d="M196.6515,-36C196.6515,-36 134.8015,-36 134.8015,-36 128.8015,-36 122.8015,-30 122.8015,-24 122.8015,-24 122.8015,-12 122.8015,-12 122.8015,-6 128.8015,0 134.8015,0 134.8015,0 196.6515,0 196.6515,0 202.6515,0 208.6515,-6 208.6515,-12 208.6515,-12 208.6515,-24 208.6515,-24 208.6515,-30 202.6515,-36 196.6515,-36"/>
<text text-anchor="middle" x="165.7265" y="-15" font-family="Fira Mono" font-size="10.00" fill="#000000">New York</text>
</g>
<!-- 0__location&#45;&gt;0__location__New York -->
<g id="edge1" class="edge">
<title>0__location-&gt;0__location__New York</title>
<path fill="none" stroke="#000000" stroke-width="2" d="M81.7569,-18C94.6511,-18 109.1223,-18 122.3718,-18"/>
</g>
<!-- 0__company -->
<g id="node3" class="node">
<title>0__company</title>
<path fill="none" stroke="#000000" stroke-width="2" d="M71.5397,-90C71.5397,-90 15.2243,-90 15.2243,-90 9.2243,-90 3.2243,-84 3.2243,-78 3.2243,-78 3.2243,-66 3.2243,-66 3.2243,-60 9.2243,-54 15.2243,-54 15.2243,-54 71.5397,-54 71.5397,-54 77.5397,-54 83.5397,-60 83.5397,-66 83.5397,-66 83.5397,-78 83.5397,-78 83.5397,-84 77.5397,-90 71.5397,-90"/>
<text text-anchor="middle" x="43.382" y="-69" font-family="Fira Mono" font-size="10.00" fill="#000000">company</text>
</g>
<!-- 0__company__ABC Inc. -->
<g id="node4" class="node">
<title>0__company__ABC Inc.</title>
<path fill="none" stroke="#000000" stroke-width="2" d="M195.0521,-90C195.0521,-90 136.4009,-90 136.4009,-90 130.4009,-90 124.4009,-84 124.4009,-78 124.4009,-78 124.4009,-66 124.4009,-66 124.4009,-60 130.4009,-54 136.4009,-54 136.4009,-54 195.0521,-54 195.0521,-54 201.0521,-54 207.0521,-60 207.0521,-66 207.0521,-66 207.0521,-78 207.0521,-78 207.0521,-84 201.0521,-90 195.0521,-90"/>
<text text-anchor="middle" x="165.7265" y="-69" font-family="Fira Mono" font-size="10.00" fill="#000000">ABC Inc.</text>
</g>
<!-- 0__company&#45;&gt;0__company__ABC Inc. -->
<g id="edge2" class="edge">
<title>0__company-&gt;0__company__ABC Inc.</title>
<path fill="none" stroke="#000000" stroke-width="2" d="M83.7812,-72C96.8664,-72 111.3906,-72 124.5327,-72"/>
</g>
<!-- 0__employees -->
<g id="node5" class="node">
<title>0__employees</title>
<path fill="none" stroke="#000000" stroke-width="2" d="M74.6463,-279C74.6463,-279 12.1177,-279 12.1177,-279 6.1177,-279 .1177,-273 .1177,-267 .1177,-267 .1177,-255 .1177,-255 .1177,-249 6.1177,-243 12.1177,-243 12.1177,-243 74.6463,-243 74.6463,-243 80.6463,-243 86.6463,-249 86.6463,-255 86.6463,-255 86.6463,-267 86.6463,-267 86.6463,-273 80.6463,-279 74.6463,-279"/>
<text text-anchor="middle" x="43.382" y="-258" font-family="Fira Mono" font-size="10.00" fill="#000000">employees</text>
</g>
<!-- 0__employees__firstName -->
<g id="node6" class="node">
<title>0__employees__firstName</title>
<path fill="none" stroke="#000000" stroke-width="2" d="M195.7075,-414C195.7075,-414 135.7455,-414 135.7455,-414 129.7455,-414 123.7455,-408 123.7455,-402 123.7455,-402 123.7455,-390 123.7455,-390 123.7455,-384 129.7455,-378 135.7455,-378 135.7455,-378 195.7075,-378 195.7075,-378 201.7075,-378 207.7075,-384 207.7075,-390 207.7075,-390 207.7075,-402 207.7075,-402 207.7075,-408 201.7075,-414 195.7075,-414"/>
<text text-anchor="middle" x="165.7265" y="-393" font-family="Fira Mono" font-size="10.00" fill="#000000">firstName</text>
</g>
<!-- 0__employees&#45;&gt;0__employees__firstName -->
<g id="edge3" class="edge">
<title>0__employees-&gt;0__employees__firstName</title>
<path fill="none" stroke="#000000" stroke-width="2" d="M59.8819,-279.2067C83.2322,-304.9724 125.6767,-351.8074 149.0973,-377.6506"/>
</g>
<!-- 0__employees__lastName -->
<g id="node8" class="node">
<title>0__employees__lastName</title>
<path fill="none" stroke="#000000" stroke-width="2" d="M194.4888,-279C194.4888,-279 136.9642,-279 136.9642,-279 130.9642,-279 124.9642,-273 124.9642,-267 124.9642,-267 124.9642,-255 124.9642,-255 124.9642,-249 130.9642,-243 136.9642,-243 136.9642,-243 194.4888,-243 194.4888,-243 200.4888,-243 206.4888,-249 206.4888,-255 206.4888,-255 206.4888,-267 206.4888,-267 206.4888,-273 200.4888,-279 194.4888,-279"/>
<text text-anchor="middle" x="165.7265" y="-258" font-family="Fira Mono" font-size="10.00" fill="#000000">lastName</text>
</g>
<!-- 0__employees&#45;&gt;0__employees__lastName -->
<g id="edge4" class="edge">
<title>0__employees-&gt;0__employees__lastName</title>
<path fill="none" stroke="#000000" stroke-width="2" d="M86.8606,-261C99.2234,-261 112.6411,-261 124.844,-261"/>
</g>
<!-- 0__employees__age -->
<g id="node10" class="node">
<title>0__employees__age</title>
<path fill="none" stroke="#000000" stroke-width="2" d="M182.6046,-144C182.6046,-144 148.8484,-144 148.8484,-144 142.8484,-144 136.8484,-138 136.8484,-132 136.8484,-132 136.8484,-120 136.8484,-120 136.8484,-114 142.8484,-108 148.8484,-108 148.8484,-108 182.6046,-108 182.6046,-108 188.6046,-108 194.6046,-114 194.6046,-120 194.6046,-120 194.6046,-132 194.6046,-132 194.6046,-138 188.6046,-144 182.6046,-144"/>
<text text-anchor="middle" x="165.7265" y="-123" font-family="Fira Mono" font-size="10.00" fill="#000000">age</text>
</g>
<!-- 0__employees&#45;&gt;0__employees__age -->
<g id="edge5" class="edge">
<title>0__employees-&gt;0__employees__age</title>
<path fill="none" stroke="#000000" stroke-width="2" d="M59.8819,-242.7933C83.2322,-217.0276 125.6767,-170.1926 149.0973,-144.3494"/>
</g>
<!-- 0__employees__firstName__Bob -->
<g id="node7" class="node">
<title>0__employees__firstName__Bob</title>
<path fill="none" stroke="#000000" stroke-width="2" d="M301.2479,-495C301.2479,-495 264.9081,-495 264.9081,-495 258.9081,-495 252.9081,-489 252.9081,-483 252.9081,-483 252.9081,-471 252.9081,-471 252.9081,-465 258.9081,-459 264.9081,-459 264.9081,-459 301.2479,-459 301.2479,-459 307.2479,-459 313.2479,-465 313.2479,-471 313.2479,-471 313.2479,-483 313.2479,-483 313.2479,-489 307.2479,-495 301.2479,-495"/>
<text text-anchor="middle" x="283.078" y="-474" font-family="Fira Mono" font-size="10.00" fill="#000000">Bob</text>
</g>
<!-- 0__employees__firstName&#45;&gt;0__employees__firstName__Bob -->
<g id="edge6" class="edge">
<title>0__employees__firstName-&gt;0__employees__firstName__Bob</title>
<path fill="none" stroke="#000000" stroke-width="2" d="M192.0625,-414.178C211.3893,-427.518 237.5238,-445.5569 256.8299,-458.8827"/>
</g>
<!-- 0__employees__firstName__Jane -->
<g id="node12" class="node">
<title>0__employees__firstName__Jane</title>
<path fill="none" stroke="#000000" stroke-width="2" d="M301.8454,-441C301.8454,-441 264.3106,-441 264.3106,-441 258.3106,-441 252.3106,-435 252.3106,-429 252.3106,-429 252.3106,-417 252.3106,-417 252.3106,-411 258.3106,-405 264.3106,-405 264.3106,-405 301.8454,-405 301.8454,-405 307.8454,-405 313.8454,-411 313.8454,-417 313.8454,-417 313.8454,-429 313.8454,-429 313.8454,-435 307.8454,-441 301.8454,-441"/>
<text text-anchor="middle" x="283.078" y="-420" font-family="Fira Mono" font-size="10.00" fill="#000000">Jane</text>
</g>
<!-- 0__employees__firstName&#45;&gt;0__employees__firstName__Jane -->
<g id="edge7" class="edge">
<title>0__employees__firstName-&gt;0__employees__firstName__Jane</title>
<path fill="none" stroke="#000000" stroke-width="2" d="M207.7616,-405.6714C222.3619,-409.0306 238.4608,-412.7346 252.0137,-415.8528"/>
</g>
<!-- 0__employees__firstName__John -->
<g id="node15" class="node">
<title>0__employees__firstName__John</title>
<path fill="none" stroke="#000000" stroke-width="2" d="M302.4671,-387C302.4671,-387 263.6889,-387 263.6889,-387 257.6889,-387 251.6889,-381 251.6889,-375 251.6889,-375 251.6889,-363 251.6889,-363 251.6889,-357 257.6889,-351 263.6889,-351 263.6889,-351 302.4671,-351 302.4671,-351 308.4671,-351 314.4671,-357 314.4671,-363 314.4671,-363 314.4671,-375 314.4671,-375 314.4671,-381 308.4671,-387 302.4671,-387"/>
<text text-anchor="middle" x="283.078" y="-366" font-family="Fira Mono" font-size="10.00" fill="#000000">John</text>
</g>
<!-- 0__employees__firstName&#45;&gt;0__employees__firstName__John -->
<g id="edge8" class="edge">
<title>0__employees__firstName-&gt;0__employees__firstName__John</title>
<path fill="none" stroke="#000000" stroke-width="2" d="M207.7616,-386.3286C222.2304,-382.9997 238.1708,-379.3322 251.6468,-376.2316"/>
</g>
<!-- 0__employees__lastName__Johnson -->
<g id="node9" class="node">
<title>0__employees__lastName__Johnson</title>
<path fill="none" stroke="#000000" stroke-width="2" d="M309.3563,-333C309.3563,-333 256.7997,-333 256.7997,-333 250.7997,-333 244.7997,-327 244.7997,-321 244.7997,-321 244.7997,-309 244.7997,-309 244.7997,-303 250.7997,-297 256.7997,-297 256.7997,-297 309.3563,-297 309.3563,-297 315.3563,-297 321.3563,-303 321.3563,-309 321.3563,-309 321.3563,-321 321.3563,-321 321.3563,-327 315.3563,-333 309.3563,-333"/>
<text text-anchor="middle" x="283.078" y="-312" font-family="Fira Mono" font-size="10.00" fill="#000000">Johnson</text>
</g>
<!-- 0__employees__lastName&#45;&gt;0__employees__lastName__Johnson -->
<g id="edge9" class="edge">
<title>0__employees__lastName-&gt;0__employees__lastName__Johnson</title>
<path fill="none" stroke="#000000" stroke-width="2" d="M205.1293,-279.1314C217.9138,-285.0143 232.0714,-291.529 244.7745,-297.3744"/>
</g>
<!-- 0__employees__lastName__Smith -->
<g id="node13" class="node">
<title>0__employees__lastName__Smith</title>
<path fill="none" stroke="#000000" stroke-width="2" d="M304.9741,-279C304.9741,-279 261.1819,-279 261.1819,-279 255.1819,-279 249.1819,-273 249.1819,-267 249.1819,-267 249.1819,-255 249.1819,-255 249.1819,-249 255.1819,-243 261.1819,-243 261.1819,-243 304.9741,-243 304.9741,-243 310.9741,-243 316.9741,-249 316.9741,-255 316.9741,-255 316.9741,-267 316.9741,-267 316.9741,-273 310.9741,-279 304.9741,-279"/>
<text text-anchor="middle" x="283.078" y="-258" font-family="Fira Mono" font-size="10.00" fill="#000000">Smith</text>
</g>
<!-- 0__employees__lastName&#45;&gt;0__employees__lastName__Smith -->
<g id="edge10" class="edge">
<title>0__employees__lastName-&gt;0__employees__lastName__Smith</title>
<path fill="none" stroke="#000000" stroke-width="2" d="M206.7704,-261C220.5182,-261 235.6896,-261 248.8591,-261"/>
</g>
<!-- 0__employees__lastName__Doe -->
<g id="node16" class="node">
<title>0__employees__lastName__Doe</title>
<path fill="none" stroke="#000000" stroke-width="2" d="M301.237,-225C301.237,-225 264.919,-225 264.919,-225 258.919,-225 252.919,-219 252.919,-213 252.919,-213 252.919,-201 252.919,-201 252.919,-195 258.919,-189 264.919,-189 264.919,-189 301.237,-189 301.237,-189 307.237,-189 313.237,-195 313.237,-201 313.237,-201 313.237,-213 313.237,-213 313.237,-219 307.237,-225 301.237,-225"/>
<text text-anchor="middle" x="283.078" y="-204" font-family="Fira Mono" font-size="10.00" fill="#000000">Doe</text>
</g>
<!-- 0__employees__lastName&#45;&gt;0__employees__lastName__Doe -->
<g id="edge11" class="edge">
<title>0__employees__lastName-&gt;0__employees__lastName__Doe</title>
<path fill="none" stroke="#000000" stroke-width="2" d="M205.1293,-242.8686C220.7103,-235.6989 238.3311,-227.5906 252.8726,-220.8992"/>
</g>
<!-- 0__employees__age__35 -->
<g id="node11" class="node">
<title>0__employees__age__35</title>
<path fill="none" stroke="#000000" stroke-width="2" d="M298.078,-171C298.078,-171 268.078,-171 268.078,-171 262.078,-171 256.078,-165 256.078,-159 256.078,-159 256.078,-147 256.078,-147 256.078,-141 262.078,-135 268.078,-135 268.078,-135 298.078,-135 298.078,-135 304.078,-135 310.078,-141 310.078,-147 310.078,-147 310.078,-159 310.078,-159 310.078,-165 304.078,-171 298.078,-171"/>
<text text-anchor="middle" x="283.078" y="-150" font-family="Fira Mono" font-size="10.00" fill="#000000">35</text>
</g>
<!-- 0__employees__age&#45;&gt;0__employees__age__35 -->
<g id="edge12" class="edge">
<title>0__employees__age-&gt;0__employees__age__35</title>
<path fill="none" stroke="#000000" stroke-width="2" d="M194.7347,-132.6742C213.4678,-136.9842 237.6758,-142.5539 256.0125,-146.7728"/>
</g>
<!-- 0__employees__age__28 -->
<g id="node14" class="node">
<title>0__employees__age__28</title>
<path fill="none" stroke="#000000" stroke-width="2" d="M298.078,-117C298.078,-117 268.078,-117 268.078,-117 262.078,-117 256.078,-111 256.078,-105 256.078,-105 256.078,-93 256.078,-93 256.078,-87 262.078,-81 268.078,-81 268.078,-81 298.078,-81 298.078,-81 304.078,-81 310.078,-87 310.078,-93 310.078,-93 310.078,-105 310.078,-105 310.078,-111 304.078,-117 298.078,-117"/>
<text text-anchor="middle" x="283.078" y="-96" font-family="Fira Mono" font-size="10.00" fill="#000000">28</text>
</g>
<!-- 0__employees__age&#45;&gt;0__employees__age__28 -->
<g id="edge13" class="edge">
<title>0__employees__age-&gt;0__employees__age__28</title>
<path fill="none" stroke="#000000" stroke-width="2" d="M194.7347,-119.3258C213.4678,-115.0158 237.6758,-109.4461 256.0125,-105.2272"/>
</g>
<!-- 0__employees__age__30 -->
<g id="node17" class="node">
<title>0__employees__age__30</title>
<path fill="none" stroke="#000000" stroke-width="2" d="M298.078,-63C298.078,-63 268.078,-63 268.078,-63 262.078,-63 256.078,-57 256.078,-51 256.078,-51 256.078,-39 256.078,-39 256.078,-33 262.078,-27 268.078,-27 268.078,-27 298.078,-27 298.078,-27 304.078,-27 310.078,-33 310.078,-39 310.078,-39 310.078,-51 310.078,-51 310.078,-57 304.078,-63 298.078,-63"/>
<text text-anchor="middle" x="283.078" y="-42" font-family="Fira Mono" font-size="10.00" fill="#000000">30</text>
</g>
<!-- 0__employees__age&#45;&gt;0__employees__age__30 -->
<g id="edge14" class="edge">
<title>0__employees__age-&gt;0__employees__age__30</title>
<path fill="none" stroke="#000000" stroke-width="2" d="M195.0557,-108.0202C199.6595,-105.0685 204.3334,-101.9945 208.689,-99 225.1698,-87.6694 228.5076,-83.7542 244.689,-72 248.6444,-69.1268 252.8545,-66.1172 256.9826,-63.193"/>
</g>
</g>
</svg>