<?xml version="1.0" encoding="UTF-8" standalone="no"?>
<!DOCTYPE svg PUBLIC "-//W3C//DTD SVG 1.1//EN" "http://www.w3.org/Graphics/SVG/1.1/DTD/svg11.dtd">
<!-- Generated by graphviz version 2.40.1 (20161225.0304)
 -->
<!-- Title: %0 Pages: 1 -->
<svg width="329pt" height="503pt" viewBox="0.00 0.00 329.47 503.00" xmlns="http://www.w3.org/2000/svg" xmlns:xlink="http://www.w3.org/1999/xlink">
<g id="graph0" class="graph" transform="scale(1 1) rotate(0) translate(4 499)">
<title>%0</title>
<polygon fill="#ffffff" stroke="transparent" points="-4,4 -4,-499 325.467,-499 325.467,4 -4,4"/>
<!-- employees -->
<g id="node1" class="node">
<title>employees</title>
<path fill="none" stroke="#000000" stroke-width="2" d="M74.6463,-252C74.6463,-252 12.1177,-252 12.1177,-252 6.1177,-252 .1177,-246 .1177,-240 .1177,-240 .1177,-228 .1177,-228 .1177,-222 6.1177,-216 12.1177,-216 12.1177,-216 74.6463,-216 74.6463,-216 80.6463,-216 86.6463,-222 86.6463,-228 86.6463,-228 86.6463,-240 86.6463,-240 86.6463,-246 80.6463,-252 74.6463,-252"/>
<text text-anchor="middle" x="43.382" y="-231" font-family="Fira Mono" font-size="10.00" fill="#000000">employees</text>
</g>
<!-- employees__firstName -->
<g id="node6" class="node">
<title>employees__firstName</title>
<path fill="none" stroke="#000000" stroke-width="2" d="M195.7075,-387C195.7075,-387 135.7455,-387 135.7455,-387 129.7455,-387 123.7455,-381 123.7455,-375 123.7455,-375 123.7455,-363 123.7455,-363 123.7455,-357 129.7455,-351 135.7455,-351 135.7455,-351 195.7075,-351 195.7075,-351 201.7075,-351 207.7075,-357 207.7075,-363 207.7075,-363 207.7075,-375 207.7075,-375 207.7075,-381 201.7075,-387 195.7075,-387"/>
<text text-anchor="middle" x="165.7265" y="-366" font-family="Fira Mono" font-size="10.00" fill="#000000">firstName</text>
</g>
<!-- employees&#45;&gt;employees__firstName -->
<g id="edge1" class="edge">
<title>employees-&gt;employees__firstName</title>
<path fill="none" stroke="#000000" stroke-width="2" d="M59.8819,-252.2067C83.2322,-277.9724 125.6767,-324.8074 149.0973,-350.6506"/>
</g>
<!-- employees__lastName -->
<g id="node8" class="node">
<title>employees__lastName</title>
<path fill="none" stroke="#000000" stroke-width="2" d="M194.4888,-252C194.4888,-252 136.9642,-252 136.9642,-252 130.9642,-252 124.9642,-246 124.9642,-240 124.9642,-240 124.9642,-228 124.9642,-228 124.9642,-222 130.9642,-216 136.9642,-216 136.9642,-216 194.4888,-216 194.4888,-216 200.4888,-216 206.4888,-222 206.4888,-228 206.4888,-228 206.4888,-240 206.4888,-240 206.4888,-246 200.4888,-252 194.4888,-252"/>
<text text-anchor="middle" x="165.7265" y="-231" font-family="Fira Mono" font-size="10.00" fill="#000000">lastName</text>
</g>
<!-- employees&#45;&gt;employees__lastName -->
<g id="edge2" class="edge">
<title>employees-&gt;employees__lastName</title>
<path fill="none" stroke="#000000" stroke-width="2" d="M86.8606,-234C99.2234,-234 112.6411,-234 124.844,-234"/>
</g>
<!-- employees__age -->
<g id="node10" class="node">
<title>employees__age</title>
<path fill="none" stroke="#000000" stroke-width="2" d="M182.6046,-117C182.6046,-117 148.8484,-117 148.8484,-117 142.8484,-117 136.8484,-111 136.8484,-105 136.8484,-105 136.8484,-93 136.8484,-93 136.8484,-87 142.8484,-81 148.8484,-81 148.8484,-81 182.6046,-81 182.6046,-81 188.6046,-81 194.6046,-87 194.6046,-93 194.6046,-93 194.6046,-105 194.6046,-105 194.6046,-111 188.6046,-117 182.6046,-117"/>
<text text-anchor="middle" x="165.7265" y="-96" font-family="Fira Mono" font-size="10.00" fill="#000000">age</text>
</g>
<!-- employees&#45;&gt;employees__age -->
<g id="edge3" class="edge">
<title>employees-&gt;employees__age</title>
<path fill="none" stroke="#000000" stroke-width="2" d="M59.8819,-215.7933C83.2322,-190.0276 125.6767,-143.1926 149.0973,-117.3494"/>
</g>
<!-- company -->
<g id="node2" class="node">
<title>company</title>
<path fill="none" stroke="#000000" stroke-width="2" d="M71.5397,-441C71.5397,-441 15.2243,-441 15.2243,-441 9.2243,-441 3.2243,-435 3.2243,-429 3.2243,-429 3.2243,-417 3.2243,-417 3.2243,-411 9.2243,-405 15.2243,-405 15.2243,-405 71.5397,-405 71.5397,-405 77.5397,-405 83.5397,-411 83.5397,-417 83.5397,-417 83.5397,-429 83.5397,-429 83.5397,-435 77.5397,-441 71.5397,-441"/>
<text text-anchor="middle" x="43.382" y="-420" font-family="Fira Mono" font-size="10.00" fill="#000000">company</text>
</g>
<!-- company__ABC Inc. -->
<g id="node3" class="node">
<title>company__ABC Inc.</title>
<path fill="none" stroke="#000000" stroke-width="2" d="M195.0521,-441C195.0521,-441 136.4009,-441 136.4009,-441 130.4009,-441 124.4009,-435 124.4009,-429 124.4009,-429 124.4009,-417 124.4009,-417 124.4009,-411 130.4009,-405 136.4009,-405 136.4009,-405 195.0521,-405 195.0521,-405 201.0521,-405 207.0521,-411 207.0521,-417 207.0521,-417 207.0521,-429 207.0521,-429 207.0521,-435 201.0521,-441 195.0521,-441"/>
<text text-anchor="middle" x="165.7265" y="-420" font-family="Fira Mono" font-size="10.00" fill="#000000">ABC Inc.</text>
</g>
<!-- company&#45;&gt;company__ABC Inc. -->
<g id="edge4" class="edge">
<title>company-&gt;company__ABC Inc.</title>
<path fill="none" stroke="#000000" stroke-width="2" d="M83.7812,-423C96.8664,-423 111.3906,-423 124.5327,-423"/>
</g>
<!-- location -->
<g id="node4" class="node">
<title>location</title>
<path fill="none" stroke="#000000" stroke-width="2" d="M69.5973,-495C69.5973,-495 17.1667,-495 17.1667,-495 11.1667,-495 5.1667,-489 5.1667,-483 5.1667,-483 5.1667,-471 5.1667,-471 5.1667,-465 11.1667,-459 17.1667,-459 17.1667,-459 69.5973,-459 69.5973,-459 75.5973,-459 81.5973,-465 81.5973,-471 81.5973,-471 81.5973,-483 81.5973,-483 81.5973,-489 75.5973,-495 69.5973,-495"/>
<text text-anchor="middle" x="43.382" y="-474" font-family="Fira Mono" font-size="10.00" fill="#000000">location</text>
</g>
<!-- location__New York -->
<g id="node5" class="node">
<title>location__New York</title>
<path fill="none" stroke="#000000" stroke-width="2" d="M196.6515,-495C196.6515,-495 134.8015,-495 134.8015,-495 128.8015,-495 122.8015,-489 122.8015,-483 122.8015,-483 122.8015,-471 122.8015,-471 122.8015,-465 128.8015,-459 134.8015,-459 134.8015,-459 196.6515,-459 196.6515,-459 202.6515,-459 208.6515,-465 208.6515,-471 208.6515,-471 208.6515,-483 208.6515,-483 208.6515,-489 202.6515,-495 196.6515,-495"/>
<text text-anchor="middle" x="165.7265" y="-474" font-family="Fira Mono" font-size="10.00" fill="#000000">New York</text>
</g>
<!-- location&#45;&gt;location__New York -->
<g id="edge5" class="edge">
<title>location-&gt;location__New York</title>
<path fill="none" stroke="#000000" stroke-width="2" d="M81.7569,-477C94.6511,-477 109.1223,-477 122.3718,-477"/>
</g>
<!-- employees__firstName__John -->
<g id="node7" class="node">
<title>employees__firstName__John</title>
<path fill="none" stroke="#000000" stroke-width="2" d="M302.4671,-468C302.4671,-468 263.6889,-468 263.6889,-468 257.6889,-468 251.6889,-462 251.6889,-456 251.6889,-456 251.6889,-444 251.6889,-444 251.6889,-438 257.6889,-432 263.6889,-432 263.6889,-432 302.4671,-432 302.4671,-432 308.4671,-432 314.4671,-438 314.4671,-444 314.4671,-444 314.4671,-456 314.4671,-456 314.4671,-462 308.4671,-468 302.4671,-468"/>
<text text-anchor="middle" x="283.078" y="-447" font-family="Fira Mono" font-size="10.00" fill="#000000">John</text>
</g>
<!-- employees__firstName&#45;&gt;employees__firstName__John -->
<g id="edge6" class="edge">
<title>employees__firstName-&gt;employees__firstName__John</title>
<path fill="none" stroke="#000000" stroke-width="2" d="M195.5163,-387.2754C199.9707,-390.1364 204.4786,-393.1053 208.689,-396 225.1698,-407.3306 228.5076,-411.2458 244.689,-423 248.6444,-425.8732 252.8545,-428.8828 256.9826,-431.807"/>
</g>
<!-- employees__firstName__Jane -->
<g id="node12" class="node">
<title>employees__firstName__Jane</title>
<path fill="none" stroke="#000000" stroke-width="2" d="M301.8454,-414C301.8454,-414 264.3106,-414 264.3106,-414 258.3106,-414 252.3106,-408 252.3106,-402 252.3106,-402 252.3106,-390 252.3106,-390 252.3106,-384 258.3106,-378 264.3106,-378 264.3106,-378 301.8454,-378 301.8454,-378 307.8454,-378 313.8454,-384 313.8454,-390 313.8454,-390 313.8454,-402 313.8454,-402 313.8454,-408 307.8454,-414 301.8454,-414"/>
<text text-anchor="middle" x="283.078" y="-393" font-family="Fira Mono" font-size="10.00" fill="#000000">Jane</text>
</g>
<!-- employees__firstName&#45;&gt;employees__firstName__Jane -->
<g id="edge7" class="edge">
<title>employees__firstName-&gt;employees__firstName__Jane</title>
<path fill="none" stroke="#000000" stroke-width="2" d="M207.7616,-378.6714C222.3619,-382.0306 238.4608,-385.7346 252.0137,-388.8528"/>
</g>
<!-- employees__firstName__Bob -->
<g id="node15" class="node">
<title>employees__firstName__Bob</title>
<path fill="none" stroke="#000000" stroke-width="2" d="M301.2479,-360C301.2479,-360 264.9081,-360 264.9081,-360 258.9081,-360 252.9081,-354 252.9081,-348 252.9081,-348 252.9081,-336 252.9081,-336 252.9081,-330 258.9081,-324 264.9081,-324 264.9081,-324 301.2479,-324 301.2479,-324 307.2479,-324 313.2479,-330 313.2479,-336 313.2479,-336 313.2479,-348 313.2479,-348 313.2479,-354 307.2479,-360 301.2479,-360"/>
<text text-anchor="middle" x="283.078" y="-339" font-family="Fira Mono" font-size="10.00" fill="#000000">Bob</text>
</g>
<!-- employees__firstName&#45;&gt;employees__firstName__Bob -->
<g id="edge8" class="edge">
<title>employees__firstName-&gt;employees__firstName__Bob</title>
<path fill="none" stroke="#000000" stroke-width="2" d="M207.7616,-359.3286C222.625,-355.9089 239.0414,-352.1319 252.7438,-348.9792"/>
</g>
<!-- employees__lastName__Doe -->
<g id="node9" class="node">
<title>employees__lastName__Doe</title>
<path fill="none" stroke="#000000" stroke-width="2" d="M301.237,-306C301.237,-306 264.919,-306 264.919,-306 258.919,-306 252.919,-300 252.919,-294 252.919,-294 252.919,-282 252.919,-282 252.919,-276 258.919,-270 264.919,-270 264.919,-270 301.237,-270 301.237,-270 307.237,-270 313.237,-276 313.237,-282 313.237,-282 313.237,-294 313.237,-294 313.237,-300 307.237,-306 301.237,-306"/>
<text text-anchor="middle" x="283.078" y="-285" font-family="Fira Mono" font-size="10.00" fill="#000000">Doe</text>
</g>
<!-- employees__lastName&#45;&gt;employees__lastName__Doe -->
<g id="edge9" class="edge">
<title>employees__lastName-&gt;employees__lastName__Doe</title>
<path fill="none" stroke="#000000" stroke-width="2" d="M205.1293,-252.1314C220.7103,-259.3011 238.3311,-267.4094 252.8726,-274.1008"/>
</g>
<!-- employees__lastName__Smith -->
<g id="node13" class="node">
<title>employees__lastName__Smith</title>
<path fill="none" stroke="#000000" stroke-width="2" d="M304.9741,-252C304.9741,-252 261.1819,-252 261.1819,-252 255.1819,-252 249.1819,-246 249.1819,-240 249.1819,-240 249.1819,-228 249.1819,-228 249.1819,-222 255.1819,-216 261.1819,-216 261.1819,-216 304.9741,-216 304.9741,-216 310.9741,-216 316.9741,-222 316.9741,-228 316.9741,-228 316.9741,-240 316.9741,-240 316.9741,-246 310.9741,-252 304.9741,-252"/>
<text text-anchor="middle" x="283.078" y="-231" font-family="Fira Mono" font-size="10.00" fill="#000000">Smith</text>
</g>
<!-- employees__lastName&#45;&gt;employees__lastName__Smith -->
<g id="edge10" class="edge">
<title>employees__lastName-&gt;employees__lastName__Smith</title>
<path fill="none" stroke="#000000" stroke-width="2" d="M206.7704,-234C220.5182,-234 235.6896,-234 248.8591,-234"/>
</g>
<!-- employees__lastName__Johnson -->
<g id="node16" class="node">
<title>employees__lastName__Johnson</title>
<path fill="none" stroke="#000000" stroke-width="2" d="M309.3563,-198C309.3563,-198 256.7997,-198 256.7997,-198 250.7997,-198 244.7997,-192 244.7997,-186 244.7997,-186 244.7997,-174 244.7997,-174 244.7997,-168 250.7997,-162 256.7997,-162 256.7997,-162 309.3563,-162 309.3563,-162 315.3563,-162 321.3563,-168 321.3563,-174 321.3563,-174 321.3563,-186 321.3563,-186 321.3563,-192 315.3563,-198 309.3563,-198"/>
<text text-anchor="middle" x="283.078" y="-177" font-family="Fira Mono" font-size="10.00" fill="#000000">Johnson</text>
</g>
<!-- employees__lastName&#45;&gt;employees__lastName__Johnson -->
<g id="edge11" class="edge">
<title>employees__lastName-&gt;employees__lastName__Johnson</title>
<path fill="none" stroke="#000000" stroke-width="2" d="M205.1293,-215.8686C217.9138,-209.9857 232.0714,-203.471 244.7745,-197.6256"/>
</g>
<!-- employees__age__30 -->
<g id="node11" class="node">
<title>employees__age__30</title>
<path fill="none" stroke="#000000" stroke-width="2" d="M298.078,-144C298.078,-144 268.078,-144 268.078,-144 262.078,-144 256.078,-138 256.078,-132 256.078,-132 256.078,-120 256.078,-120 256.078,-114 262.078,-108 268.078,-108 268.078,-108 298.078,-108 298.078,-108 304.078,-108 310.078,-114 310.078,-120 310.078,-120 310.078,-132 310.078,-132 310.078,-138 304.078,-144 298.078,-144"/>
<text text-anchor="middle" x="283.078" y="-123" font-family="Fira Mono" font-size="10.00" fill="#000000">30</text>
</g>
<!-- employees__age&#45;&gt;employees__age__30 -->
<g id="edge12" class="edge">
<title>employees__age-&gt;employees__age__30</title>
<path fill="none" stroke="#000000" stroke-width="2" d="M194.7347,-105.6742C213.4678,-109.9842 237.6758,-115.5539 256.0125,-119.7728"/>
</g>
<!-- employees__age__28 -->
<g id="node14" class="node">
<title>employees__age__28</title>
<path fill="none" stroke="#000000" stroke-width="2" d="M298.078,-90C298.078,-90 268.078,-90 268.078,-90 262.078,-90 256.078,-84 256.078,-78 256.078,-78 256.078,-66 256.078,-66 256.078,-60 262.078,-54 268.078,-54 268.078,-54 298.078,-54 298.078,-54 304.078,-54 310.078,-60 310.078,-66 310.078,-66 310.078,-78 310.078,-78 310.078,-84 304.078,-90 298.078,-90"/>
<text text-anchor="middle" x="283.078" y="-69" font-family="Fira Mono" font-size="10.00" fill="#000000">28</text>
</g>
<!-- employees__age&#45;&gt;employees__age__28 -->
<g id="edge13" class="edge">
<title>employees__age-&gt;employees__age__28</title>
<path fill="none" stroke="#000000" stroke-width="2" d="M194.7347,-92.3258C213.4678,-88.0158 237.6758,-82.4461 256.0125,-78.2272"/>
</g>
<!-- employees__age__35 -->
<g id="node17" class="node">
<title>employees__age__35</title>
<path fill="none" stroke="#000000" stroke-width="2" d="M298.078,-36C298.078,-36 268.078,-36 268.078,-36 262.078,-36 256.078,-30 256.078,-24 256.078,-24 256.078,-12 256.078,-12 256.078,-6 262.078,0 268.078,0 268.078,0 298.078,0 298.078,0 304.078,0 310.078,-6 310.078,-12 310.078,-12 310.078,-24 310.078,-24 310.078,-30 304.078,-36 298.078,-36"/>
<text text-anchor="middle" x="283.078" y="-15" font-family="Fira Mono" font-size="10.00" fill="#000000">35</text>
</g>
<!-- employees__age&#45;&gt;employees__age__35 -->
<g id="edge14" class="edge">
<title>employees__age-&gt;employees__age__35</title>
<path fill="none" stroke="#000000" stroke-width="2" d="M192.0625,-80.822C211.3893,-67.482 237.5238,-49.4431 256.8299,-36.1173"/>
</g>
</g>
</svg>