<?xml version="1.0" encoding="UTF-8" standalone="no"?>
<!DOCTYPE svg PUBLIC "-//W3C//DTD SVG 1.1//EN" "http://www.w3.org/Graphics/SVG/1.1/DTD/svg11.dtd">
<!-- Generated by graphviz version 2.40.1 (20161225.0304)
 -->
<!-- Title: %0 Pages: 1 -->
<svg width="222pt" height="44pt" viewBox="0.00 0.00 221.97 44.00" xmlns="http://www.w3.org/2000/svg" xmlns:xlink="http://www.w3.org/1999/xlink">
<g id="graph0" class="graph" transform="scale(1 1) rotate(0) translate(4 40)">
<title>%0</title>
<polygon fill="#ffffff" stroke="transparent" points="-4,4 -4,-40 217.966,-40 217.966,4 -4,4"/>
<!-- message -->
<g id="node1" class="node">
<title>message</title>
<path fill="none" stroke="#000000" stroke-width="2" d="M65.8111,-36C65.8111,-36 12.0629,-36 12.0629,-36 6.0629,-36 .0629,-30 .0629,-24 .0629,-24 .0629,-12 .0629,-12 .0629,-6 6.0629,0 12.0629,0 12.0629,0 65.8111,0 65.8111,0 71.8111,0 77.8111,-6 77.8111,-12 77.8111,-12 77.8111,-24 77.8111,-24 77.8111,-30 71.8111,-36 65.8111,-36"/>
<text text-anchor="middle" x="38.937" y="-15" font-family="Fira Mono" font-size="10.00" fill="#000000">message</text>
</g>
<!-- message__Hello, World! -->
<g id="node2" class="node">
<title>message__Hello, World!</title>
<path fill="none" stroke="#000000" stroke-width="2" d="M202.012,-36C202.012,-36 125.828,-36 125.828,-36 119.828,-36 113.828,-30 113.828,-24 113.828,-24 113.828,-12 113.828,-12 113.828,-6 119.828,0 125.828,0 125.828,0 202.012,0 202.012,0 208.012,0 214.012,-6 214.012,-12 214.012,-12 214.012,-24 214.012,-24 214.012,-30 208.012,-36 202.012,-36"/>
<text text-anchor="middle" x="163.92" y="-15" font-family="Fira Mono" font-size="10.00" fill="#000000">Hello, World!</text>
</g>
<!-- message&#45;&gt;message__Hello, World! -->
<g id="edge1" class="edge">
<title>message-&gt;message__Hello, World!</title>
<path fill="none" stroke="#000000" stroke-width="2" d="M78.1395,-18C89.4505,-18 101.9494,-18 113.8259,-18"/>
</g>
</g>
</svg>