<?xml version="1.0" encoding="UTF-8" standalone="no"?>
<!DOCTYPE svg PUBLIC "-//W3C//DTD SVG 1.1//EN" "http://www.w3.org/Graphics/SVG/1.1/DTD/svg11.dtd">
<!-- Generated by graphviz version 2.40.1 (20161225.0304)
 -->
<!-- Title: %0 Pages: 1 -->
<svg width="429pt" height="314pt" viewBox="0.00 0.00 428.89 314.00" xmlns="http://www.w3.org/2000/svg" xmlns:xlink="http://www.w3.org/1999/xlink">
<g id="graph0" class="graph" transform="scale(1 1) rotate(0) translate(4 310)">
<title>%0</title>
<polygon fill="#ffffff" stroke="transparent" points="-4,4 -4,-310 424.894,-310 424.894,4 -4,4"/>
<!-- sample_graph -->
<g id="node1" class="node">
<title>sample_graph</title>
<path fill="none" stroke="#000000" stroke-width="2" d="M88.1395,-144C88.1395,-144 11.9535,-144 11.9535,-144 5.9535,-144 -.0465,-138 -.0465,-132 -.0465,-132 -.0465,-120 -.0465,-120 -.0465,-114 5.9535,-108 11.9535,-108 11.9535,-108 88.1395,-108 88.1395,-108 94.1395,-108 100.1395,-114 100.1395,-120 100.1395,-120 100.1395,-132 100.1395,-132 100.1395,-138 94.1395,-144 88.1395,-144"/>
<text text-anchor="middle" x="50.0465" y="-123" font-family="Fira Mono" font-size="10.00" fill="#000000">sample_graph</text>
</g>
<!-- sample_graph__nodes -->
<g id="node2" class="node">
<title>sample_graph__nodes</title>
<path fill="none" stroke="#000000" stroke-width="2" d="M191.5858,-171C191.5858,-171 147.9282,-171 147.9282,-171 141.9282,-171 135.9282,-165 135.9282,-159 135.9282,-159 135.9282,-147 135.9282,-147 135.9282,-141 141.9282,-135 147.9282,-135 147.9282,-135 191.5858,-135 191.5858,-135 197.5858,-135 203.5858,-141 203.5858,-147 203.5858,-147 203.5858,-159 203.5858,-159 203.5858,-165 197.5858,-171 191.5858,-171"/>
<text text-anchor="middle" x="169.757" y="-150" font-family="Fira Mono" font-size="10.00" fill="#000000">nodes</text>
</g>
<!-- sample_graph&#45;&gt;sample_graph__nodes -->
<g id="edge1" class="edge">
<title>sample_graph-&gt;sample_graph__nodes</title>
<path fill="none" stroke="#000000" stroke-width="2" d="M100.1209,-137.294C112.166,-140.0107 124.7543,-142.8499 135.8629,-145.3554"/>
</g>
<!-- sample_graph__edges -->
<g id="node3" class="node">
<title>sample_graph__edges</title>
<path fill="none" stroke="#000000" stroke-width="2" d="M191.0244,-90C191.0244,-90 148.4896,-90 148.4896,-90 142.4896,-90 136.4896,-84 136.4896,-78 136.4896,-78 136.4896,-66 136.4896,-66 136.4896,-60 142.4896,-54 148.4896,-54 148.4896,-54 191.0244,-54 191.0244,-54 197.0244,-54 203.0244,-60 203.0244,-66 203.0244,-66 203.0244,-78 203.0244,-78 203.0244,-84 197.0244,-90 191.0244,-90"/>
<text text-anchor="middle" x="169.757" y="-69" font-family="Fira Mono" font-size="10.00" fill="#000000">edges</text>
</g>
<!-- sample_graph&#45;&gt;sample_graph__edges -->
<g id="edge2" class="edge">
<title>sample_graph-&gt;sample_graph__edges</title>
<path fill="none" stroke="#000000" stroke-width="2" d="M90.2414,-107.8686C105.1847,-101.1278 121.9672,-93.5574 136.2493,-87.1149"/>
</g>
<!-- sample_graph__nodes__id -->
<g id="node4" class="node">
<title>sample_graph__nodes__id</title>
<path fill="none" stroke="#000000" stroke-width="2" d="M289.469,-252C289.469,-252 259.469,-252 259.469,-252 253.469,-252 247.469,-246 247.469,-240 247.469,-240 247.469,-228 247.469,-228 247.469,-222 253.469,-216 259.469,-216 259.469,-216 289.469,-216 289.469,-216 295.469,-216 301.469,-222 301.469,-228 301.469,-228 301.469,-240 301.469,-240 301.469,-246 295.469,-252 289.469,-252"/>
<text text-anchor="middle" x="274.469" y="-231" font-family="Fira Mono" font-size="10.00" fill="#000000">id</text>
</g>
<!-- sample_graph__nodes&#45;&gt;sample_graph__nodes__id -->
<g id="edge3" class="edge">
<title>sample_graph__nodes-&gt;sample_graph__nodes__id</title>
<path fill="none" stroke="#000000" stroke-width="2" d="M193.2564,-171.178C210.5016,-184.518 233.8212,-202.5569 251.048,-215.8827"/>
</g>
<!-- sample_graph__nodes__label -->
<g id="node6" class="node">
<title>sample_graph__nodes__label</title>
<path fill="none" stroke="#000000" stroke-width="2" d="M294.4065,-171C294.4065,-171 254.5315,-171 254.5315,-171 248.5315,-171 242.5315,-165 242.5315,-159 242.5315,-159 242.5315,-147 242.5315,-147 242.5315,-141 248.5315,-135 254.5315,-135 254.5315,-135 294.4065,-135 294.4065,-135 300.4065,-135 306.4065,-141 306.4065,-147 306.4065,-147 306.4065,-159 306.4065,-159 306.4065,-165 300.4065,-171 294.4065,-171"/>
<text text-anchor="middle" x="274.469" y="-150" font-family="Fira Mono" font-size="10.00" fill="#000000">label</text>
</g>
<!-- sample_graph__nodes&#45;&gt;sample_graph__nodes__label -->
<g id="edge4" class="edge">
<title>sample_graph__nodes-&gt;sample_graph__nodes__label</title>
<path fill="none" stroke="#000000" stroke-width="2" d="M203.4649,-153C216.0201,-153 230.221,-153 242.6054,-153"/>
</g>
<!-- sample_graph__edges__source -->
<g id="node10" class="node">
<title>sample_graph__edges__source</title>
<path fill="none" stroke="#000000" stroke-width="2" d="M297.5651,-90C297.5651,-90 251.3729,-90 251.3729,-90 245.3729,-90 239.3729,-84 239.3729,-78 239.3729,-78 239.3729,-66 239.3729,-66 239.3729,-60 245.3729,-54 251.3729,-54 251.3729,-54 297.5651,-54 297.5651,-54 303.5651,-54 309.5651,-60 309.5651,-66 309.5651,-66 309.5651,-78 309.5651,-78 309.5651,-84 303.5651,-90 297.5651,-90"/>
<text text-anchor="middle" x="274.469" y="-69" font-family="Fira Mono" font-size="10.00" fill="#000000">source</text>
</g>
<!-- sample_graph__edges&#45;&gt;sample_graph__edges__source -->
<g id="edge5" class="edge">
<title>sample_graph__edges-&gt;sample_graph__edges__source</title>
<path fill="none" stroke="#000000" stroke-width="2" d="M203.1764,-72C214.6682,-72 227.5666,-72 239.2007,-72"/>
</g>
<!-- sample_graph__edges__target -->
<g id="node12" class="node">
<title>sample_graph__edges__target</title>
<path fill="none" stroke="#000000" stroke-width="2" d="M295.7344,-36C295.7344,-36 253.2036,-36 253.2036,-36 247.2036,-36 241.2036,-30 241.2036,-24 241.2036,-24 241.2036,-12 241.2036,-12 241.2036,-6 247.2036,0 253.2036,0 253.2036,0 295.7344,0 295.7344,0 301.7344,0 307.7344,-6 307.7344,-12 307.7344,-12 307.7344,-24 307.7344,-24 307.7344,-30 301.7344,-36 295.7344,-36"/>
<text text-anchor="middle" x="274.469" y="-15" font-family="Fira Mono" font-size="10.00" fill="#000000">target</text>
</g>
<!-- sample_graph__edges&#45;&gt;sample_graph__edges__target -->
<g id="edge6" class="edge">
<title>sample_graph__edges-&gt;sample_graph__edges__target</title>
<path fill="none" stroke="#000000" stroke-width="2" d="M203.1764,-54.7656C215.2667,-48.5306 228.9141,-41.4927 241.0079,-35.2559"/>
</g>
<!-- sample_graph__nodes__id__A -->
<g id="node5" class="node">
<title>sample_graph__nodes__id__A</title>
<path fill="none" stroke="#000000" stroke-width="2" d="M398.2055,-306C398.2055,-306 368.2055,-306 368.2055,-306 362.2055,-306 356.2055,-300 356.2055,-294 356.2055,-294 356.2055,-282 356.2055,-282 356.2055,-276 362.2055,-270 368.2055,-270 368.2055,-270 398.2055,-270 398.2055,-270 404.2055,-270 410.2055,-276 410.2055,-282 410.2055,-282 410.2055,-294 410.2055,-294 410.2055,-300 404.2055,-306 398.2055,-306"/>
<text text-anchor="middle" x="383.2055" y="-285" font-family="Fira Mono" font-size="10.00" fill="#000000">A</text>
</g>
<!-- sample_graph__nodes__id&#45;&gt;sample_graph__nodes__id__A -->
<g id="edge7" class="edge">
<title>sample_graph__nodes__id-&gt;sample_graph__nodes__id__A</title>
<path fill="none" stroke="#000000" stroke-width="2" d="M301.6273,-247.4872C318.234,-255.7343 339.4042,-266.2477 356.0165,-274.4976"/>
</g>
<!-- sample_graph__nodes__id__B -->
<g id="node8" class="node">
<title>sample_graph__nodes__id__B</title>
<path fill="none" stroke="#000000" stroke-width="2" d="M398.2055,-252C398.2055,-252 368.2055,-252 368.2055,-252 362.2055,-252 356.2055,-246 356.2055,-240 356.2055,-240 356.2055,-228 356.2055,-228 356.2055,-222 362.2055,-216 368.2055,-216 368.2055,-216 398.2055,-216 398.2055,-216 404.2055,-216 410.2055,-222 410.2055,-228 410.2055,-228 410.2055,-240 410.2055,-240 410.2055,-246 404.2055,-252 398.2055,-252"/>
<text text-anchor="middle" x="383.2055" y="-231" font-family="Fira Mono" font-size="10.00" fill="#000000">B</text>
</g>
<!-- sample_graph__nodes__id&#45;&gt;sample_graph__nodes__id__B -->
<g id="edge8" class="edge">
<title>sample_graph__nodes__id-&gt;sample_graph__nodes__id__B</title>
<path fill="none" stroke="#000000" stroke-width="2" d="M301.6273,-234C318.234,-234 339.4042,-234 356.0165,-234"/>
</g>
<!-- sample_graph__nodes__label__Node A -->
<g id="node7" class="node">
<title>sample_graph__nodes__label__Node A</title>
<path fill="none" stroke="#000000" stroke-width="2" d="M409.0834,-198C409.0834,-198 357.3276,-198 357.3276,-198 351.3276,-198 345.3276,-192 345.3276,-186 345.3276,-186 345.3276,-174 345.3276,-174 345.3276,-168 351.3276,-162 357.3276,-162 357.3276,-162 409.0834,-162 409.0834,-162 415.0834,-162 421.0834,-168 421.0834,-174 421.0834,-174 421.0834,-186 421.0834,-186 421.0834,-192 415.0834,-198 409.0834,-198"/>
<text text-anchor="middle" x="383.2055" y="-177" font-family="Fira Mono" font-size="10.00" fill="#000000">Node A</text>
</g>
<!-- sample_graph__nodes__label&#45;&gt;sample_graph__nodes__label__Node A -->
<g id="edge9" class="edge">
<title>sample_graph__nodes__label-&gt;sample_graph__nodes__label__Node A</title>
<path fill="none" stroke="#000000" stroke-width="2" d="M306.2124,-160.8821C318.4988,-163.9329 332.6614,-167.4496 345.4632,-170.6283"/>
</g>
<!-- sample_graph__nodes__label__Node B -->
<g id="node9" class="node">
<title>sample_graph__nodes__label__Node B</title>
<path fill="none" stroke="#000000" stroke-width="2" d="M408.5327,-144C408.5327,-144 357.8783,-144 357.8783,-144 351.8783,-144 345.8783,-138 345.8783,-132 345.8783,-132 345.8783,-120 345.8783,-120 345.8783,-114 351.8783,-108 357.8783,-108 357.8783,-108 408.5327,-108 408.5327,-108 414.5327,-108 420.5327,-114 420.5327,-120 420.5327,-120 420.5327,-132 420.5327,-132 420.5327,-138 414.5327,-144 408.5327,-144"/>
<text text-anchor="middle" x="383.2055" y="-123" font-family="Fira Mono" font-size="10.00" fill="#000000">Node B</text>
</g>
<!-- sample_graph__nodes__label&#45;&gt;sample_graph__nodes__label__Node B -->
<g id="edge10" class="edge">
<title>sample_graph__nodes__label-&gt;sample_graph__nodes__label__Node B</title>
<path fill="none" stroke="#000000" stroke-width="2" d="M306.2124,-145.1179C318.6242,-142.036 332.9506,-138.4786 345.8547,-135.2745"/>
</g>
<!-- sample_graph__edges__source__A -->
<g id="node11" class="node">
<title>sample_graph__edges__source__A</title>
<path fill="none" stroke="#000000" stroke-width="2" d="M398.2055,-90C398.2055,-90 368.2055,-90 368.2055,-90 362.2055,-90 356.2055,-84 356.2055,-78 356.2055,-78 356.2055,-66 356.2055,-66 356.2055,-60 362.2055,-54 368.2055,-54 368.2055,-54 398.2055,-54 398.2055,-54 404.2055,-54 410.2055,-60 410.2055,-66 410.2055,-66 410.2055,-78 410.2055,-78 410.2055,-84 404.2055,-90 398.2055,-90"/>
<text text-anchor="middle" x="383.2055" y="-69" font-family="Fira Mono" font-size="10.00" fill="#000000">A</text>
</g>
<!-- sample_graph__edges__source&#45;&gt;sample_graph__edges__source__A -->
<g id="edge11" class="edge">
<title>sample_graph__edges__source-&gt;sample_graph__edges__source__A</title>
<path fill="none" stroke="#000000" stroke-width="2" d="M309.7726,-72C324.7796,-72 342.0055,-72 356.0001,-72"/>
</g>
<!-- sample_graph__edges__target__B -->
<g id="node13" class="node">
<title>sample_graph__edges__target__B</title>
<path fill="none" stroke="#000000" stroke-width="2" d="M398.2055,-36C398.2055,-36 368.2055,-36 368.2055,-36 362.2055,-36 356.2055,-30 356.2055,-24 356.2055,-24 356.2055,-12 356.2055,-12 356.2055,-6 362.2055,0 368.2055,0 368.2055,0 398.2055,0 398.2055,0 404.2055,0 410.2055,-6 410.2055,-12 410.2055,-12 410.2055,-24 410.2055,-24 410.2055,-30 404.2055,-36 398.2055,-36"/>
<text text-anchor="middle" x="383.2055" y="-15" font-family="Fira Mono" font-size="10.00" fill="#000000">B</text>
</g>
<!-- sample_graph__edges__target&#45;&gt;sample_graph__edges__target__B -->
<g id="edge12" class="edge">
<title>sample_graph__edges__target-&gt;sample_graph__edges__target__B</title>
<path fill="none" stroke="#000000" stroke-width="2" d="M307.9808,-18C323.4563,-18 341.589,-18 356.174,-18"/>
</g>
</g>
</svg>